{
.appVersion = "1141";
DisplayStrings = (
"/i-hira/i-hira/ha-hira  /ho-hira/to-hira/ri-hira/ru-hira/wa-hira  /yo-hira/re-hira/tu-hira/na-hira/mu-hira/wi-hira  /o-hira/ya-hira/ke-hira/ko-hira  /te-hira/sa-hira/yu-hira/mi-hira  /we-hira/mo-hira  /su-hira/ro-hira/ni-hira/he-hira/ti-hira  /nu-hira/wo-hira/ka-hira/ta-hira/so-hira/ne-hira  /ra-hira/u-hira/no-hira/ku-hira  /ma-hira/hu-hira/e-hira  /a-hira/ki-hira/me-hira   /si-hira/mu-hira/so-hira/hi-hira/ri-hira  /se-hira/i-hira/ni-hira/to-hira/nu-hira/wa-hira  /ta-hira/tu-hira/ra-hira/wi-hira/ku-hira/ke-hira/e-hira/sa-hira/ho-hira/me-hira/we-hira/se-hira/ro-hira/ho-hira/ti-hira/ru-hira/ka-hira/re-hira/ne-hira/mu-hira/no-hira/ya-hira/hu-hira/te-hira/ki-hira/mi-hira/hi-hira/su-hira/so-hira/ha-hira/he-hira/ri-hira/wo-hira/yo-hira/so-hira/na-hira/u-hira/o-hira/ma-hira/ko-hira/a-hira/yu-hira/si-hira/mo-hira/i-hira/ho-hira/ri-hira/so-hira/wa-hira/so-hira/re-hira/na-hira/wi-hira/ya-hira/ko-hira/sa-hira/mi-hira/mo-hira/ro-hira/he-hira/nu-hira/ka-hira/so-hira/ra-hira/no-hira/ma-hira/e-hira/ki-hira/si-hira/se-hira/ha-hira/so-hira/to-hira/ru-hira/yo-hira/tu-hira/mu-hira/o-hira/ke-hira/te-hira/yu-hira/we-hira/su-hira/ni-hira/ti-hira/wo-hira/ta-hira/ne-hira/u-hira/ku-hira/hu-hira/a-hira/me-hira/hi-hira/i-hira",
"/n-hira.xbotu",
"/at.full/zu-hira/to-hira/mo-hira/comma-han/yo-hira/i-hira/period-han/a-hira/i-hira",
"/at_at/ko-hira/su-hira/pa-hira/ge-hira/tusmall-hira/te-hira/ismall-hira/prolonged-kana",
"/a-hira",
"/n-hira.xbotu",
"/u-hira/u-hira/u-hira/kaze-kanji/u-hira/a-hira/u-hira/a-hira/u-hira/a-hira",
"/u-hira",
"/hi-hira.med"
);
classes = (
{

glyphs = (
{
glyphname = "a-hira";
lastChange = "2018-09-15 12:31:29 +0000";
layers = (
{
anchors = (
{
name = daku;
position = "{416, 660}";
}
);
layerId = "CDF314B6-AD07-4304-BC80-988178CB760F";
paths = (
{
closed = 1;
nodes = (
"504 0 OFFCURVE",
"602 70 OFFCURVE",
"602 175 CURVE",
"602 280 OFFCURVE",
"504 350 OFFCURVE",
"399 350 CURVE",
"294 350 OFFCURVE",
"189 280 OFFCURVE",
"189 175 CURVE",
"189 70 OFFCURVE",
"294 0 OFFCURVE",
"399 0 CURVE"
);
},
{
closed = 1;
nodes = (
"539 63 OFFCURVE",
"602 0 OFFCURVE",
"672 0 CURVE",
"744 0 OFFCURVE",
"777 42 OFFCURVE",
"798 105 CURVE",
"735 126 LINE",
"721 84 OFFCURVE",
"707 69 OFFCURVE",
"672 69 CURVE",
"637 69 OFFCURVE",
"609 80 OFFCURVE",
"609 175 CURVE",
"609 315 OFFCURVE",
"609 567 OFFCURVE",
"399 567 CURVE",
"224 567 OFFCURVE",
"105 441 OFFCURVE",
"0 126 CURVE",
"63 105 LINE",
"161 399 OFFCURVE",
"259 504 OFFCURVE",
"399 504 CURVE",
"539 504 OFFCURVE",
"539 315 OFFCURVE",
"539 175 CURVE",
"539 126 LINE"
);
},
{
closed = 1;
nodes = (
"252 245 OFFCURVE",
"322 287 OFFCURVE",
"399 287 CURVE",
"476 287 OFFCURVE",
"539 245 OFFCURVE",
"539 175 CURVE",
"539 105 OFFCURVE",
"476 63 OFFCURVE",
"399 63 CURVE",
"322 63 OFFCURVE",
"252 105 OFFCURVE",
"252 175 CURVE"
);
}
);
width = 735;
}
);
unicode = 3042;
},
{
glyphname = "i-hira";
lastChange = "2018-07-16 17:34:15 +0000";
layers = (
{
anchors = (
{
name = daku;
position = "{348, 430}";
}
);
layerId = "CDF314B6-AD07-4304-BC80-988178CB760F";
paths = (
{
closed = 1;
nodes = (
"258 200 LINE",
"278 300 LINE",
"174 230 LINE",
"168 200 LINE"
);
},
{
closed = 1;
nodes = (
"165 181 OFFCURVE",
"163 163 OFFCURVE",
"163 147 CURVE SMOOTH",
"163 47 OFFCURVE",
"219 0 OFFCURVE",
"308 0 CURVE SMOOTH",
"377 0 OFFCURVE",
"421 28 OFFCURVE",
"460 88 CURVE",
"468 134 LINE",
"408 79 OFFCURVE",
"377 60 OFFCURVE",
"320 60 CURVE SMOOTH",
"281 60 OFFCURVE",
"253 83 OFFCURVE",
"253 146 CURVE SMOOTH",
"253 162 OFFCURVE",
"254 179 OFFCURVE",
"258 200 CURVE",
"168 200 LINE"
);
},
{
closed = 1;
nodes = (
"528 200 LINE",
"568 400 LINE",
"478 400 LINE",
"438 200 LINE"
);
},
{
closed = 1;
nodes = (
"228 212 OFFCURVE",
"280 257 OFFCURVE",
"280 320 CURVE SMOOTH",
"280 379 OFFCURVE",
"229 432 OFFCURVE",
"162 432 CURVE SMOOTH",
"102 432 OFFCURVE",
"50 386 OFFCURVE",
"50 324 CURVE SMOOTH",
"50 265 OFFCURVE",
"99 212 OFFCURVE",
"167 212 CURVE SMOOTH"
);
},
{
closed = 1;
nodes = (
"116 354 OFFCURVE",
"140 382 OFFCURVE",
"168 382 CURVE SMOOTH",
"195 382 OFFCURVE",
"215 356 OFFCURVE",
"215 325 CURVE SMOOTH",
"215 290 OFFCURVE",
"189 261 OFFCURVE",
"160 261 CURVE SMOOTH",
"133 261 OFFCURVE",
"116 287 OFFCURVE",
"116 318 CURVE SMOOTH"
);
},
{
closed = 1;
nodes = (
"590 60 LINE",
"551 60 OFFCURVE",
"523 83 OFFCURVE",
"523 146 CURVE SMOOTH",
"523 162 OFFCURVE",
"524 179 OFFCURVE",
"528 200 CURVE",
"438 200 LINE",
"435 181 OFFCURVE",
"433 163 OFFCURVE",
"433 147 CURVE SMOOTH",
"433 47 OFFCURVE",
"489 0 OFFCURVE",
"578 0 CURVE"
);
},
{
closed = 1;
nodes = (
"578 0 LINE",
"647 0 OFFCURVE",
"691 28 OFFCURVE",
"730 88 CURVE",
"738 134 LINE",
"678 79 OFFCURVE",
"647 60 OFFCURVE",
"590 60 CURVE"
);
}
);
width = 788;
}
);
unicode = 3044;
},
{
glyphname = "u-hira";
lastChange = "2018-09-16 04:23:01 +0000";
layers = (
{
anchors = (
{
name = daku;
position = "{333, 300}";
}
);
layerId = "CDF314B6-AD07-4304-BC80-988178CB760F";
paths = (
{
closed = 1;
nodes = (
"105 231 OFFCURVE",
"144 385 OFFCURVE",
"317 385 CURVE SMOOTH",
"394 385 OFFCURVE",
"457 357 OFFCURVE",
"457 287 CURVE SMOOTH",
"457 252 OFFCURVE",
"394 224 OFFCURVE",
"317 224 CURVE",
"317 161 LINE",
"422 161 OFFCURVE",
"520 217 OFFCURVE",
"520 287 CURVE SMOOTH",
"520 392 OFFCURVE",
"422 448 OFFCURVE",
"317 448 CURVE SMOOTH",
"139 448 OFFCURVE",
"63 315 OFFCURVE",
"0 126 CURVE",
"63 105 LINE"
);
},
{
closed = 1;
nodes = (
"317 -236 LINE",
"275 -236 OFFCURVE",
"240 -194 OFFCURVE",
"240 -124 CURVE",
"177 -124 LINE",
"178 -229 OFFCURVE",
"247 -299 OFFCURVE",
"317 -299 CURVE"
);
},
{
closed = 1;
nodes = (
"422 -299 OFFCURVE",
"520 -143 OFFCURVE",
"520 23 CURVE SMOOTH",
"520 170 OFFCURVE",
"422 224 OFFCURVE",
"317 224 CURVE",
"317 161 LINE",
"394 161 OFFCURVE",
"457 135 OFFCURVE",
"457 23 CURVE SMOOTH",
"457 -108 OFFCURVE",
"394 -236 OFFCURVE",
"317 -236 CURVE",
"317 -299 LINE"
);
},
{
closed = 1;
nodes = (
"317 161 LINE",
"317 224 LINE",
"258 224 LINE",
"258 161 LINE"
);
},
{
closed = 1;
nodes = (
"257 51 OFFCURVE",
"178 -19 OFFCURVE",
"177 -124 CURVE",
"240 -124 LINE",
"240 -54 OFFCURVE",
"285 -12 OFFCURVE",
"357 -12 CURVE",
"357 51 LINE"
);
},
{
closed = 1;
nodes = (
"457 9 LINE",
"520 -12 LINE",
"563 105 LINE",
"500 126 LINE"
);
},
{
closed = 1;
nodes = (
"357 51 LINE",
"357 -12 LINE",
"520 -12 LINE",
"520 51 LINE"
);
}
);
width = 500;
}
);
unicode = 3046;
},
{
glyphname = "e-hira";
lastChange = "2018-07-16 17:34:15 +0000";
layers = (
{
anchors = (
{
name = daku;
position = "{264, 600}";
}
);
layerId = "CDF314B6-AD07-4304-BC80-988178CB760F";
paths = (
{
closed = 1;
nodes = (
"181 181 OFFCURVE",
"179 163 OFFCURVE",
"179 147 CURVE SMOOTH",
"179 47 OFFCURVE",
"235 0 OFFCURVE",
"324 0 CURVE",
"336 60 LINE",
"297 60 OFFCURVE",
"269 83 OFFCURVE",
"269 146 CURVE SMOOTH",
"269 162 OFFCURVE",
"270 179 OFFCURVE",
"274 200 CURVE",
"184 200 LINE"
);
},
{
closed = 1;
nodes = (
"139 200 LINE",
"103 200 OFFCURVE",
"74 183 OFFCURVE",
"50 123 CURVE",
"73 77 LINE",
"97 137 OFFCURVE",
"109 140 OFFCURVE",
"127 140 CURVE"
);
},
{
closed = 1;
nodes = (
"144 0 LINE",
"104 -200 LINE",
"194 -200 LINE",
"234 0 LINE"
);
},
{
closed = 1;
nodes = (
"104 -200 LINE",
"64 -400 LINE",
"154 -400 LINE",
"194 -200 LINE"
);
},
{
closed = 1;
nodes = (
"224 400 LINE",
"184 200 LINE",
"274 200 LINE",
"314 400 LINE"
);
},
{
closed = 1;
nodes = (
"264 600 LINE",
"224 400 LINE",
"314 400 LINE",
"354 600 LINE"
);
},
{
closed = 1;
nodes = (
"127 140 LINE",
"147 140 OFFCURVE",
"155 118 OFFCURVE",
"155 86 CURVE SMOOTH",
"155 61 OFFCURVE",
"150 31 OFFCURVE",
"144 0 CURVE",
"234 0 LINE",
"240 36 OFFCURVE",
"243 66 OFFCURVE",
"243 92 CURVE SMOOTH",
"243 166 OFFCURVE",
"216 200 OFFCURVE",
"139 200 CURVE"
);
}
);
width = 404;
}
);
unicode = 3048;
},
{
glyphname = "o-hira";
lastChange = "2018-07-16 17:34:15 +0000";
layers = (
{
anchors = (
{
name = daku;
position = "{365, 420}";
}
);
layerId = "CDF314B6-AD07-4304-BC80-988178CB760F";
paths = (
{
closed = 1;
nodes = (
"170 200 LINE",
"130 0 LINE",
"220 0 LINE",
"260 200 LINE"
);
},
{
closed = 1;
nodes = (
"579 252 OFFCURVE",
"581 264 OFFCURVE",
"581 275 CURVE SMOOTH",
"581 358 OFFCURVE",
"518 420 OFFCURVE",
"413 420 CURVE SMOOTH",
"293 420 OFFCURVE",
"195 325 OFFCURVE",
"170 200 CURVE",
"260 200 LINE",
"280 300 OFFCURVE",
"344 360 OFFCURVE",
"401 360 CURVE SMOOTH",
"463 360 OFFCURVE",
"491 326 OFFCURVE",
"491 275 CURVE SMOOTH",
"491 264 OFFCURVE",
"489 252 OFFCURVE",
"487 240 CURVE",
"577 240 LINE"
);
},
{
closed = 1;
nodes = (
"365 120 LINE",
"329 120 OFFCURVE",
"314 123 OFFCURVE",
"290 139 CURVE",
"254 85 LINE",
"278 69 OFFCURVE",
"305 60 OFFCURVE",
"353 60 CURVE"
);
},
{
closed = 1;
nodes = (
"130 0 LINE",
"90 -200 LINE",
"180 -200 LINE",
"220 0 LINE"
);
},
{
closed = 1;
nodes = (
"90 -200 LINE",
"50 -400 LINE",
"140 -400 LINE",
"180 -200 LINE"
);
},
{
closed = 1;
nodes = (
"353 60 LINE",
"468 60 OFFCURVE",
"557 140 OFFCURVE",
"577 240 CURVE",
"487 240 LINE",
"473 170 OFFCURVE",
"421 120 OFFCURVE",
"365 120 CURVE"
);
},
{
closed = 1;
nodes = (
"537 60 LINE",
"477 60 OFFCURVE",
"370 59 OFFCURVE",
"290 139 CURVE",
"254 85 LINE",
"334 5 OFFCURVE",
"465 0 OFFCURVE",
"525 0 CURVE"
);
},
{
closed = 1;
nodes = (
"165 400 LINE",
"129 400 OFFCURVE",
"100 383 OFFCURVE",
"76 323 CURVE",
"99 277 LINE",
"123 337 OFFCURVE",
"135 340 OFFCURVE",
"153 340 CURVE"
);
},
{
closed = 1;
nodes = (
"153 340 LINE",
"173 340 OFFCURVE",
"181 318 OFFCURVE",
"181 286 CURVE SMOOTH",
"181 261 OFFCURVE",
"176 231 OFFCURVE",
"170 200 CURVE",
"260 200 LINE",
"266 236 OFFCURVE",
"269 266 OFFCURVE",
"269 292 CURVE SMOOTH",
"269 366 OFFCURVE",
"242 400 OFFCURVE",
"165 400 CURVE"
);
}
);
width = 631;
}
);
unicode = 304A;
},
{
glyphname = "ka-hira";
lastChange = "2018-07-14 22:07:36 +0000";
layers = (
{
components = (
{
name = "kadotless-hira";
}
);
layerId = "CDF314B6-AD07-4304-BC80-988178CB760F";
paths = (
{
closed = 1;
nodes = (
"381 260 OFFCURVE",
"403 282 OFFCURVE",
"403 310 CURVE SMOOTH",
"403 338 OFFCURVE",
"381 360 OFFCURVE",
"353 360 CURVE SMOOTH",
"325 360 OFFCURVE",
"303 338 OFFCURVE",
"303 310 CURVE SMOOTH",
"303 282 OFFCURVE",
"325 260 OFFCURVE",
"353 260 CURVE SMOOTH"
);
}
);
width = 543;
}
);
unicode = 304B;
},
{
glyphname = "ki-hira";
lastChange = "2018-07-14 22:09:29 +0000";
layers = (
{
components = (
{
name = "kidotless-hira";
}
);
layerId = "CDF314B6-AD07-4304-BC80-988178CB760F";
paths = (
{
closed = 1;
nodes = (
"372 300 OFFCURVE",
"394 322 OFFCURVE",
"394 350 CURVE SMOOTH",
"394 378 OFFCURVE",
"372 400 OFFCURVE",
"344 400 CURVE SMOOTH",
"316 400 OFFCURVE",
"294 378 OFFCURVE",
"294 350 CURVE SMOOTH",
"294 322 OFFCURVE",
"316 300 OFFCURVE",
"344 300 CURVE SMOOTH"
);
}
);
width = 651;
}
);
unicode = 304D;
},
{
glyphname = "ku-hira";
lastChange = "2018-07-16 17:34:15 +0000";
layers = (
{
anchors = (
{
name = daku;
position = "{293, 246}";
}
);
layerId = "CDF314B6-AD07-4304-BC80-988178CB760F";
paths = (
{
closed = 1;
nodes = (
"293 246 LINE",
"217 196 OFFCURVE",
"189 147 OFFCURVE",
"189 96 CURVE SMOOTH",
"189 74 OFFCURVE",
"194 52 OFFCURVE",
"203 30 CURVE",
"293 30 LINE",
"279 66 OFFCURVE",
"266 94 OFFCURVE",
"266 121 CURVE SMOOTH",
"266 151 OFFCURVE",
"282 178 OFFCURVE",
"329 210 CURVE"
);
},
{
closed = 1;
nodes = (
"86 48 LINE",
"329 210 LINE",
"293 246 LINE",
"50 84 LINE"
);
},
{
closed = 1;
nodes = (
"329 210 LINE",
"410 264 LINE",
"374 300 LINE",
"293 246 LINE"
);
},
{
closed = 1;
nodes = (
"203 -186 LINE",
"446 -24 LINE",
"410 12 LINE",
"167 -150 LINE"
);
},
{
closed = 1;
nodes = (
"203 -186 LINE",
"279 -136 OFFCURVE",
"307 -87 OFFCURVE",
"307 -36 CURVE SMOOTH",
"307 -14 OFFCURVE",
"302 8 OFFCURVE",
"293 30 CURVE",
"203 30 LINE",
"217 -6 OFFCURVE",
"230 -34 OFFCURVE",
"230 -61 CURVE SMOOTH",
"230 -91 OFFCURVE",
"214 -118 OFFCURVE",
"167 -150 CURVE"
);
},
{
closed = 1;
nodes = (
"122 -240 LINE",
"203 -186 LINE",
"167 -150 LINE",
"86 -204 LINE"
);
},
{
closed = 1;
nodes = (
"446 -24 LINE",
"527 30 LINE",
"491 66 LINE",
"410 12 LINE"
);
}
);
width = 577;
}
);
unicode = 304F;
},
{
glyphname = "ke-hira";
lastChange = "2018-07-16 17:34:15 +0000";
layers = (
{
anchors = (
{
name = daku;
position = "{232, 200}";
}
);
layerId = "CDF314B6-AD07-4304-BC80-988178CB760F";
paths = (
{
closed = 1;
nodes = (
"374 12 LINE",
"50 -204 LINE",
"86 -240 LINE",
"410 -24 LINE"
);
},
{
closed = 1;
nodes = (
"474 60 LINE",
"438 60 OFFCURVE",
"410 36 OFFCURVE",
"374 12 CURVE",
"410 -24 LINE",
"428 -12 OFFCURVE",
"444 0 OFFCURVE",
"462 0 CURVE"
);
},
{
closed = 1;
nodes = (
"332 -200 LINE",
"372 0 LINE",
"282 0 LINE",
"242 -200 LINE"
);
},
{
closed = 1;
nodes = (
"50 0 LINE",
"95 0 OFFCURVE",
"138 -41 OFFCURVE",
"138 -86 CURVE SMOOTH",
"138 -90 OFFCURVE",
"138 -94 OFFCURVE",
"137 -99 CURVE",
"227 -99 LINE",
"229 -89 OFFCURVE",
"230 -79 OFFCURVE",
"230 -70 CURVE SMOOTH",
"230 12 OFFCURVE",
"154 60 OFFCURVE",
"62 60 CURVE"
);
},
{
closed = 1;
nodes = (
"146 -200 OFFCURVE",
"214 -156 OFFCURVE",
"227 -99 CURVE",
"137 -99 LINE",
"127 -149 OFFCURVE",
"95 -174 OFFCURVE",
"50 -204 CURVE",
"86 -240 LINE"
);
},
{
closed = 1;
nodes = (
"372 0 LINE",
"412 200 LINE",
"322 200 LINE",
"282 0 LINE"
);
},
{
closed = 1;
nodes = (
"292 -400 LINE",
"332 -200 LINE",
"242 -200 LINE",
"202 -400 LINE"
);
}
);
width = 524;
}
);
unicode = 3051;
},
{
glyphname = "ko-hira";
lastChange = "2018-07-16 17:34:15 +0000";
layers = (
{
anchors = (
{
name = daku;
position = "{263, 430}";
}
);
layerId = "CDF314B6-AD07-4304-BC80-988178CB760F";
paths = (
{
closed = 1;
nodes = (
"335 200 LINE",
"355 300 LINE",
"251 230 LINE",
"245 200 LINE"
);
},
{
closed = 1;
nodes = (
"305 212 OFFCURVE",
"357 257 OFFCURVE",
"357 320 CURVE SMOOTH",
"357 379 OFFCURVE",
"306 432 OFFCURVE",
"239 432 CURVE SMOOTH",
"179 432 OFFCURVE",
"127 386 OFFCURVE",
"127 324 CURVE SMOOTH",
"127 265 OFFCURVE",
"176 212 OFFCURVE",
"244 212 CURVE SMOOTH"
);
},
{
closed = 1;
nodes = (
"193 354 OFFCURVE",
"217 382 OFFCURVE",
"245 382 CURVE SMOOTH",
"272 382 OFFCURVE",
"292 356 OFFCURVE",
"292 325 CURVE SMOOTH",
"292 290 OFFCURVE",
"266 261 OFFCURVE",
"237 261 CURVE SMOOTH",
"210 261 OFFCURVE",
"193 287 OFFCURVE",
"193 318 CURVE SMOOTH"
);
},
{
closed = 1;
nodes = (
"245 200 LINE",
"458 200 LINE",
"470 260 LINE",
"257 260 LINE"
);
},
{
closed = 1;
nodes = (
"50 0 LINE",
"165 0 OFFCURVE",
"282 63 OFFCURVE",
"326 200 CURVE",
"245 200 LINE",
"209 95 OFFCURVE",
"118 60 OFFCURVE",
"62 60 CURVE"
);
},
{
closed = 1;
nodes = (
"475 60 LINE",
"454 60 OFFCURVE",
"447 79 OFFCURVE",
"447 111 CURVE SMOOTH",
"447 135 OFFCURVE",
"451 166 OFFCURVE",
"458 200 CURVE",
"377 200 LINE",
"369 158 OFFCURVE",
"364 123 OFFCURVE",
"364 95 CURVE SMOOTH",
"364 29 OFFCURVE",
"390 0 OFFCURVE",
"463 0 CURVE"
);
},
{
closed = 1;
nodes = (
"463 0 LINE",
"532 0 OFFCURVE",
"576 28 OFFCURVE",
"615 88 CURVE",
"623 134 LINE",
"563 79 OFFCURVE",
"532 60 OFFCURVE",
"475 60 CURVE"
);
}
);
width = 673;
}
);
unicode = 3053;
},
{
glyphname = "sa-hira";
lastChange = "2018-07-16 17:34:15 +0000";
layers = (
{
anchors = (
{
name = daku;
position = "{278, 440}";
}
);
layerId = "CDF314B6-AD07-4304-BC80-988178CB760F";
paths = (
{
closed = 1;
nodes = (
"552 322 OFFCURVE",
"553 329 OFFCURVE",
"553 335 CURVE SMOOTH",
"553 403 OFFCURVE",
"481 440 OFFCURVE",
"408 440 CURVE",
"396 380 LINE",
"447 380 OFFCURVE",
"462 355 OFFCURVE",
"462 329 CURVE SMOOTH",
"462 324 OFFCURVE",
"462 320 OFFCURVE",
"461 315 CURVE",
"551 315 LINE"
);
},
{
closed = 1;
nodes = (
"287 190 LINE",
"402 190 OFFCURVE",
"531 215 OFFCURVE",
"551 315 CURVE",
"461 315 LINE",
"451 265 OFFCURVE",
"355 250 OFFCURVE",
"299 250 CURVE"
);
},
{
closed = 1;
nodes = (
"234 250 LINE",
"222 190 LINE",
"287 190 LINE",
"299 250 LINE"
);
},
{
closed = 1;
nodes = (
"408 440 LINE",
"341 440 OFFCURVE",
"282 410 OFFCURVE",
"237 359 CURVE",
"239 354 OFFCURVE",
"240 348 OFFCURVE",
"240 342 CURVE SMOOTH",
"240 310 OFFCURVE",
"215 271 OFFCURVE",
"179 253 CURVE",
"177 242 OFFCURVE",
"173 231 OFFCURVE",
"171 220 CURVE",
"261 220 LINE",
"281 320 OFFCURVE",
"340 380 OFFCURVE",
"396 380 CURVE"
);
},
{
closed = 1;
nodes = (
"368 60 LINE",
"316 60 OFFCURVE",
"257 98 OFFCURVE",
"257 180 CURVE SMOOTH",
"257 192 OFFCURVE",
"258 206 OFFCURVE",
"261 220 CURVE",
"171 220 LINE",
"168 203 OFFCURVE",
"166 187 OFFCURVE",
"166 172 CURVE SMOOTH",
"166 48 OFFCURVE",
"276 0 OFFCURVE",
"356 0 CURVE"
);
},
{
closed = 1;
nodes = (
"356 0 LINE",
"425 0 OFFCURVE",
"469 28 OFFCURVE",
"508 88 CURVE",
"516 134 LINE",
"456 79 OFFCURVE",
"425 60 OFFCURVE",
"368 60 CURVE"
);
},
{
closed = 1;
nodes = (
"228 212 OFFCURVE",
"280 257 OFFCURVE",
"280 320 CURVE SMOOTH",
"280 379 OFFCURVE",
"229 432 OFFCURVE",
"162 432 CURVE SMOOTH",
"102 432 OFFCURVE",
"50 386 OFFCURVE",
"50 324 CURVE SMOOTH",
"50 265 OFFCURVE",
"99 212 OFFCURVE",
"167 212 CURVE SMOOTH"
);
},
{
closed = 1;
nodes = (
"116 354 OFFCURVE",
"140 382 OFFCURVE",
"168 382 CURVE SMOOTH",
"195 382 OFFCURVE",
"215 356 OFFCURVE",
"215 325 CURVE SMOOTH",
"215 290 OFFCURVE",
"189 261 OFFCURVE",
"160 261 CURVE SMOOTH",
"133 261 OFFCURVE",
"116 287 OFFCURVE",
"116 318 CURVE SMOOTH"
);
}
);
width = 603;
}
);
unicode = 3055;
},
{
glyphname = "si-hira";
lastChange = "2018-07-16 17:34:15 +0000";
layers = (
{
anchors = (
{
name = daku;
position = "{225, 440}";
}
);
layerId = "CDF314B6-AD07-4304-BC80-988178CB760F";
paths = (
{
closed = 1;
nodes = (
"116 353 LINE",
"143 371 OFFCURVE",
"179 380 OFFCURVE",
"213 380 CURVE",
"225 440 LINE",
"193 440 OFFCURVE",
"160 433 OFFCURVE",
"130 421 CURVE"
);
},
{
closed = 1;
nodes = (
"346 132 OFFCURVE",
"347 139 OFFCURVE",
"347 145 CURVE SMOOTH",
"347 213 OFFCURVE",
"275 250 OFFCURVE",
"202 250 CURVE",
"116 250 LINE",
"104 190 LINE",
"190 190 LINE",
"241 190 OFFCURVE",
"256 165 OFFCURVE",
"256 139 CURVE SMOOTH",
"256 134 OFFCURVE",
"256 130 OFFCURVE",
"255 125 CURVE",
"345 125 LINE"
);
},
{
closed = 1;
nodes = (
"152 0 LINE",
"267 0 OFFCURVE",
"325 25 OFFCURVE",
"345 125 CURVE",
"255 125 LINE",
"245 75 OFFCURVE",
"220 60 OFFCURVE",
"164 60 CURVE"
);
},
{
closed = 1;
nodes = (
"369 322 OFFCURVE",
"370 329 OFFCURVE",
"370 335 CURVE SMOOTH",
"370 403 OFFCURVE",
"298 440 OFFCURVE",
"225 440 CURVE",
"213 380 LINE",
"264 380 OFFCURVE",
"279 355 OFFCURVE",
"279 329 CURVE SMOOTH",
"279 324 OFFCURVE",
"279 320 OFFCURVE",
"278 315 CURVE",
"368 315 LINE"
);
},
{
closed = 1;
nodes = (
"104 190 LINE",
"219 190 OFFCURVE",
"349 215 OFFCURVE",
"368 315 CURVE",
"278 315 LINE",
"268 265 OFFCURVE",
"172 250 OFFCURVE",
"116 250 CURVE"
);
},
{
closed = 1;
nodes = (
"50 20 LINE",
"66 8 OFFCURVE",
"136 0 OFFCURVE",
"152 0 CURVE",
"164 60 LINE",
"148 60 OFFCURVE",
"78 68 OFFCURVE",
"62 80 CURVE"
);
},
{
closed = 1;
nodes = (
"152 0 LINE",
"320 0 LINE",
"332 60 LINE",
"164 60 LINE"
);
},
{
closed = 1;
nodes = (
"320 0 LINE",
"389 0 OFFCURVE",
"433 28 OFFCURVE",
"472 88 CURVE",
"480 134 LINE",
"420 79 OFFCURVE",
"389 60 OFFCURVE",
"332 60 CURVE"
);
}
);
width = 530;
}
);
unicode = 3057;
},
{
glyphname = "su-hira";
lastChange = "2018-07-16 17:34:15 +0000";
layers = (
{
anchors = (
{
name = daku;
position = "{223, 342}";
}
);
layerId = "CDF314B6-AD07-4304-BC80-988178CB760F";
paths = (
{
closed = 1;
nodes = (
"375 100 LINE",
"405 160 LINE",
"223 342 LINE",
"193 282 LINE"
);
},
{
closed = 1;
nodes = (
"229 90 LINE",
"171 90 OFFCURVE",
"142 62 OFFCURVE",
"118 2 CURVE",
"141 -44 LINE",
"165 16 OFFCURVE",
"187 30 OFFCURVE",
"217 30 CURVE"
);
},
{
closed = 1;
nodes = (
"217 30 LINE",
"239 30 OFFCURVE",
"255 11 OFFCURVE",
"255 -30 CURVE SMOOTH",
"255 -44 OFFCURVE",
"253 -61 OFFCURVE",
"249 -80 CURVE SMOOTH",
"219 -230 OFFCURVE",
"72 -370 OFFCURVE",
"12 -370 CURVE",
"0 -430 LINE",
"90 -430 OFFCURVE",
"299 -280 OFFCURVE",
"339 -80 CURVE SMOOTH",
"342 -66 OFFCURVE",
"343 -53 OFFCURVE",
"343 -40 CURVE SMOOTH",
"343 36 OFFCURVE",
"297 90 OFFCURVE",
"229 90 CURVE"
);
}
);
width = 455;
}
);
unicode = 3059;
},
{
glyphname = "se-hira";
lastChange = "2018-07-14 13:04:07 +0000";
layers = (
{
anchors = (
{
name = daku;
position = "{260, 400}";
}
);
layerId = "CDF314B6-AD07-4304-BC80-988178CB760F";
paths = (
{
closed = 1;
nodes = (
"50 0 LINE",
"86 0 OFFCURVE",
"116 8 OFFCURVE",
"156 48 CURVE",
"126 108 LINE",
"96 78 OFFCURVE",
"80 60 OFFCURVE",
"62 60 CURVE"
);
},
{
closed = 1;
nodes = (
"156 48 LINE",
"456 348 LINE",
"426 408 LINE",
"126 108 LINE"
);
},
{
closed = 1;
nodes = (
"456 348 LINE",
"488 380 LINE",
"508 400 LINE",
"516 440 LINE",
"458 440 LINE",
"426 408 LINE"
);
},
{
closed = 1;
nodes = (
"418 400 LINE",
"378 200 LINE",
"468 200 LINE",
"508 400 LINE"
);
},
{
closed = 1;
nodes = (
"378 200 LINE",
"338 0 LINE",
"428 0 LINE",
"468 200 LINE"
);
},
{
closed = 1;
nodes = (
"260 0 LINE",
"375 0 OFFCURVE",
"433 25 OFFCURVE",
"453 125 CURVE",
"363 125 LINE",
"353 75 OFFCURVE",
"328 60 OFFCURVE",
"272 60 CURVE"
);
},
{
closed = 1;
nodes = (
"260 0 LINE",
"473 0 LINE",
"485 60 LINE",
"272 60 LINE"
);
}
);
width = 566;
}
);
unicode = 305B;
},
{
glyphname = "so-hira";
lastChange = "2018-07-16 17:34:15 +0000";
layers = (
{
anchors = (
{
name = daku;
position = "{289, 440}";
}
);
layerId = "CDF314B6-AD07-4304-BC80-988178CB760F";
paths = (
{
closed = 1;
nodes = (
"528 0 LINE",
"597 0 OFFCURVE",
"641 28 OFFCURVE",
"680 88 CURVE",
"688 134 LINE",
"628 79 OFFCURVE",
"597 60 OFFCURVE",
"540 60 CURVE"
);
},
{
closed = 1;
nodes = (
"532 259 OFFCURVE",
"534 277 OFFCURVE",
"534 293 CURVE SMOOTH",
"534 393 OFFCURVE",
"478 440 OFFCURVE",
"389 440 CURVE SMOOTH",
"320 440 OFFCURVE",
"276 412 OFFCURVE",
"237 352 CURVE",
"229 306 LINE",
"289 361 OFFCURVE",
"320 380 OFFCURVE",
"377 380 CURVE SMOOTH",
"416 380 OFFCURVE",
"444 357 OFFCURVE",
"444 294 CURVE SMOOTH",
"444 278 OFFCURVE",
"443 261 OFFCURVE",
"439 240 CURVE",
"529 240 LINE"
);
},
{
closed = 1;
nodes = (
"163 200 LINE",
"123 0 LINE",
"213 0 LINE",
"253 200 LINE"
);
},
{
closed = 1;
nodes = (
"540 60 LINE",
"520 60 OFFCURVE",
"512 82 OFFCURVE",
"512 114 CURVE SMOOTH",
"512 139 OFFCURVE",
"517 169 OFFCURVE",
"523 200 CURVE",
"433 200 LINE",
"427 164 OFFCURVE",
"424 134 OFFCURVE",
"424 108 CURVE SMOOTH",
"424 34 OFFCURVE",
"451 0 OFFCURVE",
"528 0 CURVE"
);
},
{
closed = 1;
nodes = (
"152 380 LINE",
"172 380 OFFCURVE",
"180 358 OFFCURVE",
"180 326 CURVE SMOOTH",
"180 301 OFFCURVE",
"175 271 OFFCURVE",
"169 240 CURVE",
"259 240 LINE",
"265 276 OFFCURVE",
"268 306 OFFCURVE",
"268 332 CURVE SMOOTH",
"268 406 OFFCURVE",
"241 440 OFFCURVE",
"164 440 CURVE"
);
},
{
closed = 1;
nodes = (
"163 200 LINE",
"253 200 LINE",
"259 240 LINE",
"169 240 LINE"
);
},
{
closed = 1;
nodes = (
"433 200 LINE",
"523 200 LINE",
"529 240 LINE",
"439 240 LINE"
);
},
{
closed = 1;
nodes = (
"164 440 LINE",
"128 440 OFFCURVE",
"74 412 OFFCURVE",
"50 352 CURVE",
"73 306 LINE",
"97 366 OFFCURVE",
"128 380 OFFCURVE",
"152 380 CURVE"
);
}
);
width = 738;
}
);
unicode = 305D;
},
{
glyphname = "ta-hira";
lastChange = "2018-07-16 17:34:15 +0000";
layers = (
{
anchors = (
{
name = daku;
position = "{480, 800}";
}
);
layerId = "CDF314B6-AD07-4304-BC80-988178CB760F";
paths = (
{
closed = 1;
nodes = (
"588 219 OFFCURVE",
"590 237 OFFCURVE",
"590 253 CURVE SMOOTH",
"590 353 OFFCURVE",
"534 400 OFFCURVE",
"445 400 CURVE SMOOTH",
"376 400 OFFCURVE",
"332 372 OFFCURVE",
"293 312 CURVE",
"285 266 LINE",
"345 321 OFFCURVE",
"376 340 OFFCURVE",
"433 340 CURVE SMOOTH",
"472 340 OFFCURVE",
"500 317 OFFCURVE",
"500 254 CURVE SMOOTH",
"500 238 OFFCURVE",
"499 221 OFFCURVE",
"495 200 CURVE",
"585 200 LINE"
);
},
{
closed = 1;
nodes = (
"225 200 LINE",
"185 0 LINE",
"275 0 LINE",
"315 200 LINE"
);
},
{
closed = 1;
nodes = (
"602 60 LINE",
"582 60 OFFCURVE",
"574 82 OFFCURVE",
"574 114 CURVE SMOOTH",
"574 139 OFFCURVE",
"579 169 OFFCURVE",
"585 200 CURVE",
"495 200 LINE",
"489 164 OFFCURVE",
"486 134 OFFCURVE",
"486 108 CURVE SMOOTH",
"486 34 OFFCURVE",
"513 0 OFFCURVE",
"590 0 CURVE"
);
},
{
closed = 1;
nodes = (
"265 400 LINE",
"225 200 LINE",
"315 200 LINE",
"355 400 LINE"
);
},
{
closed = 1;
nodes = (
"305 600 LINE",
"265 400 LINE",
"355 400 LINE",
"395 600 LINE"
);
},
{
closed = 1;
nodes = (
"255 185 LINE",
"285 245 OFFCURVE",
"512 626 OFFCURVE",
"529 710 CURVE SMOOTH",
"532 724 OFFCURVE",
"533 736 OFFCURVE",
"533 747 CURVE SMOOTH",
"533 782 OFFCURVE",
"517 800 OFFCURVE",
"480 800 CURVE SMOOTH",
"388 800 OFFCURVE",
"331 727 OFFCURVE",
"305 600 CURVE",
"395 600 LINE",
"410 683 OFFCURVE",
"447 740 OFFCURVE",
"468 740 CURVE SMOOTH",
"483 740 OFFCURVE",
"489 734 OFFCURVE",
"489 721 CURVE SMOOTH",
"489 718 OFFCURVE",
"489 714 OFFCURVE",
"488 710 CURVE SMOOTH",
"474 639 OFFCURVE",
"255 260 OFFCURVE",
"225 200 CURVE"
);
},
{
closed = 1;
nodes = (
"590 0 LINE",
"659 0 OFFCURVE",
"703 28 OFFCURVE",
"742 88 CURVE",
"750 134 LINE",
"690 79 OFFCURVE",
"659 60 OFFCURVE",
"602 60 CURVE"
);
},
{
closed = 1;
nodes = (
"50 100 LINE",
"119 100 OFFCURVE",
"250 235 OFFCURVE",
"275 285 CURVE",
"245 300 LINE",
"220 250 OFFCURVE",
"119 160 OFFCURVE",
"62 160 CURVE"
);
}
);
width = 800;
}
);
unicode = 305F;
},
{
glyphname = "ti-hira";
lastChange = "2018-07-16 17:34:15 +0000";
layers = (
{
anchors = (
{
name = daku;
position = "{382, 410}";
}
);
layerId = "CDF314B6-AD07-4304-BC80-988178CB760F";
paths = (
{
closed = 1;
nodes = (
"346 0 LINE",
"296 -250 OFFCURVE",
"159 -340 OFFCURVE",
"99 -340 CURVE",
"87 -400 LINE",
"177 -400 OFFCURVE",
"376 -300 OFFCURVE",
"436 0 CURVE"
);
},
{
closed = 1;
nodes = (
"99 -340 LINE",
"75 -340 OFFCURVE",
"57 -325 OFFCURVE",
"45 -313 CURVE",
"0 -358 LINE",
"24 -382 OFFCURVE",
"51 -400 OFFCURVE",
"87 -400 CURVE"
);
},
{
closed = 1;
nodes = (
"327 135 LINE",
"307 115 LINE",
"331 91 OFFCURVE",
"349 70 OFFCURVE",
"349 32 CURVE SMOOTH",
"349 22 OFFCURVE",
"348 12 OFFCURVE",
"346 0 CURVE",
"436 0 LINE",
"438 11 OFFCURVE",
"439 21 OFFCURVE",
"439 30 CURVE SMOOTH",
"439 85 OFFCURVE",
"399 103 OFFCURVE",
"347 155 CURVE"
);
},
{
closed = 1;
nodes = (
"393 350 OFFCURVE",
"404 333 OFFCURVE",
"404 304 CURVE SMOOTH",
"404 294 OFFCURVE",
"403 283 OFFCURVE",
"400 270 CURVE",
"490 270 LINE",
"492 281 OFFCURVE",
"493 292 OFFCURVE",
"493 302 CURVE SMOOTH",
"493 365 OFFCURVE",
"451 410 OFFCURVE",
"382 410 CURVE",
"370 350 LINE"
);
},
{
closed = 1;
nodes = (
"380 170 OFFCURVE",
"163 60 OFFCURVE",
"111 60 CURVE",
"99 0 LINE",
"174 0 OFFCURVE",
"465 145 OFFCURVE",
"490 270 CURVE",
"400 270 LINE"
);
},
{
closed = 1;
nodes = (
"347 155 LINE",
"323 179 OFFCURVE",
"305 200 OFFCURVE",
"305 238 CURVE SMOOTH",
"305 248 OFFCURVE",
"306 258 OFFCURVE",
"308 270 CURVE",
"218 270 LINE",
"216 259 OFFCURVE",
"215 249 OFFCURVE",
"215 240 CURVE SMOOTH",
"215 185 OFFCURVE",
"255 167 OFFCURVE",
"307 115 CURVE"
);
},
{
closed = 1;
nodes = (
"382 410 LINE",
"302 410 OFFCURVE",
"234 350 OFFCURVE",
"218 270 CURVE",
"308 270 LINE",
"320 320 OFFCURVE",
"340 350 OFFCURVE",
"370 350 CURVE"
);
}
);
width = 543;
}
);
unicode = 3061;
},
{
glyphname = "tu-hira";
lastChange = "2018-07-16 17:34:15 +0000";
layers = (
{
anchors = (
{
name = daku;
position = "{247, 220}";
}
);
layerId = "CDF314B6-AD07-4304-BC80-988178CB760F";
paths = (
{
closed = 1;
nodes = (
"51 -102 OFFCURVE",
"50 -109 OFFCURVE",
"50 -115 CURVE SMOOTH",
"50 -183 OFFCURVE",
"122 -220 OFFCURVE",
"195 -220 CURVE",
"207 -160 LINE",
"156 -160 OFFCURVE",
"141 -135 OFFCURVE",
"141 -109 CURVE SMOOTH",
"141 -104 OFFCURVE",
"141 -100 OFFCURVE",
"142 -95 CURVE",
"52 -95 LINE"
);
},
{
closed = 1;
nodes = (
"195 -220 LINE",
"310 -220 OFFCURVE",
"406 -130 OFFCURVE",
"432 0 CURVE",
"342 0 LINE",
"322 -100 OFFCURVE",
"263 -160 OFFCURVE",
"207 -160 CURVE"
);
},
{
closed = 1;
nodes = (
"342 0 LINE",
"354 60 LINE",
"275 60 LINE",
"263 0 LINE"
);
},
{
closed = 1;
nodes = (
"275 60 LINE",
"155 60 OFFCURVE",
"68 -15 OFFCURVE",
"52 -95 CURVE",
"142 -95 LINE",
"152 -45 OFFCURVE",
"203 0 OFFCURVE",
"263 0 CURVE"
);
},
{
closed = 1;
nodes = (
"235 160 LINE",
"287 160 OFFCURVE",
"346 122 OFFCURVE",
"346 40 CURVE SMOOTH",
"346 28 OFFCURVE",
"345 14 OFFCURVE",
"342 0 CURVE",
"432 0 LINE",
"435 17 OFFCURVE",
"437 33 OFFCURVE",
"437 48 CURVE SMOOTH",
"437 172 OFFCURVE",
"327 220 OFFCURVE",
"247 220 CURVE"
);
},
{
closed = 1;
nodes = (
"247 220 LINE",
"178 220 OFFCURVE",
"115 192 OFFCURVE",
"75 132 CURVE",
"87 86 LINE",
"123 141 OFFCURVE",
"178 160 OFFCURVE",
"235 160 CURVE"
);
}
);
width = 487;
}
);
unicode = 3064;
},
{
glyphname = "tusmall-hira";
lastChange = "2018-07-16 07:43:23 +0000";
layers = (
{
layerId = "CDF314B6-AD07-4304-BC80-988178CB760F";
paths = (
{
closed = 1;
nodes = (
"62 60 LINE",
"50 0 LINE",
"328 0 LINE",
"340 60 LINE"
);
},
{
closed = 1;
nodes = (
"257 280 OFFCURVE",
"291 314 OFFCURVE",
"291 355 CURVE SMOOTH",
"291 396 OFFCURVE",
"257 430 OFFCURVE",
"216 430 CURVE SMOOTH",
"175 430 OFFCURVE",
"141 396 OFFCURVE",
"141 355 CURVE SMOOTH",
"141 314 OFFCURVE",
"175 280 OFFCURVE",
"216 280 CURVE SMOOTH"
);
},
{
closed = 1;
nodes = (
"243 238 OFFCURVE",
"291 310 OFFCURVE",
"291 355 CURVE",
"216 355 LINE",
"201 280 OFFCURVE",
"189 265 OFFCURVE",
"141 205 CURVE",
"195 178 LINE"
);
}
);
width = 390;
}
);
unicode = 3063;
},
{
glyphname = "te-hira";
lastChange = "2018-07-16 17:34:15 +0000";
layers = (
{
anchors = (
{
name = daku;
position = "{243, 408}";
}
);
layerId = "CDF314B6-AD07-4304-BC80-988178CB760F";
paths = (
{
closed = 1;
nodes = (
"50 0 LINE",
"86 0 OFFCURVE",
"116 8 OFFCURVE",
"156 48 CURVE",
"126 108 LINE",
"96 78 OFFCURVE",
"80 60 OFFCURVE",
"62 60 CURVE"
);
},
{
closed = 1;
nodes = (
"426 408 LINE",
"366 348 OFFCURVE",
"258 238 OFFCURVE",
"243 163 CURVE",
"333 163 LINE",
"348 238 OFFCURVE",
"416 308 OFFCURVE",
"456 348 CURVE"
);
},
{
closed = 1;
nodes = (
"441 60 LINE",
"381 60 OFFCURVE",
"331 82 OFFCURVE",
"331 139 CURVE SMOOTH",
"331 147 OFFCURVE",
"331 155 OFFCURVE",
"333 163 CURVE",
"243 163 LINE",
"241 152 OFFCURVE",
"240 141 OFFCURVE",
"240 131 CURVE SMOOTH",
"240 35 OFFCURVE",
"338 0 OFFCURVE",
"429 0 CURVE"
);
},
{
closed = 1;
nodes = (
"484 135 OFFCURVE",
"506 157 OFFCURVE",
"506 185 CURVE SMOOTH",
"506 213 OFFCURVE",
"484 235 OFFCURVE",
"456 235 CURVE SMOOTH",
"428 235 OFFCURVE",
"406 213 OFFCURVE",
"406 185 CURVE SMOOTH",
"406 157 OFFCURVE",
"428 135 OFFCURVE",
"456 135 CURVE SMOOTH"
);
},
{
closed = 1;
nodes = (
"156 48 LINE",
"456 348 LINE",
"426 408 LINE",
"126 108 LINE"
);
},
{
closed = 1;
nodes = (
"456 348 LINE",
"488 380 LINE",
"458 440 LINE",
"426 408 LINE"
);
},
{
closed = 1;
nodes = (
"429 0 LINE",
"498 0 OFFCURVE",
"542 28 OFFCURVE",
"581 88 CURVE",
"589 134 LINE",
"529 79 OFFCURVE",
"498 60 OFFCURVE",
"441 60 CURVE"
);
}
);
width = 639;
}
);
unicode = 3066;
},
{
glyphname = "to-hira";
lastChange = "2018-07-16 17:34:15 +0000";
layers = (
{
anchors = (
{
name = daku;
position = "{243, 408}";
}
);
layerId = "CDF314B6-AD07-4304-BC80-988178CB760F";
paths = (
{
closed = 1;
nodes = (
"50 0 LINE",
"86 0 OFFCURVE",
"116 8 OFFCURVE",
"156 48 CURVE",
"126 108 LINE",
"96 78 OFFCURVE",
"80 60 OFFCURVE",
"62 60 CURVE"
);
},
{
closed = 1;
nodes = (
"426 408 LINE",
"366 348 OFFCURVE",
"258 238 OFFCURVE",
"243 163 CURVE",
"333 163 LINE",
"348 238 OFFCURVE",
"416 308 OFFCURVE",
"456 348 CURVE"
);
},
{
closed = 1;
nodes = (
"441 60 LINE",
"381 60 OFFCURVE",
"331 82 OFFCURVE",
"331 139 CURVE SMOOTH",
"331 147 OFFCURVE",
"331 155 OFFCURVE",
"333 163 CURVE",
"243 163 LINE",
"241 152 OFFCURVE",
"240 141 OFFCURVE",
"240 131 CURVE SMOOTH",
"240 35 OFFCURVE",
"338 0 OFFCURVE",
"429 0 CURVE"
);
},
{
closed = 1;
nodes = (
"156 48 LINE",
"456 348 LINE",
"426 408 LINE",
"126 108 LINE"
);
},
{
closed = 1;
nodes = (
"456 348 LINE",
"488 380 LINE",
"458 440 LINE",
"426 408 LINE"
);
},
{
closed = 1;
nodes = (
"429 0 LINE",
"498 0 OFFCURVE",
"542 28 OFFCURVE",
"581 88 CURVE",
"589 134 LINE",
"529 79 OFFCURVE",
"498 60 OFFCURVE",
"441 60 CURVE"
);
}
);
width = 639;
}
);
unicode = 3068;
},
{
glyphname = "na-hira";
lastChange = "2018-07-16 17:34:15 +0000";
layers = (
{
layerId = "CDF314B6-AD07-4304-BC80-988178CB760F";
paths = (
{
closed = 1;
nodes = (
"50 200 LINE",
"170 200 OFFCURVE",
"252 297 OFFCURVE",
"268 377 CURVE",
"245 400 LINE",
"229 320 OFFCURVE",
"119 260 OFFCURVE",
"62 260 CURVE"
);
},
{
closed = 1;
nodes = (
"345 0 LINE",
"414 0 OFFCURVE",
"458 28 OFFCURVE",
"497 88 CURVE",
"505 134 LINE",
"445 79 OFFCURVE",
"414 60 OFFCURVE",
"357 60 CURVE"
);
},
{
closed = 1;
nodes = (
"245 400 LINE",
"205 200 LINE",
"295 200 LINE",
"335 400 LINE"
);
},
{
closed = 1;
nodes = (
"357 60 LINE",
"318 60 OFFCURVE",
"290 83 OFFCURVE",
"290 146 CURVE SMOOTH",
"290 162 OFFCURVE",
"291 179 OFFCURVE",
"295 200 CURVE",
"205 200 LINE",
"202 181 OFFCURVE",
"200 163 OFFCURVE",
"200 147 CURVE SMOOTH",
"200 47 OFFCURVE",
"256 0 OFFCURVE",
"345 0 CURVE"
);
}
);
width = 555;
}
);
unicode = 306A;
},
{
glyphname = "ni-hira";
lastChange = "2018-07-16 17:34:15 +0000";
layers = (
{
layerId = "CDF314B6-AD07-4304-BC80-988178CB760F";
paths = (
{
closed = 1;
nodes = (
"107 160 LINE",
"95 100 LINE",
"328 160 LINE",
"340 220 LINE"
);
},
{
closed = 1;
nodes = (
"62 60 LINE",
"50 0 LINE",
"328 0 LINE",
"340 60 LINE"
);
},
{
closed = 1;
nodes = (
"340 220 LINE",
"295 220 OFFCURVE",
"252 261 OFFCURVE",
"252 306 CURVE SMOOTH",
"252 310 OFFCURVE",
"252 314 OFFCURVE",
"253 319 CURVE",
"163 319 LINE",
"161 309 OFFCURVE",
"160 299 OFFCURVE",
"160 290 CURVE SMOOTH",
"160 208 OFFCURVE",
"236 160 OFFCURVE",
"328 160 CURVE"
);
},
{
closed = 1;
nodes = (
"244 420 OFFCURVE",
"176 376 OFFCURVE",
"163 319 CURVE",
"253 319 LINE",
"263 369 OFFCURVE",
"295 394 OFFCURVE",
"340 424 CURVE",
"304 460 LINE"
);
}
);
width = 390;
}
);
unicode = 306B;
},
{
glyphname = "nu-hira";
lastChange = "2018-07-16 17:34:15 +0000";
layers = (
{
layerId = "CDF314B6-AD07-4304-BC80-988178CB760F";
paths = (
{
closed = 1;
nodes = (
"104 212 OFFCURVE",
"103 196 OFFCURVE",
"103 181 CURVE SMOOTH",
"103 85 OFFCURVE",
"164 60 OFFCURVE",
"253 60 CURVE SMOOTH",
"322 60 OFFCURVE",
"366 88 OFFCURVE",
"405 148 CURVE",
"413 194 LINE",
"353 139 OFFCURVE",
"322 120 OFFCURVE",
"265 120 CURVE SMOOTH",
"225 120 OFFCURVE",
"192 123 OFFCURVE",
"192 183 CURVE SMOOTH",
"192 196 OFFCURVE",
"194 212 OFFCURVE",
"197 230 CURVE",
"107 230 LINE"
);
},
{
closed = 1;
nodes = (
"331 0 LINE",
"297 -170 OFFCURVE",
"237 -340 OFFCURVE",
"174 -340 CURVE",
"162 -400 LINE",
"299 -400 OFFCURVE",
"365 -279 OFFCURVE",
"421 0 CURVE"
);
},
{
closed = 1;
nodes = (
"174 -340 LINE",
"150 -340 OFFCURVE",
"141 -327 OFFCURVE",
"141 -300 CURVE SMOOTH",
"141 -287 OFFCURVE",
"143 -270 OFFCURVE",
"147 -250 CURVE",
"57 -250 LINE",
"53 -272 OFFCURVE",
"50 -291 OFFCURVE",
"50 -309 CURVE SMOOTH",
"50 -370 OFFCURVE",
"81 -400 OFFCURVE",
"162 -400 CURVE"
);
},
{
closed = 1;
nodes = (
"493 60 LINE",
"359 62 OFFCURVE",
"97 -50 OFFCURVE",
"57 -250 CURVE",
"147 -250 LINE",
"172 -125 OFFCURVE",
"331 0 OFFCURVE",
"481 0 CURVE"
);
},
{
closed = 1;
nodes = (
"464 219 OFFCURVE",
"466 237 OFFCURVE",
"466 253 CURVE SMOOTH",
"466 353 OFFCURVE",
"410 400 OFFCURVE",
"321 400 CURVE SMOOTH",
"225 400 OFFCURVE",
"131 350 OFFCURVE",
"107 230 CURVE",
"197 230 LINE",
"209 290 OFFCURVE",
"252 340 OFFCURVE",
"309 340 CURVE SMOOTH",
"348 340 OFFCURVE",
"376 317 OFFCURVE",
"376 254 CURVE SMOOTH",
"376 238 OFFCURVE",
"375 221 OFFCURVE",
"371 200 CURVE",
"461 200 LINE"
);
},
{
closed = 1;
nodes = (
"361 150 LINE",
"348 85 LINE",
"331 0 LINE",
"421 0 LINE",
"461 200 LINE",
"371 200 LINE"
);
}
);
width = 543;
}
);
unicode = 306C;
},
{
glyphname = "ne-hira";
lastChange = "2018-07-16 17:34:15 +0000";
layers = (
{
layerId = "CDF314B6-AD07-4304-BC80-988178CB760F";
paths = (
{
closed = 1;
nodes = (
"464 200 LINE",
"504 400 LINE",
"414 400 LINE",
"374 200 LINE"
);
},
{
closed = 1;
nodes = (
"334 0 LINE",
"300 -170 OFFCURVE",
"240 -340 OFFCURVE",
"177 -340 CURVE",
"165 -400 LINE",
"302 -400 OFFCURVE",
"368 -279 OFFCURVE",
"424 0 CURVE"
);
},
{
closed = 1;
nodes = (
"177 -340 LINE",
"153 -340 OFFCURVE",
"144 -327 OFFCURVE",
"144 -300 CURVE SMOOTH",
"144 -287 OFFCURVE",
"146 -270 OFFCURVE",
"150 -250 CURVE",
"60 -250 LINE",
"56 -272 OFFCURVE",
"53 -291 OFFCURVE",
"53 -309 CURVE SMOOTH",
"53 -370 OFFCURVE",
"84 -400 OFFCURVE",
"165 -400 CURVE"
);
},
{
closed = 1;
nodes = (
"424 0 LINE",
"464 200 LINE",
"374 200 LINE",
"334 0 LINE"
);
},
{
closed = 1;
nodes = (
"496 60 LINE",
"362 62 OFFCURVE",
"100 -50 OFFCURVE",
"60 -250 CURVE",
"150 -250 LINE",
"175 -125 OFFCURVE",
"334 0 OFFCURVE",
"484 0 CURVE"
);
},
{
closed = 1;
nodes = (
"50 0 LINE",
"210 0 OFFCURVE",
"384 205 OFFCURVE",
"424 285 CURVE",
"394 300 LINE",
"354 220 OFFCURVE",
"180 60 OFFCURVE",
"62 60 CURVE"
);
}
);
width = 554;
}
);
unicode = 306D;
},
{
glyphname = "no-hira";
lastChange = "2018-07-16 17:34:15 +0000";
layers = (
{
layerId = "CDF314B6-AD07-4304-BC80-988178CB760F";
paths = (
{
closed = 1;
nodes = (
"229 440 LINE",
"160 440 OFFCURVE",
"81 412 OFFCURVE",
"57 352 CURVE",
"80 306 LINE",
"100 356 OFFCURVE",
"160 380 OFFCURVE",
"217 380 CURVE"
);
},
{
closed = 1;
nodes = (
"142 125 LINE",
"148 155 OFFCURVE",
"176 184 OFFCURVE",
"206 190 CURVE",
"218 250 LINE",
"178 242 OFFCURVE",
"68 205 OFFCURVE",
"52 125 CURVE"
);
},
{
closed = 1;
nodes = (
"373 322 OFFCURVE",
"374 329 OFFCURVE",
"374 335 CURVE SMOOTH",
"374 403 OFFCURVE",
"302 440 OFFCURVE",
"229 440 CURVE",
"217 380 LINE",
"268 380 OFFCURVE",
"283 355 OFFCURVE",
"283 329 CURVE SMOOTH",
"283 324 OFFCURVE",
"283 320 OFFCURVE",
"282 315 CURVE",
"372 315 LINE"
);
},
{
closed = 1;
nodes = (
"206 190 LINE",
"246 198 OFFCURVE",
"353 215 OFFCURVE",
"372 315 CURVE",
"282 315 LINE",
"276 285 OFFCURVE",
"248 256 OFFCURVE",
"218 250 CURVE"
);
},
{
closed = 0;
nodes = (
"212 220 LINE"
);
},
{
closed = 1;
nodes = (
"51 118 OFFCURVE",
"50 111 OFFCURVE",
"50 105 CURVE SMOOTH",
"50 37 OFFCURVE",
"122 0 OFFCURVE",
"195 0 CURVE",
"207 60 LINE",
"156 60 OFFCURVE",
"141 85 OFFCURVE",
"141 111 CURVE SMOOTH",
"141 116 OFFCURVE",
"141 120 OFFCURVE",
"142 125 CURVE",
"52 125 LINE"
);
},
{
closed = 1;
nodes = (
"195 0 LINE",
"264 0 OFFCURVE",
"308 28 OFFCURVE",
"347 88 CURVE",
"355 134 LINE",
"295 79 OFFCURVE",
"264 60 OFFCURVE",
"207 60 CURVE"
);
}
);
width = 424;
}
);
unicode = 306E;
},
{
glyphname = "ha-hira";
lastChange = "2018-07-16 17:34:15 +0000";
layers = (
{
anchors = (
{
name = daku;
position = "{297, 400}";
}
);
layerId = "CDF314B6-AD07-4304-BC80-988178CB760F";
paths = (
{
closed = 1;
nodes = (
"331 0 LINE",
"297 -170 OFFCURVE",
"237 -340 OFFCURVE",
"174 -340 CURVE",
"162 -400 LINE",
"299 -400 OFFCURVE",
"365 -279 OFFCURVE",
"421 0 CURVE"
);
},
{
closed = 1;
nodes = (
"513 220 LINE",
"393 160 OFFCURVE",
"97 -50 OFFCURVE",
"57 -250 CURVE",
"147 -250 LINE",
"179 -90 OFFCURVE",
"423 100 OFFCURVE",
"543 160 CURVE"
);
},
{
closed = 1;
nodes = (
"174 -340 LINE",
"150 -340 OFFCURVE",
"141 -327 OFFCURVE",
"141 -300 CURVE SMOOTH",
"141 -287 OFFCURVE",
"143 -270 OFFCURVE",
"147 -250 CURVE",
"57 -250 LINE",
"53 -272 OFFCURVE",
"50 -291 OFFCURVE",
"50 -309 CURVE SMOOTH",
"50 -370 OFFCURVE",
"81 -400 OFFCURVE",
"162 -400 CURVE"
);
},
{
closed = 1;
nodes = (
"523 60 LINE",
"473 60 OFFCURVE",
"442 70 OFFCURVE",
"432 120 CURVE",
"372 60 LINE",
"401 20 OFFCURVE",
"446 0 OFFCURVE",
"511 0 CURVE"
);
},
{
closed = 1;
nodes = (
"421 0 LINE",
"461 200 LINE",
"371 200 LINE",
"331 0 LINE"
);
},
{
closed = 1;
nodes = (
"461 200 LINE",
"501 400 LINE",
"411 400 LINE",
"371 200 LINE"
);
},
{
closed = 1;
nodes = (
"511 0 LINE",
"580 0 OFFCURVE",
"624 28 OFFCURVE",
"663 88 CURVE",
"671 134 LINE",
"611 79 OFFCURVE",
"580 60 OFFCURVE",
"523 60 CURVE"
);
}
);
width = 721;
}
);
unicode = 306F;
},
{
glyphname = "hi-hira";
lastChange = "2018-07-16 17:34:15 +0000";
layers = (
{
anchors = (
{
name = daku;
position = "{355, 400}";
}
);
layerId = "CDF314B6-AD07-4304-BC80-988178CB760F";
paths = (
{
closed = 1;
nodes = (
"364 -5 OFFCURVE",
"317 -140 OFFCURVE",
"247 -140 CURVE SMOOTH",
"198 -140 OFFCURVE",
"185 -110 OFFCURVE",
"185 -50 CURVE",
"110 -50 LINE",
"110 -110 OFFCURVE",
"115 -200 OFFCURVE",
"235 -200 CURVE SMOOTH",
"355 -200 OFFCURVE",
"447 -40 OFFCURVE",
"475 100 CURVE",
"385 100 LINE"
);
},
{
closed = 1;
nodes = (
"50 0 LINE",
"80 0 OFFCURVE",
"110 0 OFFCURVE",
"110 -50 CURVE",
"185 -50 LINE",
"185 51 OFFCURVE",
"103 60 OFFCURVE",
"62 60 CURVE"
);
},
{
closed = 1;
nodes = (
"227 210 OFFCURVE",
"273 340 OFFCURVE",
"343 340 CURVE SMOOTH",
"385 340 OFFCURVE",
"398 292 OFFCURVE",
"398 230 CURVE SMOOTH",
"398 189 OFFCURVE",
"392 142 OFFCURVE",
"385 100 CURVE",
"475 100 LINE",
"480 130 OFFCURVE",
"483 162 OFFCURVE",
"483 192 CURVE SMOOTH",
"483 301 OFFCURVE",
"449 400 OFFCURVE",
"355 400 CURVE SMOOTH",
"235 400 OFFCURVE",
"145 250 OFFCURVE",
"125 150 CURVE",
"215 150 LINE"
);
},
{
closed = 1;
nodes = (
"467 60 LINE",
"456 60 OFFCURVE",
"436 59 OFFCURVE",
"413 59 CURVE SMOOTH",
"335 59 OFFCURVE",
"214 67 OFFCURVE",
"214 138 CURVE SMOOTH",
"214 142 OFFCURVE",
"214 146 OFFCURVE",
"215 150 CURVE",
"125 150 LINE",
"124 144 OFFCURVE",
"124 139 OFFCURVE",
"124 133 CURVE SMOOTH",
"124 12 OFFCURVE",
"356 0 OFFCURVE",
"455 0 CURVE"
);
}
);
width = 533;
}
);
unicode = 3072;
},
{
glyphname = "hu-hira";
lastChange = "2018-07-16 17:34:15 +0000";
layers = (
{
anchors = (
{
name = daku;
position = "{297, 400}";
}
);
layerId = "CDF314B6-AD07-4304-BC80-988178CB760F";
paths = (
{
closed = 1;
nodes = (
"331 0 LINE",
"297 -170 OFFCURVE",
"237 -340 OFFCURVE",
"174 -340 CURVE",
"162 -400 LINE",
"299 -400 OFFCURVE",
"365 -279 OFFCURVE",
"421 0 CURVE"
);
},
{
closed = 1;
nodes = (
"174 -340 LINE",
"150 -340 OFFCURVE",
"141 -327 OFFCURVE",
"141 -300 CURVE SMOOTH",
"141 -287 OFFCURVE",
"143 -270 OFFCURVE",
"147 -250 CURVE",
"57 -250 LINE",
"53 -272 OFFCURVE",
"50 -291 OFFCURVE",
"50 -309 CURVE SMOOTH",
"50 -370 OFFCURVE",
"81 -400 OFFCURVE",
"162 -400 CURVE"
);
},
{
closed = 1;
nodes = (
"393 12 LINE",
"69 -204 LINE",
"105 -240 LINE",
"429 -24 LINE"
);
},
{
closed = 1;
nodes = (
"493 60 LINE",
"457 60 OFFCURVE",
"429 36 OFFCURVE",
"393 12 CURVE",
"429 -24 LINE",
"447 -12 OFFCURVE",
"463 0 OFFCURVE",
"481 0 CURVE"
);
},
{
closed = 1;
nodes = (
"147 -250 LINE",
"187 -50 LINE",
"97 -50 LINE",
"57 -250 LINE"
);
},
{
closed = 1;
nodes = (
"421 0 LINE",
"461 200 LINE",
"371 200 LINE",
"331 0 LINE"
);
},
{
closed = 1;
nodes = (
"461 200 LINE",
"501 400 LINE",
"411 400 LINE",
"371 200 LINE"
);
}
);
width = 551;
}
);
unicode = 3075;
},
{
glyphname = "he-hira";
lastChange = "2018-07-16 17:34:15 +0000";
layers = (
{
anchors = (
{
name = daku;
position = "{490, 800}";
}
);
layerId = "CDF314B6-AD07-4304-BC80-988178CB760F";
paths = (
{
closed = 1;
nodes = (
"275 400 LINE",
"235 200 LINE",
"325 200 LINE",
"365 400 LINE"
);
},
{
closed = 1;
nodes = (
"315 600 LINE",
"275 400 LINE",
"365 400 LINE",
"405 600 LINE"
);
},
{
closed = 1;
nodes = (
"265 185 LINE",
"295 245 OFFCURVE",
"522 626 OFFCURVE",
"539 710 CURVE SMOOTH",
"542 724 OFFCURVE",
"543 736 OFFCURVE",
"543 747 CURVE SMOOTH",
"543 782 OFFCURVE",
"527 800 OFFCURVE",
"490 800 CURVE SMOOTH",
"398 800 OFFCURVE",
"341 727 OFFCURVE",
"315 600 CURVE",
"405 600 LINE",
"420 683 OFFCURVE",
"457 740 OFFCURVE",
"478 740 CURVE SMOOTH",
"493 740 OFFCURVE",
"499 734 OFFCURVE",
"499 721 CURVE SMOOTH",
"499 718 OFFCURVE",
"499 714 OFFCURVE",
"498 710 CURVE SMOOTH",
"484 639 OFFCURVE",
"265 260 OFFCURVE",
"235 200 CURVE"
);
},
{
closed = 1;
nodes = (
"50 0 LINE",
"110 0 OFFCURVE",
"260 235 OFFCURVE",
"285 285 CURVE",
"255 300 LINE",
"230 250 OFFCURVE",
"110 60 OFFCURVE",
"62 60 CURVE"
);
},
{
closed = 1;
nodes = (
"387 60 LINE",
"348 60 OFFCURVE",
"320 83 OFFCURVE",
"320 146 CURVE SMOOTH",
"320 162 OFFCURVE",
"321 179 OFFCURVE",
"325 200 CURVE",
"235 200 LINE",
"232 181 OFFCURVE",
"230 163 OFFCURVE",
"230 147 CURVE SMOOTH",
"230 47 OFFCURVE",
"286 0 OFFCURVE",
"375 0 CURVE"
);
},
{
closed = 1;
nodes = (
"375 0 LINE",
"444 0 OFFCURVE",
"488 28 OFFCURVE",
"527 88 CURVE",
"535 134 LINE",
"475 79 OFFCURVE",
"444 60 OFFCURVE",
"387 60 CURVE"
);
}
);
width = 593;
}
);
unicode = 3078;
},
{
glyphname = "ho-hira";
lastChange = "2018-07-16 17:34:15 +0000";
layers = (
{
anchors = (
{
name = daku;
position = "{364, 400}";
}
);
layerId = "CDF314B6-AD07-4304-BC80-988178CB760F";
paths = (
{
closed = 1;
nodes = (
"544 0 LINE",
"510 -170 OFFCURVE",
"450 -340 OFFCURVE",
"387 -340 CURVE",
"375 -400 LINE",
"512 -400 OFFCURVE",
"578 -279 OFFCURVE",
"634 0 CURVE"
);
},
{
closed = 1;
nodes = (
"387 -340 LINE",
"363 -340 OFFCURVE",
"354 -327 OFFCURVE",
"354 -300 CURVE SMOOTH",
"354 -287 OFFCURVE",
"356 -270 OFFCURVE",
"360 -250 CURVE",
"270 -250 LINE",
"266 -272 OFFCURVE",
"263 -291 OFFCURVE",
"263 -309 CURVE SMOOTH",
"263 -370 OFFCURVE",
"294 -400 OFFCURVE",
"375 -400 CURVE"
);
},
{
closed = 1;
nodes = (
"634 0 LINE",
"674 200 LINE",
"584 200 LINE",
"544 0 LINE"
);
},
{
closed = 1;
nodes = (
"706 60 LINE",
"572 62 OFFCURVE",
"310 -50 OFFCURVE",
"270 -250 CURVE",
"360 -250 LINE",
"385 -125 OFFCURVE",
"544 0 OFFCURVE",
"694 0 CURVE"
);
},
{
closed = 1;
nodes = (
"144 200 LINE",
"104 0 LINE",
"194 0 LINE",
"234 200 LINE"
);
},
{
closed = 1;
nodes = (
"127 340 LINE",
"147 340 OFFCURVE",
"155 318 OFFCURVE",
"155 286 CURVE SMOOTH",
"155 261 OFFCURVE",
"150 231 OFFCURVE",
"144 200 CURVE",
"234 200 LINE",
"240 236 OFFCURVE",
"243 266 OFFCURVE",
"243 292 CURVE SMOOTH",
"243 366 OFFCURVE",
"216 400 OFFCURVE",
"139 400 CURVE"
);
},
{
closed = 1;
nodes = (
"139 400 LINE",
"103 400 OFFCURVE",
"74 372 OFFCURVE",
"50 312 CURVE",
"73 266 LINE",
"97 326 OFFCURVE",
"109 340 OFFCURVE",
"127 340 CURVE"
);
},
{
closed = 1;
nodes = (
"414 0 LINE",
"454 200 LINE",
"364 200 LINE",
"324 0 LINE"
);
},
{
closed = 1;
nodes = (
"457 220 OFFCURVE",
"459 238 OFFCURVE",
"459 254 CURVE SMOOTH",
"459 354 OFFCURVE",
"405 400 OFFCURVE",
"331 400 CURVE SMOOTH",
"287 400 OFFCURVE",
"256 374 OFFCURVE",
"217 314 CURVE",
"209 268 LINE",
"269 323 OFFCURVE",
"280 340 OFFCURVE",
"319 340 CURVE SMOOTH",
"354 340 OFFCURVE",
"371 321 OFFCURVE",
"371 271 CURVE SMOOTH",
"371 252 OFFCURVE",
"369 229 OFFCURVE",
"364 200 CURVE",
"454 200 LINE"
);
},
{
closed = 1;
nodes = (
"677 219 OFFCURVE",
"679 237 OFFCURVE",
"679 253 CURVE SMOOTH",
"679 353 OFFCURVE",
"623 400 OFFCURVE",
"534 400 CURVE SMOOTH",
"494 400 OFFCURVE",
"455 373 OFFCURVE",
"416 313 CURVE",
"408 267 LINE",
"468 322 OFFCURVE",
"482 340 OFFCURVE",
"522 340 CURVE SMOOTH",
"561 340 OFFCURVE",
"589 317 OFFCURVE",
"589 254 CURVE SMOOTH",
"589 238 OFFCURVE",
"588 221 OFFCURVE",
"584 200 CURVE",
"674 200 LINE"
);
}
);
width = 756;
}
);
unicode = 307B;
},
{
glyphname = "ma-hira";
lastChange = "2018-07-16 17:34:15 +0000";
layers = (
{
layerId = "CDF314B6-AD07-4304-BC80-988178CB760F";
paths = (
{
closed = 1;
nodes = (
"110 241 OFFCURVE",
"108 223 OFFCURVE",
"108 207 CURVE SMOOTH",
"108 107 OFFCURVE",
"164 60 OFFCURVE",
"253 60 CURVE SMOOTH",
"322 60 OFFCURVE",
"366 88 OFFCURVE",
"405 148 CURVE",
"413 194 LINE",
"353 139 OFFCURVE",
"322 120 OFFCURVE",
"265 120 CURVE SMOOTH",
"226 120 OFFCURVE",
"198 143 OFFCURVE",
"198 206 CURVE SMOOTH",
"198 222 OFFCURVE",
"199 239 OFFCURVE",
"203 260 CURVE",
"113 260 LINE"
);
},
{
closed = 1;
nodes = (
"461 200 LINE",
"501 400 LINE",
"411 400 LINE",
"371 200 LINE"
);
},
{
closed = 1;
nodes = (
"331 0 LINE",
"297 -170 OFFCURVE",
"237 -340 OFFCURVE",
"174 -340 CURVE",
"162 -400 LINE",
"299 -400 OFFCURVE",
"365 -279 OFFCURVE",
"421 0 CURVE"
);
},
{
closed = 1;
nodes = (
"174 -340 LINE",
"150 -340 OFFCURVE",
"141 -327 OFFCURVE",
"141 -300 CURVE SMOOTH",
"141 -287 OFFCURVE",
"143 -270 OFFCURVE",
"147 -250 CURVE",
"57 -250 LINE",
"53 -272 OFFCURVE",
"50 -291 OFFCURVE",
"50 -309 CURVE SMOOTH",
"50 -370 OFFCURVE",
"81 -400 OFFCURVE",
"162 -400 CURVE"
);
},
{
closed = 1;
nodes = (
"421 0 LINE",
"461 200 LINE",
"371 200 LINE",
"331 0 LINE"
);
},
{
closed = 1;
nodes = (
"493 60 LINE",
"359 62 OFFCURVE",
"97 -50 OFFCURVE",
"57 -250 CURVE",
"147 -250 LINE",
"172 -125 OFFCURVE",
"331 0 OFFCURVE",
"481 0 CURVE"
);
},
{
closed = 1;
nodes = (
"203 260 LINE",
"231 400 LINE",
"141 400 LINE",
"113 260 LINE"
);
}
);
width = 551;
}
);
unicode = 307E;
},
{
glyphname = "mi-hira";
lastChange = "2018-07-04 12:05:10 +0000";
layers = (
{
layerId = "CDF314B6-AD07-4304-BC80-988178CB760F";
paths = (
{
closed = 1;
nodes = (
"149 48 LINE",
"392 210 LINE",
"356 246 LINE",
"113 84 LINE"
);
},
{
closed = 1;
nodes = (
"311 30 LINE",
"329 12 LINE",
"572 174 LINE",
"536 210 LINE",
"293 48 LINE"
);
},
{
closed = 1;
nodes = (
"266 -186 LINE",
"509 -24 LINE",
"473 12 LINE",
"230 -150 LINE"
);
},
{
closed = 1;
nodes = (
"68 -132 LINE",
"86 -150 LINE",
"329 12 LINE",
"293 48 LINE",
"50 -114 LINE"
);
},
{
closed = 1;
nodes = (
"399 70 LINE",
"392 210 LINE",
"302 210 LINE",
"311 30 LINE"
);
},
{
closed = 1;
nodes = (
"223 -10 LINE",
"230 -150 LINE",
"320 -150 LINE",
"311 30 LINE"
);
},
{
closed = 1;
nodes = (
"302 -132 LINE",
"320 -150 LINE",
"563 12 LINE",
"527 48 LINE",
"284 -114 LINE"
);
}
);
width = 622;
}
);
unicode = 307F;
},
{
glyphname = "mu-hira";
lastChange = "2018-07-16 17:34:15 +0000";
layers = (
{
layerId = "CDF314B6-AD07-4304-BC80-988178CB760F";
paths = (
{
closed = 1;
nodes = (
"436 350 OFFCURVE",
"447 333 OFFCURVE",
"447 304 CURVE SMOOTH",
"447 294 OFFCURVE",
"446 283 OFFCURVE",
"443 270 CURVE",
"533 270 LINE",
"535 281 OFFCURVE",
"536 292 OFFCURVE",
"536 302 CURVE SMOOTH",
"536 365 OFFCURVE",
"494 410 OFFCURVE",
"425 410 CURVE",
"413 350 LINE"
);
},
{
closed = 1;
nodes = (
"423 170 OFFCURVE",
"114 60 OFFCURVE",
"62 60 CURVE",
"50 0 LINE",
"125 0 OFFCURVE",
"508 145 OFFCURVE",
"533 270 CURVE",
"443 270 LINE"
);
},
{
closed = 1;
nodes = (
"425 410 LINE",
"345 410 OFFCURVE",
"277 350 OFFCURVE",
"261 270 CURVE",
"351 270 LINE",
"363 320 OFFCURVE",
"383 350 OFFCURVE",
"413 350 CURVE"
);
},
{
closed = 1;
nodes = (
"187 -200 OFFCURVE",
"176 -180 OFFCURVE",
"176 -157 CURVE SMOOTH",
"176 -152 OFFCURVE",
"177 -146 OFFCURVE",
"178 -140 CURVE",
"88 -140 LINE",
"86 -150 OFFCURVE",
"85 -160 OFFCURVE",
"85 -169 CURVE SMOOTH",
"85 -230 OFFCURVE",
"129 -260 OFFCURVE",
"199 -260 CURVE",
"211 -200 LINE"
);
},
{
closed = 1;
nodes = (
"199 -260 LINE",
"279 -260 OFFCURVE",
"342 -220 OFFCURVE",
"358 -140 CURVE",
"268 -140 LINE",
"262 -170 OFFCURVE",
"241 -200 OFFCURVE",
"211 -200 CURVE"
);
},
{
closed = 1;
nodes = (
"358 -140 LINE",
"387 0 LINE",
"297 0 LINE",
"268 -140 LINE"
);
},
{
closed = 1;
nodes = (
"428 -140 OFFCURVE",
"480 1 OFFCURVE",
"570 0 CURVE",
"582 60 LINE",
"462 60 OFFCURVE",
"400 -80 OFFCURVE",
"280 -80 CURVE",
"268 -140 LINE"
);
},
{
closed = 1;
nodes = (
"390 16 OFFCURVE",
"392 31 OFFCURVE",
"392 44 CURVE SMOOTH",
"392 119 OFFCURVE",
"346 151 OFFCURVE",
"346 226 CURVE SMOOTH",
"346 239 OFFCURVE",
"348 254 OFFCURVE",
"351 270 CURVE",
"261 270 LINE",
"258 254 OFFCURVE",
"256 239 OFFCURVE",
"256 226 CURVE SMOOTH",
"256 151 OFFCURVE",
"302 119 OFFCURVE",
"302 44 CURVE SMOOTH",
"302 31 OFFCURVE",
"300 16 OFFCURVE",
"297 0 CURVE",
"387 0 LINE"
);
},
{
closed = 1;
nodes = (
"247 -20 LINE",
"167 -20 OFFCURVE",
"104 -60 OFFCURVE",
"88 -140 CURVE",
"178 -140 LINE",
"184 -110 OFFCURVE",
"205 -80 OFFCURVE",
"235 -80 CURVE"
);
},
{
closed = 1;
nodes = (
"259 -80 OFFCURVE",
"270 -100 OFFCURVE",
"270 -123 CURVE SMOOTH",
"270 -128 OFFCURVE",
"269 -134 OFFCURVE",
"268 -140 CURVE",
"358 -140 LINE",
"360 -130 OFFCURVE",
"361 -120 OFFCURVE",
"361 -111 CURVE SMOOTH",
"361 -50 OFFCURVE",
"317 -20 OFFCURVE",
"247 -20 CURVE",
"235 -80 LINE"
);
}
);
width = 632;
}
);
unicode = 3080;
},
{
glyphname = "me-hira";
lastChange = "2018-07-16 17:34:15 +0000";
layers = (
{
layerId = "CDF314B6-AD07-4304-BC80-988178CB760F";
paths = (
{
closed = 1;
nodes = (
"110 241 OFFCURVE",
"108 223 OFFCURVE",
"108 207 CURVE SMOOTH",
"108 107 OFFCURVE",
"164 60 OFFCURVE",
"253 60 CURVE SMOOTH",
"322 60 OFFCURVE",
"366 88 OFFCURVE",
"405 148 CURVE",
"413 194 LINE",
"353 139 OFFCURVE",
"322 120 OFFCURVE",
"265 120 CURVE SMOOTH",
"226 120 OFFCURVE",
"198 143 OFFCURVE",
"198 206 CURVE SMOOTH",
"198 222 OFFCURVE",
"199 239 OFFCURVE",
"203 260 CURVE",
"113 260 LINE"
);
},
{
closed = 1;
nodes = (
"461 200 LINE",
"501 400 LINE",
"411 400 LINE",
"371 200 LINE"
);
},
{
closed = 1;
nodes = (
"331 0 LINE",
"297 -170 OFFCURVE",
"237 -340 OFFCURVE",
"174 -340 CURVE",
"162 -400 LINE",
"299 -400 OFFCURVE",
"365 -279 OFFCURVE",
"421 0 CURVE"
);
},
{
closed = 1;
nodes = (
"174 -340 LINE",
"150 -340 OFFCURVE",
"141 -327 OFFCURVE",
"141 -300 CURVE SMOOTH",
"141 -287 OFFCURVE",
"143 -270 OFFCURVE",
"147 -250 CURVE",
"57 -250 LINE",
"53 -272 OFFCURVE",
"50 -291 OFFCURVE",
"50 -309 CURVE SMOOTH",
"50 -370 OFFCURVE",
"81 -400 OFFCURVE",
"162 -400 CURVE"
);
},
{
closed = 1;
nodes = (
"421 0 LINE",
"461 200 LINE",
"371 200 LINE",
"331 0 LINE"
);
},
{
closed = 1;
nodes = (
"124 177 LINE",
"191 200 LINE",
"231 400 LINE",
"141 400 LINE",
"101 200 LINE"
);
},
{
closed = 1;
nodes = (
"522 -171 OFFCURVE",
"574 -126 OFFCURVE",
"574 -63 CURVE SMOOTH",
"574 -4 OFFCURVE",
"523 49 OFFCURVE",
"456 49 CURVE SMOOTH",
"396 49 OFFCURVE",
"344 3 OFFCURVE",
"344 -59 CURVE SMOOTH",
"344 -118 OFFCURVE",
"393 -171 OFFCURVE",
"461 -171 CURVE SMOOTH"
);
},
{
closed = 1;
nodes = (
"410 -29 OFFCURVE",
"434 -1 OFFCURVE",
"462 -1 CURVE SMOOTH",
"489 -1 OFFCURVE",
"509 -27 OFFCURVE",
"509 -58 CURVE SMOOTH",
"509 -93 OFFCURVE",
"483 -122 OFFCURVE",
"454 -122 CURVE SMOOTH",
"427 -122 OFFCURVE",
"410 -96 OFFCURVE",
"410 -65 CURVE SMOOTH"
);
},
{
closed = 1;
nodes = (
"433 60 LINE",
"294 25 OFFCURVE",
"94 -71 OFFCURVE",
"57 -250 CURVE",
"147 -250 LINE",
"172 -141 OFFCURVE",
"271 -49 OFFCURVE",
"421 0 CURVE"
);
}
);
width = 624;
}
);
unicode = 3081;
},
{
glyphname = "mo-hira";
lastChange = "2018-07-16 17:34:15 +0000";
layers = (
{
layerId = "CDF314B6-AD07-4304-BC80-988178CB760F";
paths = (
{
closed = 1;
nodes = (
"436 322 OFFCURVE",
"437 329 OFFCURVE",
"437 335 CURVE SMOOTH",
"437 403 OFFCURVE",
"365 440 OFFCURVE",
"292 440 CURVE",
"280 380 LINE",
"331 380 OFFCURVE",
"346 355 OFFCURVE",
"346 329 CURVE SMOOTH",
"346 324 OFFCURVE",
"346 320 OFFCURVE",
"345 315 CURVE",
"435 315 LINE"
);
},
{
closed = 1;
nodes = (
"171 190 LINE",
"286 190 OFFCURVE",
"415 215 OFFCURVE",
"435 315 CURVE",
"345 315 LINE",
"335 265 OFFCURVE",
"239 250 OFFCURVE",
"183 250 CURVE"
);
},
{
closed = 1;
nodes = (
"118 250 LINE",
"106 190 LINE",
"171 190 LINE",
"183 250 LINE"
);
},
{
closed = 1;
nodes = (
"292 440 LINE",
"177 440 OFFCURVE",
"81 350 OFFCURVE",
"55 220 CURVE",
"145 220 LINE",
"165 320 OFFCURVE",
"224 380 OFFCURVE",
"280 380 CURVE"
);
},
{
closed = 1;
nodes = (
"252 60 LINE",
"200 60 OFFCURVE",
"141 98 OFFCURVE",
"141 180 CURVE SMOOTH",
"141 192 OFFCURVE",
"142 206 OFFCURVE",
"145 220 CURVE",
"55 220 LINE",
"52 203 OFFCURVE",
"50 187 OFFCURVE",
"50 172 CURVE SMOOTH",
"50 48 OFFCURVE",
"160 0 OFFCURVE",
"240 0 CURVE"
);
},
{
closed = 1;
nodes = (
"340 500 OFFCURVE",
"362 522 OFFCURVE",
"362 550 CURVE SMOOTH",
"362 578 OFFCURVE",
"340 600 OFFCURVE",
"312 600 CURVE SMOOTH",
"284 600 OFFCURVE",
"262 578 OFFCURVE",
"262 550 CURVE SMOOTH",
"262 522 OFFCURVE",
"284 500 OFFCURVE",
"312 500 CURVE SMOOTH"
);
},
{
closed = 1;
nodes = (
"240 0 LINE",
"309 0 OFFCURVE",
"353 28 OFFCURVE",
"392 88 CURVE",
"400 134 LINE",
"340 79 OFFCURVE",
"309 60 OFFCURVE",
"252 60 CURVE"
);
}
);
width = 487;
}
);
unicode = 3082;
},
{
glyphname = "ya-hira";
lastChange = "2018-07-16 17:34:15 +0000";
layers = (
{
anchors = (
{
name = daku;
position = "{412, 360}";
}
);
layerId = "CDF314B6-AD07-4304-BC80-988178CB760F";
paths = (
{
closed = 1;
nodes = (
"412 0 LINE",
"527 0 OFFCURVE",
"616 80 OFFCURVE",
"636 180 CURVE",
"546 180 LINE",
"532 110 OFFCURVE",
"480 60 OFFCURVE",
"424 60 CURVE"
);
},
{
closed = 1;
nodes = (
"50 0 LINE",
"86 0 OFFCURVE",
"116 8 OFFCURVE",
"156 48 CURVE",
"126 108 LINE",
"96 78 OFFCURVE",
"80 60 OFFCURVE",
"62 60 CURVE"
);
},
{
closed = 1;
nodes = (
"156 48 LINE",
"338 230 LINE",
"308 290 LINE",
"126 108 LINE"
);
},
{
closed = 1;
nodes = (
"638 192 OFFCURVE",
"640 204 OFFCURVE",
"640 215 CURVE SMOOTH",
"640 298 OFFCURVE",
"577 360 OFFCURVE",
"472 360 CURVE SMOOTH",
"393 360 OFFCURVE",
"338 320 OFFCURVE",
"308 290 CURVE",
"338 230 LINE",
"368 260 OFFCURVE",
"403 300 OFFCURVE",
"460 300 CURVE SMOOTH",
"522 300 OFFCURVE",
"550 266 OFFCURVE",
"550 215 CURVE SMOOTH",
"550 204 OFFCURVE",
"548 192 OFFCURVE",
"546 180 CURVE",
"636 180 LINE"
);
},
{
closed = 1;
nodes = (
"412 0 LINE",
"625 0 LINE",
"637 60 LINE",
"424 60 LINE"
);
}
);
width = 690;
}
);
unicode = 3084;
},
{
glyphname = "yu-hira";
lastChange = "2018-07-16 17:34:15 +0000";
layers = (
{
anchors = (
{
name = daku;
position = "{412, 360}";
}
);
layerId = "CDF314B6-AD07-4304-BC80-988178CB760F";
paths = (
{
closed = 1;
nodes = (
"412 0 LINE",
"527 0 OFFCURVE",
"616 80 OFFCURVE",
"636 180 CURVE",
"546 180 LINE",
"532 110 OFFCURVE",
"480 60 OFFCURVE",
"424 60 CURVE"
);
},
{
closed = 1;
nodes = (
"50 0 LINE",
"86 0 OFFCURVE",
"116 8 OFFCURVE",
"156 48 CURVE",
"126 108 LINE",
"96 78 OFFCURVE",
"80 60 OFFCURVE",
"62 60 CURVE"
);
},
{
closed = 1;
nodes = (
"156 48 LINE",
"338 230 LINE",
"308 290 LINE",
"126 108 LINE"
);
},
{
closed = 1;
nodes = (
"638 192 OFFCURVE",
"640 204 OFFCURVE",
"640 215 CURVE SMOOTH",
"640 298 OFFCURVE",
"577 360 OFFCURVE",
"472 360 CURVE SMOOTH",
"393 360 OFFCURVE",
"338 320 OFFCURVE",
"308 290 CURVE",
"338 230 LINE",
"368 260 OFFCURVE",
"403 300 OFFCURVE",
"460 300 CURVE SMOOTH",
"522 300 OFFCURVE",
"550 266 OFFCURVE",
"550 215 CURVE SMOOTH",
"550 204 OFFCURVE",
"548 192 OFFCURVE",
"546 180 CURVE",
"636 180 LINE"
);
},
{
closed = 1;
nodes = (
"412 0 LINE",
"625 0 LINE",
"637 60 LINE",
"424 60 LINE"
);
},
{
closed = 1;
nodes = (
"377 118 LINE",
"407 178 LINE",
"225 360 LINE",
"195 300 LINE"
);
}
);
width = 690;
}
);
unicode = 3086;
},
{
glyphname = "yo-hira";
lastChange = "2018-07-16 17:34:15 +0000";
layers = (
{
anchors = (
{
name = daku;
position = "{149, 440}";
}
);
layerId = "CDF314B6-AD07-4304-BC80-988178CB760F";
paths = (
{
closed = 1;
nodes = (
"99 400 LINE",
"59 200 LINE",
"149 200 LINE",
"189 400 LINE"
);
},
{
closed = 1;
nodes = (
"166 60 LINE",
"146 60 OFFCURVE",
"138 82 OFFCURVE",
"138 114 CURVE SMOOTH",
"138 139 OFFCURVE",
"143 169 OFFCURVE",
"149 200 CURVE",
"59 200 LINE",
"53 164 OFFCURVE",
"50 134 OFFCURVE",
"50 108 CURVE SMOOTH",
"50 34 OFFCURVE",
"77 0 OFFCURVE",
"154 0 CURVE"
);
},
{
closed = 1;
nodes = (
"99 400 LINE",
"189 400 LINE",
"197 440 LINE",
"107 440 LINE"
);
},
{
closed = 1;
nodes = (
"154 0 LINE",
"223 0 OFFCURVE",
"267 28 OFFCURVE",
"306 88 CURVE",
"314 134 LINE",
"254 79 OFFCURVE",
"223 60 OFFCURVE",
"166 60 CURVE"
);
},
{
closed = 1;
nodes = (
"99 138 LINE",
"309 348 LINE",
"279 408 LINE",
"69 198 LINE"
);
}
);
width = 364;
}
);
unicode = 3088;
},
{
glyphname = "ra-hira";
lastChange = "2018-07-16 17:34:15 +0000";
layers = (
{
layerId = "CDF314B6-AD07-4304-BC80-988178CB760F";
paths = (
{
closed = 1;
nodes = (
"346 0 LINE",
"296 -250 OFFCURVE",
"159 -340 OFFCURVE",
"99 -340 CURVE",
"87 -400 LINE",
"177 -400 OFFCURVE",
"376 -300 OFFCURVE",
"436 0 CURVE"
);
},
{
closed = 1;
nodes = (
"99 -340 LINE",
"75 -340 OFFCURVE",
"57 -325 OFFCURVE",
"45 -313 CURVE",
"0 -358 LINE",
"24 -382 OFFCURVE",
"51 -400 OFFCURVE",
"87 -400 CURVE"
);
},
{
closed = 1;
nodes = (
"199 48 LINE",
"469 228 LINE",
"433 264 LINE",
"163 84 LINE"
);
},
{
closed = 1;
nodes = (
"469 228 LINE",
"523 264 LINE",
"487 300 LINE",
"433 264 LINE"
);
},
{
closed = 1;
nodes = (
"433 264 LINE",
"325 192 OFFCURVE",
"365 85 OFFCURVE",
"346 0 CURVE",
"436 0 LINE",
"440 20 OFFCURVE",
"441 40 OFFCURVE",
"441 59 CURVE SMOOTH",
"441 93 OFFCURVE",
"437 125 OFFCURVE",
"437 152 CURVE SMOOTH",
"437 184 OFFCURVE",
"443 211 OFFCURVE",
"469 228 CURVE"
);
},
{
closed = 1;
nodes = (
"145 12 LINE",
"199 48 LINE",
"163 84 LINE",
"109 48 LINE"
);
}
);
width = 573;
}
);
unicode = 3089;
},
{
glyphname = "ri-hira";
lastChange = "2018-07-16 17:34:15 +0000";
layers = (
{
layerId = "CDF314B6-AD07-4304-BC80-988178CB760F";
paths = (
{
closed = 1;
nodes = (
"52 241 OFFCURVE",
"50 223 OFFCURVE",
"50 207 CURVE SMOOTH",
"50 107 OFFCURVE",
"106 60 OFFCURVE",
"195 60 CURVE SMOOTH",
"264 60 OFFCURVE",
"308 88 OFFCURVE",
"347 148 CURVE",
"355 194 LINE",
"295 139 OFFCURVE",
"264 120 OFFCURVE",
"207 120 CURVE SMOOTH",
"168 120 OFFCURVE",
"140 143 OFFCURVE",
"140 206 CURVE SMOOTH",
"140 222 OFFCURVE",
"141 239 OFFCURVE",
"145 260 CURVE",
"55 260 LINE"
);
},
{
closed = 1;
nodes = (
"403 200 LINE",
"443 400 LINE",
"353 400 LINE",
"313 200 LINE"
);
},
{
closed = 1;
nodes = (
"363 0 LINE",
"403 200 LINE",
"313 200 LINE",
"273 0 LINE"
);
},
{
closed = 1;
nodes = (
"145 260 LINE",
"173 400 LINE",
"83 400 LINE",
"55 260 LINE"
);
},
{
closed = 1;
nodes = (
"323 -200 LINE",
"363 0 LINE",
"273 0 LINE",
"233 -200 LINE"
);
},
{
closed = 1;
nodes = (
"283 -400 LINE",
"323 -200 LINE",
"233 -200 LINE",
"193 -400 LINE"
);
}
);
width = 493;
}
);
unicode = 308A;
},
{
glyphname = "ru-hira";
lastChange = "2018-07-16 17:34:15 +0000";
layers = (
{
layerId = "CDF314B6-AD07-4304-BC80-988178CB760F";
paths = (
{
closed = 1;
nodes = (
"190 -200 LINE",
"202 -140 LINE",
"112 -140 LINE",
"100 -200 LINE"
);
},
{
closed = 1;
nodes = (
"100 -200 LINE",
"60 -400 LINE",
"150 -400 LINE",
"190 -200 LINE"
);
},
{
closed = 1;
nodes = (
"285 200 LINE",
"245 0 LINE",
"347 60 LINE",
"375 200 LINE"
);
},
{
closed = 1;
nodes = (
"325 400 LINE",
"285 200 LINE",
"375 200 LINE",
"415 400 LINE"
);
},
{
closed = 1;
nodes = (
"501 600 LINE",
"426 600 OFFCURVE",
"350 525 OFFCURVE",
"325 400 CURVE",
"415 400 LINE",
"435 500 OFFCURVE",
"459 540 OFFCURVE",
"489 540 CURVE"
);
},
{
closed = 1;
nodes = (
"175 -62 OFFCURVE",
"327 -40 OFFCURVE",
"347 60 CURVE",
"257 60 LINE",
"247 10 OFFCURVE",
"181 -6 OFFCURVE",
"136 -20 CURVE",
"124 -80 LINE"
);
},
{
closed = 1;
nodes = (
"50 0 LINE",
"107 0 OFFCURVE",
"124 -14 OFFCURVE",
"124 -52 CURVE SMOOTH",
"124 -73 OFFCURVE",
"119 -102 OFFCURVE",
"112 -140 CURVE",
"202 -140 LINE",
"207 -107 OFFCURVE",
"211 -79 OFFCURVE",
"211 -55 CURVE SMOOTH",
"211 23 OFFCURVE",
"176 60 OFFCURVE",
"62 60 CURVE"
);
}
);
width = 551;
}
);
unicode = 308B;
},
{
glyphname = "re-hira";
lastChange = "2018-07-16 17:34:15 +0000";
layers = (
{
layerId = "CDF314B6-AD07-4304-BC80-988178CB760F";
paths = (
{
closed = 1;
nodes = (
"228 200 LINE",
"188 0 LINE",
"278 0 LINE",
"318 200 LINE"
);
},
{
closed = 1;
nodes = (
"268 400 LINE",
"228 200 LINE",
"318 200 LINE",
"358 400 LINE"
);
},
{
closed = 1;
nodes = (
"150 98 LINE",
"474 314 LINE",
"438 350 LINE",
"114 134 LINE"
);
},
{
closed = 1;
nodes = (
"50 50 LINE",
"86 50 OFFCURVE",
"114 74 OFFCURVE",
"150 98 CURVE",
"114 134 LINE",
"96 122 OFFCURVE",
"80 110 OFFCURVE",
"62 110 CURVE"
);
},
{
closed = 1;
nodes = (
"528 350 LINE",
"536 390 LINE",
"498 390 LINE",
"438 350 LINE"
);
},
{
closed = 1;
nodes = (
"428 300 LINE",
"408 200 LINE",
"498 200 LINE",
"518 300 LINE"
);
},
{
closed = 1;
nodes = (
"560 60 LINE",
"521 60 OFFCURVE",
"493 83 OFFCURVE",
"493 146 CURVE SMOOTH",
"493 162 OFFCURVE",
"494 179 OFFCURVE",
"498 200 CURVE",
"408 200 LINE",
"405 181 OFFCURVE",
"403 163 OFFCURVE",
"403 147 CURVE SMOOTH",
"403 47 OFFCURVE",
"459 0 OFFCURVE",
"548 0 CURVE"
);
},
{
closed = 1;
nodes = (
"438 350 LINE",
"428 300 LINE",
"518 300 LINE",
"528 350 LINE"
);
},
{
closed = 1;
nodes = (
"548 0 LINE",
"617 0 OFFCURVE",
"661 28 OFFCURVE",
"700 88 CURVE",
"708 134 LINE",
"648 79 OFFCURVE",
"617 60 OFFCURVE",
"560 60 CURVE"
);
}
);
width = 758;
}
);
unicode = 308C;
},
{
glyphname = "ro-hira";
lastChange = "2018-07-16 17:34:15 +0000";
layers = (
{
layerId = "CDF314B6-AD07-4304-BC80-988178CB760F";
paths = (
{
closed = 1;
nodes = (
"346 0 LINE",
"296 -250 OFFCURVE",
"159 -340 OFFCURVE",
"99 -340 CURVE",
"87 -400 LINE",
"177 -400 OFFCURVE",
"376 -300 OFFCURVE",
"436 0 CURVE"
);
},
{
closed = 1;
nodes = (
"284 74 LINE",
"334 94 OFFCURVE",
"461 150 OFFCURVE",
"471 200 CURVE",
"381 200 LINE",
"376 175 OFFCURVE",
"346 154 OFFCURVE",
"296 134 CURVE"
);
},
{
closed = 1;
nodes = (
"438 9 OFFCURVE",
"439 18 OFFCURVE",
"439 27 CURVE SMOOTH",
"439 86 OFFCURVE",
"403 144 OFFCURVE",
"342 144 CURVE SMOOTH",
"328 144 OFFCURVE",
"312 141 OFFCURVE",
"296 134 CURVE",
"196 94 LINE",
"184 34 LINE",
"284 74 LINE",
"294 78 OFFCURVE",
"302 80 OFFCURVE",
"310 80 CURVE SMOOTH",
"335 80 OFFCURVE",
"349 60 OFFCURVE",
"349 28 CURVE SMOOTH",
"349 20 OFFCURVE",
"348 10 OFFCURVE",
"346 0 CURVE",
"436 0 LINE"
);
},
{
closed = 1;
nodes = (
"472 203 OFFCURVE",
"472 207 OFFCURVE",
"472 210 CURVE SMOOTH",
"472 256 OFFCURVE",
"407 300 OFFCURVE",
"311 300 CURVE SMOOTH",
"242 300 OFFCURVE",
"179 272 OFFCURVE",
"139 212 CURVE",
"151 166 LINE",
"187 221 OFFCURVE",
"242 240 OFFCURVE",
"299 240 CURVE SMOOTH",
"348 240 OFFCURVE",
"386 225 OFFCURVE",
"381 200 CURVE",
"471 200 LINE"
);
},
{
closed = 1;
nodes = (
"284 74 LINE",
"334 94 OFFCURVE",
"461 150 OFFCURVE",
"471 200 CURVE",
"381 200 LINE",
"376 175 OFFCURVE",
"346 154 OFFCURVE",
"296 134 CURVE"
);
},
{
closed = 1;
nodes = (
"99 -340 LINE",
"75 -340 OFFCURVE",
"57 -325 OFFCURVE",
"45 -313 CURVE",
"0 -358 LINE",
"24 -382 OFFCURVE",
"51 -400 OFFCURVE",
"87 -400 CURVE"
);
}
);
width = 522;
}
);
unicode = 308D;
},
{
glyphname = "wa-hira";
lastChange = "2018-07-16 17:34:15 +0000";
layers = (
{
anchors = (
{
name = daku;
position = "{298, 440}";
}
);
layerId = "CDF314B6-AD07-4304-BC80-988178CB760F";
paths = (
{
closed = 1;
nodes = (
"453 219 OFFCURVE",
"455 237 OFFCURVE",
"455 253 CURVE SMOOTH",
"455 353 OFFCURVE",
"399 400 OFFCURVE",
"310 400 CURVE SMOOTH",
"241 400 OFFCURVE",
"197 372 OFFCURVE",
"158 312 CURVE",
"150 266 LINE",
"210 321 OFFCURVE",
"241 340 OFFCURVE",
"298 340 CURVE SMOOTH",
"337 340 OFFCURVE",
"365 317 OFFCURVE",
"365 254 CURVE SMOOTH",
"365 238 OFFCURVE",
"364 221 OFFCURVE",
"360 200 CURVE",
"450 200 LINE"
);
},
{
closed = 1;
nodes = (
"90 200 LINE",
"50 0 LINE",
"140 0 LINE",
"180 200 LINE"
);
},
{
closed = 1;
nodes = (
"79 380 LINE",
"99 380 OFFCURVE",
"107 358 OFFCURVE",
"107 326 CURVE SMOOTH",
"107 301 OFFCURVE",
"102 271 OFFCURVE",
"96 240 CURVE",
"186 240 LINE",
"192 276 OFFCURVE",
"195 306 OFFCURVE",
"195 332 CURVE SMOOTH",
"195 406 OFFCURVE",
"168 440 OFFCURVE",
"91 440 CURVE"
);
},
{
closed = 1;
nodes = (
"90 200 LINE",
"180 200 LINE",
"186 240 LINE",
"96 240 LINE"
);
},
{
closed = 1;
nodes = (
"320 0 LINE SMOOTH",
"286 -170 OFFCURVE",
"225 -340 OFFCURVE",
"162 -340 CURVE",
"150 -400 LINE",
"287 -400 OFFCURVE",
"354 -279 OFFCURVE",
"410 0 CURVE SMOOTH",
"450 200 LINE",
"360 200 LINE"
);
}
);
width = 505;
}
);
unicode = 308F;
},
{
glyphname = "wi-hira";
lastChange = "2018-07-16 17:34:15 +0000";
layers = (
{
layerId = "CDF314B6-AD07-4304-BC80-988178CB760F";
paths = (
{
closed = 1;
nodes = (
"154 0 LINE",
"223 0 OFFCURVE",
"267 28 OFFCURVE",
"306 88 CURVE",
"314 134 LINE",
"254 79 OFFCURVE",
"223 60 OFFCURVE",
"166 60 CURVE"
);
},
{
closed = 1;
nodes = (
"166 60 LINE",
"146 60 OFFCURVE",
"138 82 OFFCURVE",
"138 114 CURVE SMOOTH",
"138 139 OFFCURVE",
"143 169 OFFCURVE",
"149 200 CURVE",
"59 200 LINE",
"53 164 OFFCURVE",
"50 134 OFFCURVE",
"50 108 CURVE SMOOTH",
"50 34 OFFCURVE",
"77 0 OFFCURVE",
"154 0 CURVE"
);
},
{
closed = 1;
nodes = (
"79 300 LINE",
"59 200 LINE",
"149 200 LINE",
"169 300 LINE"
);
},
{
closed = 1;
nodes = (
"172 360 OFFCURVE",
"194 382 OFFCURVE",
"194 410 CURVE SMOOTH",
"194 438 OFFCURVE",
"172 460 OFFCURVE",
"144 460 CURVE SMOOTH",
"116 460 OFFCURVE",
"94 438 OFFCURVE",
"94 410 CURVE SMOOTH",
"94 382 OFFCURVE",
"116 360 OFFCURVE",
"144 360 CURVE SMOOTH"
);
}
);
width = 364;
}
);
unicode = 3090;
},
{
glyphname = "we-hira";
lastChange = "2018-07-16 17:34:15 +0000";
layers = (
{
layerId = "CDF314B6-AD07-4304-BC80-988178CB760F";
paths = (
{
closed = 1;
nodes = (
"331 0 LINE",
"297 -170 OFFCURVE",
"237 -340 OFFCURVE",
"174 -340 CURVE",
"162 -400 LINE",
"299 -400 OFFCURVE",
"365 -279 OFFCURVE",
"421 0 CURVE"
);
},
{
closed = 1;
nodes = (
"174 -340 LINE",
"150 -340 OFFCURVE",
"141 -327 OFFCURVE",
"141 -300 CURVE SMOOTH",
"141 -287 OFFCURVE",
"143 -270 OFFCURVE",
"147 -250 CURVE",
"57 -250 LINE",
"53 -272 OFFCURVE",
"50 -291 OFFCURVE",
"50 -309 CURVE SMOOTH",
"50 -370 OFFCURVE",
"81 -400 OFFCURVE",
"162 -400 CURVE"
);
},
{
closed = 1;
nodes = (
"493 60 LINE",
"359 62 OFFCURVE",
"97 -50 OFFCURVE",
"57 -250 CURVE",
"147 -250 LINE",
"172 -125 OFFCURVE",
"331 0 OFFCURVE",
"481 0 CURVE"
);
},
{
closed = 1;
nodes = (
"482 303 OFFCURVE",
"482 307 OFFCURVE",
"482 310 CURVE SMOOTH",
"482 356 OFFCURVE",
"417 400 OFFCURVE",
"321 400 CURVE SMOOTH",
"252 400 OFFCURVE",
"189 372 OFFCURVE",
"149 312 CURVE",
"161 266 LINE",
"197 321 OFFCURVE",
"252 340 OFFCURVE",
"309 340 CURVE SMOOTH",
"358 340 OFFCURVE",
"396 325 OFFCURVE",
"391 300 CURVE",
"481 300 LINE"
);
},
{
closed = 1;
nodes = (
"391 300 LINE",
"371 200 LINE",
"461 200 LINE",
"481 300 LINE"
);
},
{
closed = 1;
nodes = (
"365 170 LINE",
"357 130 LINE",
"331 0 LINE",
"421 0 LINE",
"461 200 LINE",
"371 200 LINE"
);
},
{
closed = 1;
nodes = (
"276 1 OFFCURVE",
"286 0 OFFCURVE",
"296 0 CURVE SMOOTH",
"375 0 OFFCURVE",
"443 57 OFFCURVE",
"443 140 CURVE SMOOTH",
"443 207 OFFCURVE",
"392 269 OFFCURVE",
"321 283 CURVE SMOOTH",
"311 285 OFFCURVE",
"301 286 OFFCURVE",
"291 286 CURVE SMOOTH",
"212 286 OFFCURVE",
"145 226 OFFCURVE",
"145 146 CURVE SMOOTH",
"145 78 OFFCURVE",
"193 16 OFFCURVE",
"266 3 CURVE SMOOTH"
);
},
{
closed = 1;
nodes = (
"229 185 OFFCURVE",
"262 221 OFFCURVE",
"298 221 CURVE SMOOTH",
"333 221 OFFCURVE",
"359 188 OFFCURVE",
"359 148 CURVE SMOOTH",
"359 101 OFFCURVE",
"324 64 OFFCURVE",
"287 64 CURVE SMOOTH",
"252 64 OFFCURVE",
"229 97 OFFCURVE",
"229 137 CURVE SMOOTH"
);
}
);
width = 543;
}
);
unicode = 3091;
},
{
glyphname = "wo-hira";
lastChange = "2018-07-16 17:34:15 +0000";
layers = (
{
layerId = "CDF314B6-AD07-4304-BC80-988178CB760F";
paths = (
{
closed = 1;
nodes = (
"186 200 LINE",
"146 0 LINE",
"236 0 LINE",
"276 200 LINE"
);
},
{
closed = 1;
nodes = (
"226 400 LINE",
"316 400 LINE",
"324 440 LINE",
"234 440 LINE"
);
},
{
closed = 1;
nodes = (
"226 400 LINE",
"186 200 LINE",
"276 200 LINE",
"316 400 LINE"
);
},
{
closed = 1;
nodes = (
"706 322 OFFCURVE",
"707 329 OFFCURVE",
"707 335 CURVE SMOOTH",
"707 403 OFFCURVE",
"635 440 OFFCURVE",
"562 440 CURVE",
"550 380 LINE",
"601 380 OFFCURVE",
"616 355 OFFCURVE",
"616 329 CURVE SMOOTH",
"616 324 OFFCURVE",
"616 320 OFFCURVE",
"615 315 CURVE",
"705 315 LINE"
);
},
{
closed = 1;
nodes = (
"562 440 LINE",
"447 440 OFFCURVE",
"351 350 OFFCURVE",
"325 220 CURVE",
"415 220 LINE",
"435 320 OFFCURVE",
"494 380 OFFCURVE",
"550 380 CURVE"
);
},
{
closed = 1;
nodes = (
"62 112 LINE",
"50 52 LINE",
"482 160 LINE",
"494 220 LINE"
);
},
{
closed = 1;
nodes = (
"482 160 LINE",
"602 190 OFFCURVE",
"689 235 OFFCURVE",
"705 315 CURVE",
"615 315 LINE",
"605 265 OFFCURVE",
"554 235 OFFCURVE",
"494 220 CURVE"
);
},
{
closed = 1;
nodes = (
"522 60 LINE",
"470 60 OFFCURVE",
"411 98 OFFCURVE",
"411 180 CURVE SMOOTH",
"411 192 OFFCURVE",
"412 206 OFFCURVE",
"415 220 CURVE",
"325 220 LINE",
"322 203 OFFCURVE",
"320 187 OFFCURVE",
"320 172 CURVE SMOOTH",
"320 48 OFFCURVE",
"430 0 OFFCURVE",
"510 0 CURVE"
);
},
{
closed = 1;
nodes = (
"510 0 LINE",
"579 0 OFFCURVE",
"623 28 OFFCURVE",
"662 88 CURVE",
"670 134 LINE",
"610 79 OFFCURVE",
"579 60 OFFCURVE",
"522 60 CURVE"
);
}
);
width = 757;
}
);
unicode = 3092;
},
{
glyphname = "n-hira";
lastChange = "2018-07-16 17:34:15 +0000";
layers = (
{
layerId = "CDF314B6-AD07-4304-BC80-988178CB760F";
paths = (
{
closed = 1;
nodes = (
"660 200 LINE",
"700 400 LINE",
"610 400 LINE",
"570 200 LINE"
);
},
{
closed = 1;
nodes = (
"762 260 LINE",
"723 260 OFFCURVE",
"695 283 OFFCURVE",
"695 346 CURVE SMOOTH",
"695 362 OFFCURVE",
"696 379 OFFCURVE",
"700 400 CURVE",
"610 400 LINE",
"607 381 OFFCURVE",
"605 363 OFFCURVE",
"605 347 CURVE SMOOTH",
"605 247 OFFCURVE",
"661 200 OFFCURVE",
"750 200 CURVE"
);
},
{
closed = 1;
nodes = (
"230 200 LINE",
"234 220 LINE",
"144 220 LINE",
"140 200 LINE"
);
},
{
closed = 1;
nodes = (
"549 95 OFFCURVE",
"527 60 OFFCURVE",
"477 60 CURVE SMOOTH",
"448 60 OFFCURVE",
"432 78 OFFCURVE",
"432 127 CURVE SMOOTH",
"432 146 OFFCURVE",
"435 170 OFFCURVE",
"440 200 CURVE",
"350 200 LINE",
"346 174 OFFCURVE",
"344 150 OFFCURVE",
"344 129 CURVE SMOOTH",
"344 41 OFFCURVE",
"382 0 OFFCURVE",
"465 0 CURVE SMOOTH",
"568 0 OFFCURVE",
"632 60 OFFCURVE",
"660 200 CURVE",
"570 200 LINE"
);
},
{
closed = 1;
nodes = (
"127 360 LINE",
"147 360 OFFCURVE",
"155 338 OFFCURVE",
"155 306 CURVE SMOOTH",
"155 281 OFFCURVE",
"150 251 OFFCURVE",
"144 220 CURVE",
"234 220 LINE",
"241 256 OFFCURVE",
"245 287 OFFCURVE",
"245 313 CURVE SMOOTH",
"245 385 OFFCURVE",
"215 420 OFFCURVE",
"139 420 CURVE"
);
},
{
closed = 1;
nodes = (
"139 420 LINE",
"103 420 OFFCURVE",
"74 392 OFFCURVE",
"50 332 CURVE",
"73 286 LINE",
"97 346 OFFCURVE",
"109 360 OFFCURVE",
"127 360 CURVE"
);
},
{
closed = 1;
nodes = (
"440 200 LINE",
"480 400 LINE",
"390 400 LINE",
"350 200 LINE"
);
},
{
closed = 1;
nodes = (
"137 181 OFFCURVE",
"135 163 OFFCURVE",
"135 147 CURVE SMOOTH",
"135 47 OFFCURVE",
"191 0 OFFCURVE",
"280 0 CURVE SMOOTH",
"320 0 OFFCURVE",
"359 27 OFFCURVE",
"398 87 CURVE",
"406 133 LINE",
"346 78 OFFCURVE",
"332 60 OFFCURVE",
"292 60 CURVE SMOOTH",
"253 60 OFFCURVE",
"225 83 OFFCURVE",
"225 146 CURVE SMOOTH",
"225 162 OFFCURVE",
"226 179 OFFCURVE",
"230 200 CURVE",
"140 200 LINE"
);
}
);
width = 812;
}
);
unicode = 3093;
},
{
glyphname = "a-hira.fin";
lastChange = "2018-07-16 17:34:15 +0000";
layers = (
{
anchors = (
{
name = daku;
position = "{407, 440}";
}
);
layerId = "CDF314B6-AD07-4304-BC80-988178CB760F";
paths = (
{
closed = 1;
nodes = (
"541 0 LINE",
"610 0 OFFCURVE",
"654 28 OFFCURVE",
"693 88 CURVE",
"701 134 LINE",
"641 79 OFFCURVE",
"610 60 OFFCURVE",
"553 60 CURVE"
);
},
{
closed = 1;
nodes = (
"0 0 LINE",
"36 0 OFFCURVE",
"63 28 OFFCURVE",
"102 88 CURVE",
"90 134 LINE",
"50 74 OFFCURVE",
"36 60 OFFCURVE",
"12 60 CURVE"
);
},
{
closed = 1;
nodes = (
"90 134 LINE",
"102 88 LINE",
"247 306 LINE",
"235 352 LINE"
);
},
{
closed = 1;
nodes = (
"550 259 OFFCURVE",
"552 277 OFFCURVE",
"552 293 CURVE SMOOTH",
"552 393 OFFCURVE",
"496 440 OFFCURVE",
"407 440 CURVE SMOOTH",
"338 440 OFFCURVE",
"275 412 OFFCURVE",
"235 352 CURVE",
"247 306 LINE",
"283 361 OFFCURVE",
"338 380 OFFCURVE",
"395 380 CURVE SMOOTH",
"434 380 OFFCURVE",
"462 357 OFFCURVE",
"462 294 CURVE SMOOTH",
"462 278 OFFCURVE",
"461 261 OFFCURVE",
"457 240 CURVE",
"547 240 LINE"
);
},
{
closed = 1;
nodes = (
"451 200 LINE",
"433 95 OFFCURVE",
"389 60 OFFCURVE",
"333 60 CURVE SMOOTH",
"289 60 OFFCURVE",
"265 82 OFFCURVE",
"265 114 CURVE SMOOTH",
"265 119 OFFCURVE",
"266 124 OFFCURVE",
"267 129 CURVE",
"177 129 LINE",
"175 121 OFFCURVE",
"175 113 OFFCURVE",
"175 105 CURVE SMOOTH",
"175 24 OFFCURVE",
"269 0 OFFCURVE",
"321 0 CURVE SMOOTH",
"436 0 OFFCURVE",
"519 63 OFFCURVE",
"541 200 CURVE"
);
},
{
closed = 1;
nodes = (
"464 60 OFFCURVE",
"483 234 OFFCURVE",
"343 234 CURVE SMOOTH",
"301 234 OFFCURVE",
"197 229 OFFCURVE",
"177 129 CURVE",
"267 129 LINE",
"273 159 OFFCURVE",
"301 174 OFFCURVE",
"331 174 CURVE SMOOTH",
"431 174 OFFCURVE",
"421 0 OFFCURVE",
"541 0 CURVE",
"553 60 LINE"
);
},
{
closed = 1;
nodes = (
"451 200 LINE",
"541 200 LINE",
"547 240 LINE",
"457 240 LINE"
);
}
);
width = 751;
}
);
},
{
glyphname = "i-hira.fin";
lastChange = "2018-07-16 17:34:15 +0000";
layers = (
{
anchors = (
{
name = daku;
position = "{375, 430}";
}
);
layerId = "CDF314B6-AD07-4304-BC80-988178CB760F";
paths = (
{
closed = 1;
nodes = (
"605 0 LINE",
"674 0 OFFCURVE",
"718 28 OFFCURVE",
"757 88 CURVE",
"765 134 LINE",
"705 79 OFFCURVE",
"674 60 OFFCURVE",
"617 60 CURVE"
);
},
{
closed = 1;
nodes = (
"285 200 LINE",
"305 300 LINE",
"201 230 LINE",
"195 200 LINE"
);
},
{
closed = 1;
nodes = (
"192 181 OFFCURVE",
"190 163 OFFCURVE",
"190 147 CURVE SMOOTH",
"190 47 OFFCURVE",
"246 0 OFFCURVE",
"335 0 CURVE SMOOTH",
"404 0 OFFCURVE",
"448 28 OFFCURVE",
"487 88 CURVE",
"495 134 LINE",
"435 79 OFFCURVE",
"404 60 OFFCURVE",
"347 60 CURVE SMOOTH",
"308 60 OFFCURVE",
"280 83 OFFCURVE",
"280 146 CURVE SMOOTH",
"280 162 OFFCURVE",
"281 179 OFFCURVE",
"285 200 CURVE",
"195 200 LINE"
);
},
{
closed = 1;
nodes = (
"555 200 LINE",
"595 400 LINE",
"505 400 LINE",
"465 200 LINE"
);
},
{
closed = 1;
nodes = (
"255 212 OFFCURVE",
"307 257 OFFCURVE",
"307 320 CURVE SMOOTH",
"307 379 OFFCURVE",
"256 432 OFFCURVE",
"189 432 CURVE SMOOTH",
"129 432 OFFCURVE",
"77 386 OFFCURVE",
"77 324 CURVE SMOOTH",
"77 265 OFFCURVE",
"126 212 OFFCURVE",
"194 212 CURVE SMOOTH"
);
},
{
closed = 1;
nodes = (
"143 354 OFFCURVE",
"167 382 OFFCURVE",
"195 382 CURVE SMOOTH",
"222 382 OFFCURVE",
"242 356 OFFCURVE",
"242 325 CURVE SMOOTH",
"242 290 OFFCURVE",
"216 261 OFFCURVE",
"187 261 CURVE SMOOTH",
"160 261 OFFCURVE",
"143 287 OFFCURVE",
"143 318 CURVE SMOOTH"
);
},
{
closed = 1;
nodes = (
"617 60 LINE",
"578 60 OFFCURVE",
"550 83 OFFCURVE",
"550 146 CURVE SMOOTH",
"550 162 OFFCURVE",
"551 179 OFFCURVE",
"555 200 CURVE",
"465 200 LINE",
"462 181 OFFCURVE",
"460 163 OFFCURVE",
"460 147 CURVE SMOOTH",
"460 47 OFFCURVE",
"516 0 OFFCURVE",
"605 0 CURVE"
);
},
{
closed = 1;
nodes = (
"0 0 LINE",
"120 0 OFFCURVE",
"202 97 OFFCURVE",
"218 177 CURVE",
"195 200 LINE",
"179 120 OFFCURVE",
"69 60 OFFCURVE",
"12 60 CURVE"
);
}
);
width = 815;
}
);
},
{
glyphname = "u-hira.fin";
lastChange = "2018-07-16 17:34:15 +0000";
layers = (
{
anchors = (
{
name = daku;
position = "{296, 300}";
}
);
layerId = "CDF314B6-AD07-4304-BC80-988178CB760F";
paths = (
{
closed = 1;
nodes = (
"331 0 LINE",
"297 -170 OFFCURVE",
"237 -340 OFFCURVE",
"174 -340 CURVE",
"162 -400 LINE",
"299 -400 OFFCURVE",
"365 -279 OFFCURVE",
"421 0 CURVE"
);
},
{
closed = 1;
nodes = (
"174 -340 LINE",
"150 -340 OFFCURVE",
"141 -327 OFFCURVE",
"141 -300 CURVE SMOOTH",
"141 -287 OFFCURVE",
"143 -270 OFFCURVE",
"147 -250 CURVE",
"57 -250 LINE",
"53 -272 OFFCURVE",
"50 -291 OFFCURVE",
"50 -309 CURVE SMOOTH",
"50 -370 OFFCURVE",
"81 -400 OFFCURVE",
"162 -400 CURVE"
);
},
{
closed = 1;
nodes = (
"423 9 OFFCURVE",
"424 18 OFFCURVE",
"424 27 CURVE SMOOTH",
"424 86 OFFCURVE",
"388 144 OFFCURVE",
"327 144 CURVE SMOOTH",
"313 144 OFFCURVE",
"297 141 OFFCURVE",
"281 134 CURVE",
"181 94 LINE",
"169 34 LINE",
"269 74 LINE",
"279 78 OFFCURVE",
"287 80 OFFCURVE",
"295 80 CURVE SMOOTH",
"320 80 OFFCURVE",
"334 60 OFFCURVE",
"334 28 CURVE SMOOTH",
"334 20 OFFCURVE",
"333 10 OFFCURVE",
"331 0 CURVE",
"421 0 LINE"
);
},
{
closed = 1;
nodes = (
"457 203 OFFCURVE",
"457 207 OFFCURVE",
"457 210 CURVE SMOOTH",
"457 256 OFFCURVE",
"392 300 OFFCURVE",
"296 300 CURVE SMOOTH",
"227 300 OFFCURVE",
"164 272 OFFCURVE",
"124 212 CURVE",
"136 166 LINE",
"172 221 OFFCURVE",
"227 240 OFFCURVE",
"284 240 CURVE SMOOTH",
"333 240 OFFCURVE",
"371 225 OFFCURVE",
"366 200 CURVE",
"456 200 LINE"
);
},
{
closed = 1;
nodes = (
"0 0 LINE",
"36 0 OFFCURVE",
"96 106 OFFCURVE",
"136 166 CURVE",
"124 212 LINE",
"84 152 OFFCURVE",
"30 60 OFFCURVE",
"12 60 CURVE"
);
},
{
closed = 1;
nodes = (
"269 74 LINE",
"319 94 OFFCURVE",
"446 150 OFFCURVE",
"456 200 CURVE",
"366 200 LINE",
"361 175 OFFCURVE",
"331 154 OFFCURVE",
"281 134 CURVE"
);
},
{
closed = 1;
nodes = (
"493 60 LINE",
"359 62 OFFCURVE",
"97 -50 OFFCURVE",
"57 -250 CURVE",
"147 -250 LINE",
"172 -125 OFFCURVE",
"331 0 OFFCURVE",
"481 0 CURVE"
);
}
);
width = 543;
}
);
},
{
glyphname = "e-hira.fin";
lastChange = "2018-07-16 17:34:15 +0000";
layers = (
{
anchors = (
{
name = daku;
position = "{280, 600}";
}
);
layerId = "CDF314B6-AD07-4304-BC80-988178CB760F";
paths = (
{
closed = 1;
nodes = (
"197 181 OFFCURVE",
"195 163 OFFCURVE",
"195 147 CURVE SMOOTH",
"195 47 OFFCURVE",
"251 0 OFFCURVE",
"340 0 CURVE",
"352 60 LINE",
"313 60 OFFCURVE",
"285 83 OFFCURVE",
"285 146 CURVE SMOOTH",
"285 162 OFFCURVE",
"286 179 OFFCURVE",
"290 200 CURVE",
"200 200 LINE"
);
},
{
closed = 1;
nodes = (
"0 0 LINE",
"36 0 OFFCURVE",
"65 17 OFFCURVE",
"89 77 CURVE",
"66 123 LINE",
"42 63 OFFCURVE",
"30 60 OFFCURVE",
"12 60 CURVE"
);
},
{
closed = 1;
nodes = (
"155 200 LINE",
"119 200 OFFCURVE",
"90 183 OFFCURVE",
"66 123 CURVE",
"89 77 LINE",
"113 137 OFFCURVE",
"125 140 OFFCURVE",
"143 140 CURVE"
);
},
{
closed = 1;
nodes = (
"160 0 LINE",
"120 -200 LINE",
"210 -200 LINE",
"250 0 LINE"
);
},
{
closed = 1;
nodes = (
"120 -200 LINE",
"80 -400 LINE",
"170 -400 LINE",
"210 -200 LINE"
);
},
{
closed = 1;
nodes = (
"240 400 LINE",
"200 200 LINE",
"290 200 LINE",
"330 400 LINE"
);
},
{
closed = 1;
nodes = (
"280 600 LINE",
"240 400 LINE",
"330 400 LINE",
"370 600 LINE"
);
},
{
closed = 1;
nodes = (
"143 140 LINE",
"163 140 OFFCURVE",
"171 118 OFFCURVE",
"171 86 CURVE SMOOTH",
"171 61 OFFCURVE",
"166 31 OFFCURVE",
"160 0 CURVE",
"250 0 LINE",
"256 36 OFFCURVE",
"259 66 OFFCURVE",
"259 92 CURVE SMOOTH",
"259 166 OFFCURVE",
"232 200 OFFCURVE",
"155 200 CURVE"
);
}
);
width = 420;
}
);
},
{
glyphname = "o-hira.fin";
lastChange = "2018-07-16 17:34:15 +0000";
layers = (
{
anchors = (
{
name = daku;
position = "{380, 420}";
}
);
layerId = "CDF314B6-AD07-4304-BC80-988178CB760F";
paths = (
{
closed = 1;
nodes = (
"185 200 LINE",
"145 0 LINE",
"235 0 LINE",
"275 200 LINE"
);
},
{
closed = 1;
nodes = (
"225 400 LINE",
"185 200 LINE",
"275 200 LINE",
"315 400 LINE"
);
},
{
closed = 1;
nodes = (
"0 0 LINE",
"60 0 OFFCURVE",
"210 235 OFFCURVE",
"235 285 CURVE",
"205 300 LINE",
"180 250 OFFCURVE",
"60 60 OFFCURVE",
"12 60 CURVE"
);
},
{
closed = 1;
nodes = (
"594 252 OFFCURVE",
"596 264 OFFCURVE",
"596 275 CURVE SMOOTH",
"596 358 OFFCURVE",
"533 420 OFFCURVE",
"428 420 CURVE SMOOTH",
"308 420 OFFCURVE",
"210 325 OFFCURVE",
"185 200 CURVE",
"275 200 LINE",
"295 300 OFFCURVE",
"359 360 OFFCURVE",
"416 360 CURVE SMOOTH",
"478 360 OFFCURVE",
"506 326 OFFCURVE",
"506 275 CURVE SMOOTH",
"506 264 OFFCURVE",
"504 252 OFFCURVE",
"502 240 CURVE",
"592 240 LINE"
);
},
{
closed = 1;
nodes = (
"380 120 LINE",
"344 120 OFFCURVE",
"329 123 OFFCURVE",
"305 139 CURVE",
"269 85 LINE",
"293 69 OFFCURVE",
"320 60 OFFCURVE",
"368 60 CURVE"
);
},
{
closed = 1;
nodes = (
"145 0 LINE",
"105 -200 LINE",
"195 -200 LINE",
"235 0 LINE"
);
},
{
closed = 1;
nodes = (
"105 -200 LINE",
"65 -400 LINE",
"155 -400 LINE",
"195 -200 LINE"
);
},
{
closed = 1;
nodes = (
"368 60 LINE",
"483 60 OFFCURVE",
"572 140 OFFCURVE",
"592 240 CURVE",
"502 240 LINE",
"488 170 OFFCURVE",
"436 120 OFFCURVE",
"380 120 CURVE"
);
},
{
closed = 1;
nodes = (
"552 60 LINE",
"492 60 OFFCURVE",
"385 59 OFFCURVE",
"305 139 CURVE",
"269 85 LINE",
"349 5 OFFCURVE",
"480 0 OFFCURVE",
"540 0 CURVE"
);
}
);
width = 646;
}
);
},
{
glyphname = "ka-hira.fin";
lastChange = "2018-07-14 22:12:40 +0000";
layers = (
{
components = (
{
name = "kadotless-hira.fin";
}
);
layerId = "CDF314B6-AD07-4304-BC80-988178CB760F";
paths = (
{
closed = 1;
nodes = (
"381 260 OFFCURVE",
"403 282 OFFCURVE",
"403 310 CURVE SMOOTH",
"403 338 OFFCURVE",
"381 360 OFFCURVE",
"353 360 CURVE SMOOTH",
"325 360 OFFCURVE",
"303 338 OFFCURVE",
"303 310 CURVE SMOOTH",
"303 282 OFFCURVE",
"325 260 OFFCURVE",
"353 260 CURVE SMOOTH"
);
}
);
width = 543;
}
);
},
{
glyphname = "ki-hira.fin";
lastChange = "2018-07-14 22:14:49 +0000";
layers = (
{
components = (
{
name = "kidotless-hira.fin";
}
);
layerId = "CDF314B6-AD07-4304-BC80-988178CB760F";
paths = (
{
closed = 1;
nodes = (
"388 300 OFFCURVE",
"410 322 OFFCURVE",
"410 350 CURVE SMOOTH",
"410 378 OFFCURVE",
"388 400 OFFCURVE",
"360 400 CURVE SMOOTH",
"332 400 OFFCURVE",
"310 378 OFFCURVE",
"310 350 CURVE SMOOTH",
"310 322 OFFCURVE",
"332 300 OFFCURVE",
"360 300 CURVE SMOOTH"
);
}
);
width = 667;
}
);
},
{
glyphname = "ku-hira.fin";
lastChange = "2018-07-16 17:34:15 +0000";
layers = (
{
anchors = (
{
name = daku;
position = "{307, 246}";
}
);
layerId = "CDF314B6-AD07-4304-BC80-988178CB760F";
paths = (
{
closed = 1;
nodes = (
"307 246 LINE",
"231 196 OFFCURVE",
"203 147 OFFCURVE",
"203 96 CURVE SMOOTH",
"203 74 OFFCURVE",
"208 52 OFFCURVE",
"217 30 CURVE",
"307 30 LINE",
"293 66 OFFCURVE",
"280 94 OFFCURVE",
"280 121 CURVE SMOOTH",
"280 151 OFFCURVE",
"296 178 OFFCURVE",
"343 210 CURVE"
);
},
{
closed = 1;
nodes = (
"0 0 LINE",
"36 0 OFFCURVE",
"64 24 OFFCURVE",
"100 48 CURVE",
"64 84 LINE",
"46 72 OFFCURVE",
"30 60 OFFCURVE",
"12 60 CURVE"
);
},
{
closed = 1;
nodes = (
"100 48 LINE",
"343 210 LINE",
"307 246 LINE",
"64 84 LINE"
);
},
{
closed = 1;
nodes = (
"343 210 LINE",
"424 264 LINE",
"388 300 LINE",
"307 246 LINE"
);
},
{
closed = 1;
nodes = (
"217 -186 LINE",
"460 -24 LINE",
"424 12 LINE",
"181 -150 LINE"
);
},
{
closed = 1;
nodes = (
"217 -186 LINE",
"293 -136 OFFCURVE",
"321 -87 OFFCURVE",
"321 -36 CURVE SMOOTH",
"321 -14 OFFCURVE",
"316 8 OFFCURVE",
"307 30 CURVE",
"217 30 LINE",
"231 -6 OFFCURVE",
"244 -34 OFFCURVE",
"244 -61 CURVE SMOOTH",
"244 -91 OFFCURVE",
"228 -118 OFFCURVE",
"181 -150 CURVE"
);
},
{
closed = 1;
nodes = (
"136 -240 LINE",
"217 -186 LINE",
"181 -150 LINE",
"100 -204 LINE"
);
},
{
closed = 1;
nodes = (
"460 -24 LINE",
"541 30 LINE",
"505 66 LINE",
"424 12 LINE"
);
}
);
width = 591;
}
);
},
{
glyphname = "ke-hira.fin";
lastChange = "2018-07-16 17:34:15 +0000";
layers = (
{
anchors = (
{
name = daku;
position = "{182, 200}";
}
);
layerId = "CDF314B6-AD07-4304-BC80-988178CB760F";
paths = (
{
closed = 1;
nodes = (
"324 12 LINE",
"0 -204 LINE",
"36 -240 LINE",
"360 -24 LINE"
);
},
{
closed = 1;
nodes = (
"424 60 LINE",
"388 60 OFFCURVE",
"360 36 OFFCURVE",
"324 12 CURVE",
"360 -24 LINE",
"378 -12 OFFCURVE",
"394 0 OFFCURVE",
"412 0 CURVE"
);
},
{
closed = 1;
nodes = (
"282 -200 LINE",
"322 0 LINE",
"232 0 LINE",
"192 -200 LINE"
);
},
{
closed = 1;
nodes = (
"0 0 LINE",
"45 0 OFFCURVE",
"88 -41 OFFCURVE",
"88 -86 CURVE SMOOTH",
"88 -90 OFFCURVE",
"88 -94 OFFCURVE",
"87 -99 CURVE",
"177 -99 LINE",
"179 -89 OFFCURVE",
"180 -79 OFFCURVE",
"180 -70 CURVE SMOOTH",
"180 12 OFFCURVE",
"104 60 OFFCURVE",
"12 60 CURVE"
);
},
{
closed = 1;
nodes = (
"96 -200 OFFCURVE",
"164 -156 OFFCURVE",
"177 -99 CURVE",
"87 -99 LINE",
"77 -149 OFFCURVE",
"45 -174 OFFCURVE",
"0 -204 CURVE",
"36 -240 LINE"
);
},
{
closed = 1;
nodes = (
"322 0 LINE",
"362 200 LINE",
"272 200 LINE",
"232 0 LINE"
);
},
{
closed = 1;
nodes = (
"242 -400 LINE",
"282 -200 LINE",
"192 -200 LINE",
"152 -400 LINE"
);
}
);
width = 474;
}
);
},
{
glyphname = "ko-hira.fin";
lastChange = "2018-07-16 17:34:15 +0000";
layers = (
{
anchors = (
{
name = daku;
position = "{213, 430}";
}
);
layerId = "CDF314B6-AD07-4304-BC80-988178CB760F";
paths = (
{
closed = 1;
nodes = (
"285 200 LINE",
"305 300 LINE",
"201 230 LINE",
"195 200 LINE"
);
},
{
closed = 1;
nodes = (
"255 212 OFFCURVE",
"307 257 OFFCURVE",
"307 320 CURVE SMOOTH",
"307 379 OFFCURVE",
"256 432 OFFCURVE",
"189 432 CURVE SMOOTH",
"129 432 OFFCURVE",
"77 386 OFFCURVE",
"77 324 CURVE SMOOTH",
"77 265 OFFCURVE",
"126 212 OFFCURVE",
"194 212 CURVE SMOOTH"
);
},
{
closed = 1;
nodes = (
"143 354 OFFCURVE",
"167 382 OFFCURVE",
"195 382 CURVE SMOOTH",
"222 382 OFFCURVE",
"242 356 OFFCURVE",
"242 325 CURVE SMOOTH",
"242 290 OFFCURVE",
"216 261 OFFCURVE",
"187 261 CURVE SMOOTH",
"160 261 OFFCURVE",
"143 287 OFFCURVE",
"143 318 CURVE SMOOTH"
);
},
{
closed = 1;
nodes = (
"195 200 LINE",
"408 200 LINE",
"420 260 LINE",
"207 260 LINE"
);
},
{
closed = 1;
nodes = (
"0 0 LINE",
"115 0 OFFCURVE",
"232 63 OFFCURVE",
"276 200 CURVE",
"195 200 LINE",
"159 95 OFFCURVE",
"68 60 OFFCURVE",
"12 60 CURVE"
);
},
{
closed = 1;
nodes = (
"425 60 LINE",
"404 60 OFFCURVE",
"397 79 OFFCURVE",
"397 111 CURVE SMOOTH",
"397 135 OFFCURVE",
"401 166 OFFCURVE",
"408 200 CURVE",
"327 200 LINE",
"319 158 OFFCURVE",
"314 123 OFFCURVE",
"314 95 CURVE SMOOTH",
"314 29 OFFCURVE",
"340 0 OFFCURVE",
"413 0 CURVE"
);
},
{
closed = 1;
nodes = (
"413 0 LINE",
"482 0 OFFCURVE",
"526 28 OFFCURVE",
"565 88 CURVE",
"573 134 LINE",
"513 79 OFFCURVE",
"482 60 OFFCURVE",
"425 60 CURVE"
);
}
);
width = 623;
}
);
},
{
glyphname = "sa-hira.fin";
lastChange = "2018-07-16 17:34:15 +0000";
layers = (
{
anchors = (
{
name = daku;
position = "{305, 440}";
}
);
layerId = "CDF314B6-AD07-4304-BC80-988178CB760F";
paths = (
{
closed = 1;
nodes = (
"579 322 OFFCURVE",
"580 329 OFFCURVE",
"580 335 CURVE SMOOTH",
"580 403 OFFCURVE",
"508 440 OFFCURVE",
"435 440 CURVE",
"423 380 LINE",
"474 380 OFFCURVE",
"489 355 OFFCURVE",
"489 329 CURVE SMOOTH",
"489 324 OFFCURVE",
"489 320 OFFCURVE",
"488 315 CURVE",
"578 315 LINE"
);
},
{
closed = 1;
nodes = (
"314 190 LINE",
"429 190 OFFCURVE",
"558 215 OFFCURVE",
"578 315 CURVE",
"488 315 LINE",
"478 265 OFFCURVE",
"382 250 OFFCURVE",
"326 250 CURVE"
);
},
{
closed = 1;
nodes = (
"261 250 LINE",
"249 190 LINE",
"314 190 LINE",
"326 250 LINE"
);
},
{
closed = 1;
nodes = (
"435 440 LINE",
"368 440 OFFCURVE",
"309 410 OFFCURVE",
"264 359 CURVE",
"266 354 OFFCURVE",
"267 348 OFFCURVE",
"267 342 CURVE SMOOTH",
"267 310 OFFCURVE",
"242 271 OFFCURVE",
"206 253 CURVE",
"204 242 OFFCURVE",
"200 231 OFFCURVE",
"198 220 CURVE",
"288 220 LINE",
"308 320 OFFCURVE",
"367 380 OFFCURVE",
"423 380 CURVE"
);
},
{
closed = 1;
nodes = (
"395 60 LINE",
"343 60 OFFCURVE",
"284 98 OFFCURVE",
"284 180 CURVE SMOOTH",
"284 192 OFFCURVE",
"285 206 OFFCURVE",
"288 220 CURVE",
"198 220 LINE",
"195 203 OFFCURVE",
"193 187 OFFCURVE",
"193 172 CURVE SMOOTH",
"193 48 OFFCURVE",
"303 0 OFFCURVE",
"383 0 CURVE"
);
},
{
closed = 1;
nodes = (
"383 0 LINE",
"452 0 OFFCURVE",
"496 28 OFFCURVE",
"535 88 CURVE",
"543 134 LINE",
"483 79 OFFCURVE",
"452 60 OFFCURVE",
"395 60 CURVE"
);
},
{
closed = 1;
nodes = (
"255 212 OFFCURVE",
"307 257 OFFCURVE",
"307 320 CURVE SMOOTH",
"307 379 OFFCURVE",
"256 432 OFFCURVE",
"189 432 CURVE SMOOTH",
"129 432 OFFCURVE",
"77 386 OFFCURVE",
"77 324 CURVE SMOOTH",
"77 265 OFFCURVE",
"126 212 OFFCURVE",
"194 212 CURVE SMOOTH"
);
},
{
closed = 1;
nodes = (
"143 354 OFFCURVE",
"167 382 OFFCURVE",
"195 382 CURVE SMOOTH",
"222 382 OFFCURVE",
"242 356 OFFCURVE",
"242 325 CURVE SMOOTH",
"242 290 OFFCURVE",
"216 261 OFFCURVE",
"187 261 CURVE SMOOTH",
"160 261 OFFCURVE",
"143 287 OFFCURVE",
"143 318 CURVE SMOOTH"
);
},
{
closed = 1;
nodes = (
"0 0 LINE",
"120 0 OFFCURVE",
"202 97 OFFCURVE",
"218 177 CURVE",
"195 200 LINE",
"179 120 OFFCURVE",
"69 60 OFFCURVE",
"12 60 CURVE"
);
}
);
width = 630;
}
);
},
{
glyphname = "si-hira.fin";
lastChange = "2018-07-16 17:34:15 +0000";
layers = (
{
anchors = (
{
name = daku;
position = "{325, 440}";
}
);
layerId = "CDF314B6-AD07-4304-BC80-988178CB760F";
paths = (
{
closed = 1;
nodes = (
"66 134 LINE",
"89 88 LINE",
"176 306 LINE",
"153 352 LINE"
);
},
{
closed = 1;
nodes = (
"0 0 LINE",
"36 0 OFFCURVE",
"65 28 OFFCURVE",
"89 88 CURVE",
"66 134 LINE",
"42 74 OFFCURVE",
"30 60 OFFCURVE",
"12 60 CURVE"
);
},
{
closed = 1;
nodes = (
"325 440 LINE",
"256 440 OFFCURVE",
"177 412 OFFCURVE",
"153 352 CURVE",
"176 306 LINE",
"196 356 OFFCURVE",
"256 380 OFFCURVE",
"313 380 CURVE"
);
},
{
closed = 1;
nodes = (
"446 132 OFFCURVE",
"447 139 OFFCURVE",
"447 145 CURVE SMOOTH",
"447 213 OFFCURVE",
"375 250 OFFCURVE",
"302 250 CURVE",
"216 250 LINE",
"204 190 LINE",
"290 190 LINE",
"341 190 OFFCURVE",
"356 165 OFFCURVE",
"356 139 CURVE SMOOTH",
"356 134 OFFCURVE",
"356 130 OFFCURVE",
"355 125 CURVE",
"445 125 LINE"
);
},
{
closed = 1;
nodes = (
"252 0 LINE",
"367 0 OFFCURVE",
"425 25 OFFCURVE",
"445 125 CURVE",
"355 125 LINE",
"345 75 OFFCURVE",
"320 60 OFFCURVE",
"264 60 CURVE"
);
},
{
closed = 1;
nodes = (
"469 322 OFFCURVE",
"470 329 OFFCURVE",
"470 335 CURVE SMOOTH",
"470 403 OFFCURVE",
"398 440 OFFCURVE",
"325 440 CURVE",
"313 380 LINE",
"364 380 OFFCURVE",
"379 355 OFFCURVE",
"379 329 CURVE SMOOTH",
"379 324 OFFCURVE",
"379 320 OFFCURVE",
"378 315 CURVE",
"468 315 LINE"
);
},
{
closed = 1;
nodes = (
"204 190 LINE",
"319 190 OFFCURVE",
"449 215 OFFCURVE",
"468 315 CURVE",
"378 315 LINE",
"368 265 OFFCURVE",
"272 250 OFFCURVE",
"216 250 CURVE"
);
},
{
closed = 1;
nodes = (
"150 20 LINE",
"166 8 OFFCURVE",
"236 0 OFFCURVE",
"252 0 CURVE",
"264 60 LINE",
"248 60 OFFCURVE",
"178 68 OFFCURVE",
"162 80 CURVE"
);
},
{
closed = 1;
nodes = (
"252 0 LINE",
"420 0 LINE",
"432 60 LINE",
"264 60 LINE"
);
},
{
closed = 1;
nodes = (
"420 0 LINE",
"489 0 OFFCURVE",
"533 28 OFFCURVE",
"572 88 CURVE",
"580 134 LINE",
"520 79 OFFCURVE",
"489 60 OFFCURVE",
"432 60 CURVE"
);
}
);
width = 630;
}
);
},
{
glyphname = "su-hira.fin";
lastChange = "2018-07-16 17:34:15 +0000";
layers = (
{
anchors = (
{
name = daku;
position = "{161, 60}";
}
);
layerId = "CDF314B6-AD07-4304-BC80-988178CB760F";
paths = (
{
closed = 1;
nodes = (
"12 60 LINE",
"0 0 LINE",
"323 0 LINE",
"335 60 LINE"
);
},
{
closed = 1;
nodes = (
"173 -30 LINE",
"115 -30 OFFCURVE",
"86 -58 OFFCURVE",
"62 -118 CURVE",
"85 -164 LINE",
"109 -104 OFFCURVE",
"131 -90 OFFCURVE",
"161 -90 CURVE"
);
},
{
closed = 1;
nodes = (
"161 -90 LINE",
"183 -90 OFFCURVE",
"199 -109 OFFCURVE",
"199 -150 CURVE SMOOTH",
"199 -164 OFFCURVE",
"197 -181 OFFCURVE",
"193 -200 CURVE SMOOTH",
"163 -350 OFFCURVE",
"16 -490 OFFCURVE",
"-44 -490 CURVE",
"-56 -550 LINE",
"34 -550 OFFCURVE",
"243 -400 OFFCURVE",
"283 -200 CURVE SMOOTH",
"286 -186 OFFCURVE",
"287 -173 OFFCURVE",
"287 -160 CURVE SMOOTH",
"287 -84 OFFCURVE",
"241 -30 OFFCURVE",
"173 -30 CURVE"
);
}
);
width = 385;
}
);
},
{
glyphname = "se-hira.fin";
lastChange = "2018-07-14 13:06:54 +0000";
layers = (
{
anchors = (
{
name = daku;
position = "{210, 400}";
}
);
layerId = "CDF314B6-AD07-4304-BC80-988178CB760F";
paths = (
{
closed = 1;
nodes = (
"0 0 LINE",
"36 0 OFFCURVE",
"66 8 OFFCURVE",
"106 48 CURVE",
"76 108 LINE",
"46 78 OFFCURVE",
"30 60 OFFCURVE",
"12 60 CURVE"
);
},
{
closed = 1;
nodes = (
"106 48 LINE",
"406 348 LINE",
"376 408 LINE",
"76 108 LINE"
);
},
{
closed = 1;
nodes = (
"406 348 LINE",
"438 380 LINE",
"458 400 LINE",
"466 440 LINE",
"408 440 LINE",
"376 408 LINE"
);
},
{
closed = 1;
nodes = (
"368 400 LINE",
"328 200 LINE",
"418 200 LINE",
"458 400 LINE"
);
},
{
closed = 1;
nodes = (
"328 200 LINE",
"288 0 LINE",
"378 0 LINE",
"418 200 LINE"
);
},
{
closed = 1;
nodes = (
"210 0 LINE",
"325 0 OFFCURVE",
"383 25 OFFCURVE",
"403 125 CURVE",
"313 125 LINE",
"303 75 OFFCURVE",
"278 60 OFFCURVE",
"222 60 CURVE"
);
},
{
closed = 1;
nodes = (
"210 0 LINE",
"423 0 LINE",
"435 60 LINE",
"222 60 LINE"
);
}
);
width = 516;
}
);
},
{
glyphname = "so-hira.fin";
lastChange = "2018-07-16 17:34:15 +0000";
layers = (
{
anchors = (
{
name = daku;
position = "{367, 440}";
}
);
layerId = "CDF314B6-AD07-4304-BC80-988178CB760F";
paths = (
{
closed = 1;
nodes = (
"610 259 OFFCURVE",
"612 277 OFFCURVE",
"612 293 CURVE SMOOTH",
"612 393 OFFCURVE",
"556 440 OFFCURVE",
"467 440 CURVE SMOOTH",
"398 440 OFFCURVE",
"354 412 OFFCURVE",
"315 352 CURVE",
"307 306 LINE",
"367 361 OFFCURVE",
"398 380 OFFCURVE",
"455 380 CURVE SMOOTH",
"494 380 OFFCURVE",
"522 357 OFFCURVE",
"522 294 CURVE SMOOTH",
"522 278 OFFCURVE",
"521 261 OFFCURVE",
"517 240 CURVE",
"607 240 LINE"
);
},
{
closed = 1;
nodes = (
"241 200 LINE",
"201 0 LINE",
"291 0 LINE",
"331 200 LINE"
);
},
{
closed = 1;
nodes = (
"618 60 LINE",
"598 60 OFFCURVE",
"590 82 OFFCURVE",
"590 114 CURVE SMOOTH",
"590 139 OFFCURVE",
"595 169 OFFCURVE",
"601 200 CURVE",
"511 200 LINE",
"505 164 OFFCURVE",
"502 134 OFFCURVE",
"502 108 CURVE SMOOTH",
"502 34 OFFCURVE",
"529 0 OFFCURVE",
"606 0 CURVE"
);
},
{
closed = 1;
nodes = (
"606 0 LINE",
"675 0 OFFCURVE",
"719 28 OFFCURVE",
"758 88 CURVE",
"766 134 LINE",
"706 79 OFFCURVE",
"675 60 OFFCURVE",
"618 60 CURVE"
);
},
{
closed = 1;
nodes = (
"230 380 LINE",
"250 380 OFFCURVE",
"258 358 OFFCURVE",
"258 326 CURVE SMOOTH",
"258 301 OFFCURVE",
"253 271 OFFCURVE",
"247 240 CURVE",
"337 240 LINE",
"343 276 OFFCURVE",
"346 306 OFFCURVE",
"346 332 CURVE SMOOTH",
"346 406 OFFCURVE",
"319 440 OFFCURVE",
"242 440 CURVE"
);
},
{
closed = 1;
nodes = (
"241 200 LINE",
"331 200 LINE",
"337 240 LINE",
"247 240 LINE"
);
},
{
closed = 1;
nodes = (
"511 200 LINE",
"601 200 LINE",
"607 240 LINE",
"517 240 LINE"
);
},
{
closed = 1;
nodes = (
"66 134 LINE",
"89 88 LINE",
"176 306 LINE",
"153 352 LINE"
);
},
{
closed = 1;
nodes = (
"0 0 LINE",
"36 0 OFFCURVE",
"65 28 OFFCURVE",
"89 88 CURVE",
"66 134 LINE",
"42 74 OFFCURVE",
"30 60 OFFCURVE",
"12 60 CURVE"
);
},
{
closed = 1;
nodes = (
"242 440 LINE",
"206 440 OFFCURVE",
"177 412 OFFCURVE",
"153 352 CURVE",
"176 306 LINE",
"200 366 OFFCURVE",
"212 380 OFFCURVE",
"230 380 CURVE"
);
}
);
width = 816;
}
);
},
{
glyphname = "ta-hira.fin";
lastChange = "2018-07-16 17:34:15 +0000";
layers = (
{
anchors = (
{
name = daku;
position = "{440, 800}";
}
);
layerId = "CDF314B6-AD07-4304-BC80-988178CB760F";
paths = (
{
closed = 1;
nodes = (
"550 0 LINE",
"619 0 OFFCURVE",
"663 28 OFFCURVE",
"702 88 CURVE",
"710 134 LINE",
"650 79 OFFCURVE",
"619 60 OFFCURVE",
"562 60 CURVE"
);
},
{
closed = 1;
nodes = (
"548 219 OFFCURVE",
"550 237 OFFCURVE",
"550 253 CURVE SMOOTH",
"550 353 OFFCURVE",
"494 400 OFFCURVE",
"405 400 CURVE SMOOTH",
"336 400 OFFCURVE",
"292 372 OFFCURVE",
"253 312 CURVE",
"245 266 LINE",
"305 321 OFFCURVE",
"336 340 OFFCURVE",
"393 340 CURVE SMOOTH",
"432 340 OFFCURVE",
"460 317 OFFCURVE",
"460 254 CURVE SMOOTH",
"460 238 OFFCURVE",
"459 221 OFFCURVE",
"455 200 CURVE",
"545 200 LINE"
);
},
{
closed = 1;
nodes = (
"185 200 LINE",
"145 0 LINE",
"235 0 LINE",
"275 200 LINE"
);
},
{
closed = 1;
nodes = (
"562 60 LINE",
"542 60 OFFCURVE",
"534 82 OFFCURVE",
"534 114 CURVE SMOOTH",
"534 139 OFFCURVE",
"539 169 OFFCURVE",
"545 200 CURVE",
"455 200 LINE",
"449 164 OFFCURVE",
"446 134 OFFCURVE",
"446 108 CURVE SMOOTH",
"446 34 OFFCURVE",
"473 0 OFFCURVE",
"550 0 CURVE"
);
},
{
closed = 1;
nodes = (
"225 400 LINE",
"185 200 LINE",
"275 200 LINE",
"315 400 LINE"
);
},
{
closed = 1;
nodes = (
"265 600 LINE",
"225 400 LINE",
"315 400 LINE",
"355 600 LINE"
);
},
{
closed = 1;
nodes = (
"215 185 LINE",
"245 245 OFFCURVE",
"472 626 OFFCURVE",
"489 710 CURVE SMOOTH",
"492 724 OFFCURVE",
"493 736 OFFCURVE",
"493 747 CURVE SMOOTH",
"493 782 OFFCURVE",
"477 800 OFFCURVE",
"440 800 CURVE SMOOTH",
"348 800 OFFCURVE",
"291 727 OFFCURVE",
"265 600 CURVE",
"355 600 LINE",
"370 683 OFFCURVE",
"407 740 OFFCURVE",
"428 740 CURVE SMOOTH",
"443 740 OFFCURVE",
"449 734 OFFCURVE",
"449 721 CURVE SMOOTH",
"449 718 OFFCURVE",
"449 714 OFFCURVE",
"448 710 CURVE SMOOTH",
"434 639 OFFCURVE",
"215 260 OFFCURVE",
"185 200 CURVE"
);
},
{
closed = 1;
nodes = (
"0 0 LINE",
"60 0 OFFCURVE",
"210 235 OFFCURVE",
"235 285 CURVE",
"205 300 LINE",
"180 250 OFFCURVE",
"60 60 OFFCURVE",
"12 60 CURVE"
);
}
);
width = 760;
}
);
},
{
glyphname = "ti-hira.fin";
lastChange = "2018-07-16 17:34:15 +0000";
layers = (
{
anchors = (
{
name = daku;
position = "{283, 410}";
}
);
layerId = "CDF314B6-AD07-4304-BC80-988178CB760F";
paths = (
{
closed = 1;
nodes = (
"247 0 LINE",
"197 -250 OFFCURVE",
"60 -340 OFFCURVE",
"0 -340 CURVE",
"-12 -400 LINE",
"78 -400 OFFCURVE",
"277 -300 OFFCURVE",
"337 0 CURVE"
);
},
{
closed = 1;
nodes = (
"0 -340 LINE",
"-24 -340 OFFCURVE",
"-42 -325 OFFCURVE",
"-54 -313 CURVE",
"-99 -358 LINE",
"-75 -382 OFFCURVE",
"-48 -400 OFFCURVE",
"-12 -400 CURVE"
);
},
{
closed = 1;
nodes = (
"228 135 LINE",
"208 115 LINE",
"232 91 OFFCURVE",
"250 70 OFFCURVE",
"250 32 CURVE SMOOTH",
"250 22 OFFCURVE",
"249 12 OFFCURVE",
"247 0 CURVE",
"337 0 LINE",
"339 11 OFFCURVE",
"340 21 OFFCURVE",
"340 30 CURVE SMOOTH",
"340 85 OFFCURVE",
"300 103 OFFCURVE",
"248 155 CURVE"
);
},
{
closed = 1;
nodes = (
"294 350 OFFCURVE",
"305 333 OFFCURVE",
"305 304 CURVE SMOOTH",
"305 294 OFFCURVE",
"304 283 OFFCURVE",
"301 270 CURVE",
"391 270 LINE",
"393 281 OFFCURVE",
"394 292 OFFCURVE",
"394 302 CURVE SMOOTH",
"394 365 OFFCURVE",
"352 410 OFFCURVE",
"283 410 CURVE",
"271 350 LINE"
);
},
{
closed = 1;
nodes = (
"281 170 OFFCURVE",
"64 60 OFFCURVE",
"12 60 CURVE",
"0 0 LINE",
"75 0 OFFCURVE",
"366 145 OFFCURVE",
"391 270 CURVE",
"301 270 LINE"
);
},
{
closed = 1;
nodes = (
"248 155 LINE",
"224 179 OFFCURVE",
"206 200 OFFCURVE",
"206 238 CURVE SMOOTH",
"206 248 OFFCURVE",
"207 258 OFFCURVE",
"209 270 CURVE",
"119 270 LINE",
"117 259 OFFCURVE",
"116 249 OFFCURVE",
"116 240 CURVE SMOOTH",
"116 185 OFFCURVE",
"156 167 OFFCURVE",
"208 115 CURVE"
);
},
{
closed = 1;
nodes = (
"283 410 LINE",
"203 410 OFFCURVE",
"135 350 OFFCURVE",
"119 270 CURVE",
"209 270 LINE",
"221 320 OFFCURVE",
"241 350 OFFCURVE",
"271 350 CURVE"
);
}
);
width = 444;
}
);
},
{
glyphname = "tu-hira.fin";
lastChange = "2018-07-16 17:34:15 +0000";
layers = (
{
anchors = (
{
name = daku;
position = "{266, 220}";
}
);
layerId = "CDF314B6-AD07-4304-BC80-988178CB760F";
paths = (
{
closed = 1;
nodes = (
"70 -102 OFFCURVE",
"69 -109 OFFCURVE",
"69 -115 CURVE SMOOTH",
"69 -183 OFFCURVE",
"141 -220 OFFCURVE",
"214 -220 CURVE",
"226 -160 LINE",
"175 -160 OFFCURVE",
"160 -135 OFFCURVE",
"160 -109 CURVE SMOOTH",
"160 -104 OFFCURVE",
"160 -100 OFFCURVE",
"161 -95 CURVE",
"71 -95 LINE"
);
},
{
closed = 1;
nodes = (
"214 -220 LINE",
"329 -220 OFFCURVE",
"425 -130 OFFCURVE",
"451 0 CURVE",
"361 0 LINE",
"341 -100 OFFCURVE",
"282 -160 OFFCURVE",
"226 -160 CURVE"
);
},
{
closed = 1;
nodes = (
"361 0 LINE",
"373 60 LINE",
"294 60 LINE",
"282 0 LINE"
);
},
{
closed = 1;
nodes = (
"294 60 LINE",
"174 60 OFFCURVE",
"87 -15 OFFCURVE",
"71 -95 CURVE",
"161 -95 LINE",
"171 -45 OFFCURVE",
"222 0 OFFCURVE",
"282 0 CURVE"
);
},
{
closed = 1;
nodes = (
"254 160 LINE",
"306 160 OFFCURVE",
"365 122 OFFCURVE",
"365 40 CURVE SMOOTH",
"365 28 OFFCURVE",
"364 14 OFFCURVE",
"361 0 CURVE",
"451 0 LINE",
"454 17 OFFCURVE",
"456 33 OFFCURVE",
"456 48 CURVE SMOOTH",
"456 172 OFFCURVE",
"346 220 OFFCURVE",
"266 220 CURVE"
);
},
{
closed = 1;
nodes = (
"266 220 LINE",
"197 220 OFFCURVE",
"134 192 OFFCURVE",
"94 132 CURVE",
"106 86 LINE",
"142 141 OFFCURVE",
"197 160 OFFCURVE",
"254 160 CURVE"
);
},
{
closed = 1;
nodes = (
"0 0 LINE",
"36 0 OFFCURVE",
"66 26 OFFCURVE",
"106 86 CURVE",
"94 132 LINE",
"54 72 OFFCURVE",
"30 60 OFFCURVE",
"12 60 CURVE"
);
}
);
width = 506;
}
);
},
{
glyphname = "tusmall-hira.fin";
lastChange = "2018-07-16 07:44:05 +0000";
layers = (
{
layerId = "CDF314B6-AD07-4304-BC80-988178CB760F";
paths = (
{
closed = 1;
nodes = (
"12 60 LINE",
"0 0 LINE",
"323 0 LINE",
"335 60 LINE"
);
},
{
closed = 1;
nodes = (
"252 280 OFFCURVE",
"286 314 OFFCURVE",
"286 355 CURVE SMOOTH",
"286 396 OFFCURVE",
"252 430 OFFCURVE",
"211 430 CURVE SMOOTH",
"170 430 OFFCURVE",
"136 396 OFFCURVE",
"136 355 CURVE SMOOTH",
"136 314 OFFCURVE",
"170 280 OFFCURVE",
"211 280 CURVE SMOOTH"
);
},
{
closed = 1;
nodes = (
"238 238 OFFCURVE",
"286 310 OFFCURVE",
"286 355 CURVE",
"211 355 LINE",
"196 280 OFFCURVE",
"184 265 OFFCURVE",
"136 205 CURVE",
"190 178 LINE"
);
}
);
width = 385;
}
);
},
{
glyphname = "te-hira.fin";
lastChange = "2018-07-16 17:34:15 +0000";
layers = (
{
anchors = (
{
name = daku;
position = "{193, 408}";
}
);
layerId = "CDF314B6-AD07-4304-BC80-988178CB760F";
paths = (
{
closed = 1;
nodes = (
"0 0 LINE",
"36 0 OFFCURVE",
"66 8 OFFCURVE",
"106 48 CURVE",
"76 108 LINE",
"46 78 OFFCURVE",
"30 60 OFFCURVE",
"12 60 CURVE"
);
},
{
closed = 1;
nodes = (
"376 408 LINE",
"316 348 OFFCURVE",
"208 238 OFFCURVE",
"193 163 CURVE",
"283 163 LINE",
"298 238 OFFCURVE",
"366 308 OFFCURVE",
"406 348 CURVE"
);
},
{
closed = 1;
nodes = (
"391 60 LINE",
"331 60 OFFCURVE",
"281 82 OFFCURVE",
"281 139 CURVE SMOOTH",
"281 147 OFFCURVE",
"281 155 OFFCURVE",
"283 163 CURVE",
"193 163 LINE",
"191 152 OFFCURVE",
"190 141 OFFCURVE",
"190 131 CURVE SMOOTH",
"190 35 OFFCURVE",
"288 0 OFFCURVE",
"379 0 CURVE"
);
},
{
closed = 1;
nodes = (
"434 135 OFFCURVE",
"456 157 OFFCURVE",
"456 185 CURVE SMOOTH",
"456 213 OFFCURVE",
"434 235 OFFCURVE",
"406 235 CURVE SMOOTH",
"378 235 OFFCURVE",
"356 213 OFFCURVE",
"356 185 CURVE SMOOTH",
"356 157 OFFCURVE",
"378 135 OFFCURVE",
"406 135 CURVE SMOOTH"
);
},
{
closed = 1;
nodes = (
"106 48 LINE",
"406 348 LINE",
"376 408 LINE",
"76 108 LINE"
);
},
{
closed = 1;
nodes = (
"406 348 LINE",
"438 380 LINE",
"408 440 LINE",
"376 408 LINE"
);
},
{
closed = 1;
nodes = (
"379 0 LINE",
"448 0 OFFCURVE",
"492 28 OFFCURVE",
"531 88 CURVE",
"539 134 LINE",
"479 79 OFFCURVE",
"448 60 OFFCURVE",
"391 60 CURVE"
);
}
);
width = 589;
}
);
},
{
glyphname = "to-hira.fin";
lastChange = "2018-07-16 17:34:15 +0000";
layers = (
{
anchors = (
{
name = daku;
position = "{193, 408}";
}
);
layerId = "CDF314B6-AD07-4304-BC80-988178CB760F";
paths = (
{
closed = 1;
nodes = (
"0 0 LINE",
"36 0 OFFCURVE",
"66 8 OFFCURVE",
"106 48 CURVE",
"76 108 LINE",
"46 78 OFFCURVE",
"30 60 OFFCURVE",
"12 60 CURVE"
);
},
{
closed = 1;
nodes = (
"376 408 LINE",
"316 348 OFFCURVE",
"208 238 OFFCURVE",
"193 163 CURVE",
"283 163 LINE",
"298 238 OFFCURVE",
"366 308 OFFCURVE",
"406 348 CURVE"
);
},
{
closed = 1;
nodes = (
"391 60 LINE",
"331 60 OFFCURVE",
"281 82 OFFCURVE",
"281 139 CURVE SMOOTH",
"281 147 OFFCURVE",
"281 155 OFFCURVE",
"283 163 CURVE",
"193 163 LINE",
"191 152 OFFCURVE",
"190 141 OFFCURVE",
"190 131 CURVE SMOOTH",
"190 35 OFFCURVE",
"288 0 OFFCURVE",
"379 0 CURVE"
);
},
{
closed = 1;
nodes = (
"106 48 LINE",
"406 348 LINE",
"376 408 LINE",
"76 108 LINE"
);
},
{
closed = 1;
nodes = (
"406 348 LINE",
"438 380 LINE",
"408 440 LINE",
"376 408 LINE"
);
},
{
closed = 1;
nodes = (
"379 0 LINE",
"448 0 OFFCURVE",
"492 28 OFFCURVE",
"531 88 CURVE",
"539 134 LINE",
"479 79 OFFCURVE",
"448 60 OFFCURVE",
"391 60 CURVE"
);
}
);
width = 589;
}
);
},
{
glyphname = "na-hira.fin";
lastChange = "2018-07-16 17:34:15 +0000";
layers = (
{
layerId = "CDF314B6-AD07-4304-BC80-988178CB760F";
paths = (
{
closed = 1;
nodes = (
"335 0 LINE",
"404 0 OFFCURVE",
"448 28 OFFCURVE",
"487 88 CURVE",
"495 134 LINE",
"435 79 OFFCURVE",
"404 60 OFFCURVE",
"347 60 CURVE"
);
},
{
closed = 1;
nodes = (
"0 0 LINE",
"120 0 OFFCURVE",
"242 297 OFFCURVE",
"258 377 CURVE",
"235 400 LINE",
"219 320 OFFCURVE",
"69 60 OFFCURVE",
"12 60 CURVE"
);
},
{
closed = 1;
nodes = (
"235 400 LINE",
"195 200 LINE",
"285 200 LINE",
"325 400 LINE"
);
},
{
closed = 1;
nodes = (
"347 60 LINE",
"308 60 OFFCURVE",
"280 83 OFFCURVE",
"280 146 CURVE SMOOTH",
"280 162 OFFCURVE",
"281 179 OFFCURVE",
"285 200 CURVE",
"195 200 LINE",
"192 181 OFFCURVE",
"190 163 OFFCURVE",
"190 147 CURVE SMOOTH",
"190 47 OFFCURVE",
"246 0 OFFCURVE",
"335 0 CURVE"
);
}
);
width = 545;
}
);
},
{
glyphname = "ni-hira.fin";
lastChange = "2018-07-16 17:34:15 +0000";
layers = (
{
layerId = "CDF314B6-AD07-4304-BC80-988178CB760F";
paths = (
{
closed = 1;
nodes = (
"102 160 LINE",
"90 100 LINE",
"323 160 LINE",
"335 220 LINE"
);
},
{
closed = 1;
nodes = (
"12 60 LINE",
"0 0 LINE",
"323 0 LINE",
"335 60 LINE"
);
},
{
closed = 1;
nodes = (
"335 220 LINE",
"290 220 OFFCURVE",
"247 261 OFFCURVE",
"247 306 CURVE SMOOTH",
"247 310 OFFCURVE",
"247 314 OFFCURVE",
"248 319 CURVE",
"158 319 LINE",
"156 309 OFFCURVE",
"155 299 OFFCURVE",
"155 290 CURVE SMOOTH",
"155 208 OFFCURVE",
"231 160 OFFCURVE",
"323 160 CURVE"
);
},
{
closed = 1;
nodes = (
"239 420 OFFCURVE",
"171 376 OFFCURVE",
"158 319 CURVE",
"248 319 LINE",
"258 369 OFFCURVE",
"290 394 OFFCURVE",
"335 424 CURVE",
"299 460 LINE"
);
}
);
width = 385;
}
);
},
{
glyphname = "nu-hira.fin";
lastChange = "2018-07-16 17:34:15 +0000";
layers = (
{
layerId = "CDF314B6-AD07-4304-BC80-988178CB760F";
paths = (
{
closed = 1;
nodes = (
"104 212 OFFCURVE",
"103 196 OFFCURVE",
"103 181 CURVE SMOOTH",
"103 85 OFFCURVE",
"164 60 OFFCURVE",
"253 60 CURVE SMOOTH",
"322 60 OFFCURVE",
"366 88 OFFCURVE",
"405 148 CURVE",
"413 194 LINE",
"353 139 OFFCURVE",
"322 120 OFFCURVE",
"265 120 CURVE SMOOTH",
"225 120 OFFCURVE",
"192 123 OFFCURVE",
"192 183 CURVE SMOOTH",
"192 196 OFFCURVE",
"194 212 OFFCURVE",
"197 230 CURVE",
"107 230 LINE"
);
},
{
closed = 1;
nodes = (
"0 0 LINE",
"90 0 OFFCURVE",
"248 25 OFFCURVE",
"348 85 CURVE",
"361 150 LINE",
"281 90 OFFCURVE",
"57 60 OFFCURVE",
"12 60 CURVE"
);
},
{
closed = 1;
nodes = (
"331 0 LINE",
"297 -170 OFFCURVE",
"237 -340 OFFCURVE",
"174 -340 CURVE",
"162 -400 LINE",
"299 -400 OFFCURVE",
"365 -279 OFFCURVE",
"421 0 CURVE"
);
},
{
closed = 1;
nodes = (
"174 -340 LINE",
"150 -340 OFFCURVE",
"141 -327 OFFCURVE",
"141 -300 CURVE SMOOTH",
"141 -287 OFFCURVE",
"143 -270 OFFCURVE",
"147 -250 CURVE",
"57 -250 LINE",
"53 -272 OFFCURVE",
"50 -291 OFFCURVE",
"50 -309 CURVE SMOOTH",
"50 -370 OFFCURVE",
"81 -400 OFFCURVE",
"162 -400 CURVE"
);
},
{
closed = 1;
nodes = (
"493 60 LINE",
"359 62 OFFCURVE",
"97 -50 OFFCURVE",
"57 -250 CURVE",
"147 -250 LINE",
"172 -125 OFFCURVE",
"331 0 OFFCURVE",
"481 0 CURVE"
);
},
{
closed = 1;
nodes = (
"464 219 OFFCURVE",
"466 237 OFFCURVE",
"466 253 CURVE SMOOTH",
"466 353 OFFCURVE",
"410 400 OFFCURVE",
"321 400 CURVE SMOOTH",
"225 400 OFFCURVE",
"131 350 OFFCURVE",
"107 230 CURVE",
"197 230 LINE",
"209 290 OFFCURVE",
"252 340 OFFCURVE",
"309 340 CURVE SMOOTH",
"348 340 OFFCURVE",
"376 317 OFFCURVE",
"376 254 CURVE SMOOTH",
"376 238 OFFCURVE",
"375 221 OFFCURVE",
"371 200 CURVE",
"461 200 LINE"
);
},
{
closed = 1;
nodes = (
"361 150 LINE",
"348 85 LINE",
"331 0 LINE",
"421 0 LINE",
"461 200 LINE",
"371 200 LINE"
);
}
);
width = 543;
}
);
},
{
glyphname = "ne-hira.fin";
lastChange = "2018-07-16 17:34:15 +0000";
layers = (
{
layerId = "CDF314B6-AD07-4304-BC80-988178CB760F";
paths = (
{
closed = 1;
nodes = (
"414 200 LINE",
"454 400 LINE",
"364 400 LINE",
"324 200 LINE"
);
},
{
closed = 1;
nodes = (
"284 0 LINE",
"250 -170 OFFCURVE",
"190 -340 OFFCURVE",
"127 -340 CURVE",
"115 -400 LINE",
"252 -400 OFFCURVE",
"318 -279 OFFCURVE",
"374 0 CURVE"
);
},
{
closed = 1;
nodes = (
"127 -340 LINE",
"103 -340 OFFCURVE",
"94 -327 OFFCURVE",
"94 -300 CURVE SMOOTH",
"94 -287 OFFCURVE",
"96 -270 OFFCURVE",
"100 -250 CURVE",
"10 -250 LINE",
"6 -272 OFFCURVE",
"3 -291 OFFCURVE",
"3 -309 CURVE SMOOTH",
"3 -370 OFFCURVE",
"34 -400 OFFCURVE",
"115 -400 CURVE"
);
},
{
closed = 1;
nodes = (
"374 0 LINE",
"414 200 LINE",
"324 200 LINE",
"284 0 LINE"
);
},
{
closed = 1;
nodes = (
"446 60 LINE",
"312 62 OFFCURVE",
"50 -50 OFFCURVE",
"10 -250 CURVE",
"100 -250 LINE",
"125 -125 OFFCURVE",
"284 0 OFFCURVE",
"434 0 CURVE"
);
},
{
closed = 1;
nodes = (
"0 0 LINE",
"160 0 OFFCURVE",
"334 205 OFFCURVE",
"374 285 CURVE",
"344 300 LINE",
"304 220 OFFCURVE",
"130 60 OFFCURVE",
"12 60 CURVE"
);
}
);
width = 504;
}
);
},
{
glyphname = "no-hira.fin";
lastChange = "2018-07-16 17:34:15 +0000";
layers = (
{
layerId = "CDF314B6-AD07-4304-BC80-988178CB760F";
paths = (
{
closed = 1;
nodes = (
"66 134 LINE",
"89 88 LINE",
"176 306 LINE",
"153 352 LINE"
);
},
{
closed = 1;
nodes = (
"0 0 LINE",
"36 0 OFFCURVE",
"65 28 OFFCURVE",
"89 88 CURVE",
"66 134 LINE",
"42 74 OFFCURVE",
"30 60 OFFCURVE",
"12 60 CURVE"
);
},
{
closed = 1;
nodes = (
"325 440 LINE",
"256 440 OFFCURVE",
"177 412 OFFCURVE",
"153 352 CURVE",
"176 306 LINE",
"196 356 OFFCURVE",
"256 380 OFFCURVE",
"313 380 CURVE"
);
},
{
closed = 1;
nodes = (
"238 125 LINE",
"244 155 OFFCURVE",
"272 184 OFFCURVE",
"302 190 CURVE",
"314 250 LINE",
"274 242 OFFCURVE",
"164 205 OFFCURVE",
"148 125 CURVE"
);
},
{
closed = 1;
nodes = (
"469 322 OFFCURVE",
"470 329 OFFCURVE",
"470 335 CURVE SMOOTH",
"470 403 OFFCURVE",
"398 440 OFFCURVE",
"325 440 CURVE",
"313 380 LINE",
"364 380 OFFCURVE",
"379 355 OFFCURVE",
"379 329 CURVE SMOOTH",
"379 324 OFFCURVE",
"379 320 OFFCURVE",
"378 315 CURVE",
"468 315 LINE"
);
},
{
closed = 1;
nodes = (
"302 190 LINE",
"342 198 OFFCURVE",
"449 215 OFFCURVE",
"468 315 CURVE",
"378 315 LINE",
"372 285 OFFCURVE",
"344 256 OFFCURVE",
"314 250 CURVE"
);
},
{
closed = 0;
nodes = (
"308 220 LINE"
);
},
{
closed = 1;
nodes = (
"147 118 OFFCURVE",
"146 111 OFFCURVE",
"146 105 CURVE SMOOTH",
"146 37 OFFCURVE",
"218 0 OFFCURVE",
"291 0 CURVE",
"303 60 LINE",
"252 60 OFFCURVE",
"237 85 OFFCURVE",
"237 111 CURVE SMOOTH",
"237 116 OFFCURVE",
"237 120 OFFCURVE",
"238 125 CURVE",
"148 125 LINE"
);
},
{
closed = 1;
nodes = (
"291 0 LINE",
"360 0 OFFCURVE",
"404 28 OFFCURVE",
"443 88 CURVE",
"451 134 LINE",
"391 79 OFFCURVE",
"360 60 OFFCURVE",
"303 60 CURVE"
);
}
);
width = 520;
}
);
},
{
glyphname = "ha-hira.fin";
lastChange = "2018-07-16 17:34:15 +0000";
layers = (
{
anchors = (
{
name = daku;
position = "{297, 200}";
}
);
layerId = "CDF314B6-AD07-4304-BC80-988178CB760F";
paths = (
{
closed = 1;
nodes = (
"331 0 LINE",
"297 -170 OFFCURVE",
"237 -340 OFFCURVE",
"174 -340 CURVE",
"162 -400 LINE",
"299 -400 OFFCURVE",
"365 -279 OFFCURVE",
"421 0 CURVE"
);
},
{
closed = 1;
nodes = (
"513 220 LINE",
"393 160 OFFCURVE",
"97 -50 OFFCURVE",
"57 -250 CURVE",
"147 -250 LINE",
"179 -90 OFFCURVE",
"423 100 OFFCURVE",
"543 160 CURVE"
);
},
{
closed = 1;
nodes = (
"174 -340 LINE",
"150 -340 OFFCURVE",
"141 -327 OFFCURVE",
"141 -300 CURVE SMOOTH",
"141 -287 OFFCURVE",
"143 -270 OFFCURVE",
"147 -250 CURVE",
"57 -250 LINE",
"53 -272 OFFCURVE",
"50 -291 OFFCURVE",
"50 -309 CURVE SMOOTH",
"50 -370 OFFCURVE",
"81 -400 OFFCURVE",
"162 -400 CURVE"
);
},
{
closed = 1;
nodes = (
"219 200 OFFCURVE",
"48 60 OFFCURVE",
"12 60 CURVE",
"0 0 LINE",
"48 0 OFFCURVE",
"219 140 OFFCURVE",
"319 140 CURVE SMOOTH",
"342 140 OFFCURVE",
"350 132 OFFCURVE",
"350 113 CURVE SMOOTH",
"350 91 OFFCURVE",
"340 55 OFFCURVE",
"331 0 CURVE",
"421 0 LINE",
"429 47 OFFCURVE",
"435 85 OFFCURVE",
"435 115 CURVE SMOOTH",
"435 173 OFFCURVE",
"412 200 OFFCURVE",
"331 200 CURVE SMOOTH"
);
},
{
closed = 1;
nodes = (
"523 60 LINE",
"473 60 OFFCURVE",
"442 70 OFFCURVE",
"432 120 CURVE",
"372 60 LINE",
"401 20 OFFCURVE",
"446 0 OFFCURVE",
"511 0 CURVE"
);
},
{
closed = 1;
nodes = (
"511 0 LINE",
"580 0 OFFCURVE",
"624 28 OFFCURVE",
"663 88 CURVE",
"671 134 LINE",
"611 79 OFFCURVE",
"580 60 OFFCURVE",
"523 60 CURVE"
);
}
);
width = 721;
}
);
},
{
glyphname = "hi-hira.fin";
lastChange = "2018-07-16 17:34:15 +0000";
layers = (
{
anchors = (
{
name = daku;
position = "{305, 400}";
}
);
layerId = "CDF314B6-AD07-4304-BC80-988178CB760F";
paths = (
{
closed = 1;
nodes = (
"314 -5 OFFCURVE",
"267 -140 OFFCURVE",
"197 -140 CURVE SMOOTH",
"148 -140 OFFCURVE",
"135 -110 OFFCURVE",
"135 -50 CURVE",
"60 -50 LINE",
"60 -110 OFFCURVE",
"65 -200 OFFCURVE",
"185 -200 CURVE SMOOTH",
"305 -200 OFFCURVE",
"397 -40 OFFCURVE",
"425 100 CURVE",
"335 100 LINE"
);
},
{
closed = 1;
nodes = (
"0 0 LINE",
"30 0 OFFCURVE",
"60 0 OFFCURVE",
"60 -50 CURVE",
"135 -50 LINE",
"135 51 OFFCURVE",
"53 60 OFFCURVE",
"12 60 CURVE"
);
},
{
closed = 1;
nodes = (
"177 210 OFFCURVE",
"223 340 OFFCURVE",
"293 340 CURVE SMOOTH",
"335 340 OFFCURVE",
"348 292 OFFCURVE",
"348 230 CURVE SMOOTH",
"348 189 OFFCURVE",
"342 142 OFFCURVE",
"335 100 CURVE",
"425 100 LINE",
"430 130 OFFCURVE",
"433 162 OFFCURVE",
"433 192 CURVE SMOOTH",
"433 301 OFFCURVE",
"399 400 OFFCURVE",
"305 400 CURVE SMOOTH",
"185 400 OFFCURVE",
"95 250 OFFCURVE",
"75 150 CURVE",
"165 150 LINE"
);
},
{
closed = 1;
nodes = (
"417 60 LINE",
"406 60 OFFCURVE",
"386 59 OFFCURVE",
"363 59 CURVE SMOOTH",
"285 59 OFFCURVE",
"164 67 OFFCURVE",
"164 138 CURVE SMOOTH",
"164 142 OFFCURVE",
"164 146 OFFCURVE",
"165 150 CURVE",
"75 150 LINE",
"74 144 OFFCURVE",
"74 139 OFFCURVE",
"74 133 CURVE SMOOTH",
"74 12 OFFCURVE",
"306 0 OFFCURVE",
"405 0 CURVE"
);
}
);
width = 483;
}
);
},
{
glyphname = "hu-hira.fin";
lastChange = "2018-07-16 17:34:15 +0000";
layers = (
{
anchors = (
{
name = daku;
position = "{297, 200}";
}
);
layerId = "CDF314B6-AD07-4304-BC80-988178CB760F";
paths = (
{
closed = 1;
nodes = (
"331 0 LINE",
"297 -170 OFFCURVE",
"237 -340 OFFCURVE",
"174 -340 CURVE",
"162 -400 LINE",
"299 -400 OFFCURVE",
"365 -279 OFFCURVE",
"421 0 CURVE"
);
},
{
closed = 1;
nodes = (
"174 -340 LINE",
"150 -340 OFFCURVE",
"141 -327 OFFCURVE",
"141 -300 CURVE SMOOTH",
"141 -287 OFFCURVE",
"143 -270 OFFCURVE",
"147 -250 CURVE",
"57 -250 LINE",
"53 -272 OFFCURVE",
"50 -291 OFFCURVE",
"50 -309 CURVE SMOOTH",
"50 -370 OFFCURVE",
"81 -400 OFFCURVE",
"162 -400 CURVE"
);
},
{
closed = 1;
nodes = (
"219 200 OFFCURVE",
"48 60 OFFCURVE",
"12 60 CURVE",
"0 0 LINE",
"48 0 OFFCURVE",
"219 140 OFFCURVE",
"319 140 CURVE SMOOTH",
"342 140 OFFCURVE",
"350 132 OFFCURVE",
"350 113 CURVE SMOOTH",
"350 91 OFFCURVE",
"340 55 OFFCURVE",
"331 0 CURVE",
"421 0 LINE",
"429 47 OFFCURVE",
"435 85 OFFCURVE",
"435 115 CURVE SMOOTH",
"435 173 OFFCURVE",
"412 200 OFFCURVE",
"331 200 CURVE SMOOTH"
);
},
{
closed = 1;
nodes = (
"393 12 LINE",
"69 -204 LINE",
"105 -240 LINE",
"429 -24 LINE"
);
},
{
closed = 1;
nodes = (
"493 60 LINE",
"457 60 OFFCURVE",
"429 36 OFFCURVE",
"393 12 CURVE",
"429 -24 LINE",
"447 -12 OFFCURVE",
"463 0 OFFCURVE",
"481 0 CURVE"
);
},
{
closed = 1;
nodes = (
"147 -250 LINE",
"187 -50 LINE",
"97 -50 LINE",
"57 -250 LINE"
);
}
);
width = 543;
}
);
},
{
glyphname = "he-hira.fin";
lastChange = "2018-07-16 17:34:15 +0000";
layers = (
{
anchors = (
{
name = daku;
position = "{440, 800}";
}
);
layerId = "CDF314B6-AD07-4304-BC80-988178CB760F";
paths = (
{
closed = 1;
nodes = (
"225 400 LINE",
"185 200 LINE",
"275 200 LINE",
"315 400 LINE"
);
},
{
closed = 1;
nodes = (
"265 600 LINE",
"225 400 LINE",
"315 400 LINE",
"355 600 LINE"
);
},
{
closed = 1;
nodes = (
"215 185 LINE",
"245 245 OFFCURVE",
"472 626 OFFCURVE",
"489 710 CURVE SMOOTH",
"492 724 OFFCURVE",
"493 736 OFFCURVE",
"493 747 CURVE SMOOTH",
"493 782 OFFCURVE",
"477 800 OFFCURVE",
"440 800 CURVE SMOOTH",
"348 800 OFFCURVE",
"291 727 OFFCURVE",
"265 600 CURVE",
"355 600 LINE",
"370 683 OFFCURVE",
"407 740 OFFCURVE",
"428 740 CURVE SMOOTH",
"443 740 OFFCURVE",
"449 734 OFFCURVE",
"449 721 CURVE SMOOTH",
"449 718 OFFCURVE",
"449 714 OFFCURVE",
"448 710 CURVE SMOOTH",
"434 639 OFFCURVE",
"215 260 OFFCURVE",
"185 200 CURVE"
);
},
{
closed = 1;
nodes = (
"0 0 LINE",
"60 0 OFFCURVE",
"210 235 OFFCURVE",
"235 285 CURVE",
"205 300 LINE",
"180 250 OFFCURVE",
"60 60 OFFCURVE",
"12 60 CURVE"
);
},
{
closed = 1;
nodes = (
"337 60 LINE",
"298 60 OFFCURVE",
"270 83 OFFCURVE",
"270 146 CURVE SMOOTH",
"270 162 OFFCURVE",
"271 179 OFFCURVE",
"275 200 CURVE",
"185 200 LINE",
"182 181 OFFCURVE",
"180 163 OFFCURVE",
"180 147 CURVE SMOOTH",
"180 47 OFFCURVE",
"236 0 OFFCURVE",
"325 0 CURVE"
);
},
{
closed = 1;
nodes = (
"325 0 LINE",
"394 0 OFFCURVE",
"438 28 OFFCURVE",
"477 88 CURVE",
"485 134 LINE",
"425 79 OFFCURVE",
"394 60 OFFCURVE",
"337 60 CURVE"
);
}
);
width = 543;
}
);
},
{
glyphname = "ho-hira.fin";
lastChange = "2018-07-16 17:34:15 +0000";
layers = (
{
anchors = (
{
name = daku;
position = "{451, 400}";
}
);
layerId = "CDF314B6-AD07-4304-BC80-988178CB760F";
paths = (
{
closed = 1;
nodes = (
"631 0 LINE",
"597 -170 OFFCURVE",
"537 -340 OFFCURVE",
"474 -340 CURVE",
"462 -400 LINE",
"599 -400 OFFCURVE",
"665 -279 OFFCURVE",
"721 0 CURVE"
);
},
{
closed = 1;
nodes = (
"474 -340 LINE",
"450 -340 OFFCURVE",
"441 -327 OFFCURVE",
"441 -300 CURVE SMOOTH",
"441 -287 OFFCURVE",
"443 -270 OFFCURVE",
"447 -250 CURVE",
"357 -250 LINE",
"353 -272 OFFCURVE",
"350 -291 OFFCURVE",
"350 -309 CURVE SMOOTH",
"350 -370 OFFCURVE",
"381 -400 OFFCURVE",
"462 -400 CURVE"
);
},
{
closed = 1;
nodes = (
"721 0 LINE",
"761 200 LINE",
"671 200 LINE",
"631 0 LINE"
);
},
{
closed = 1;
nodes = (
"793 60 LINE",
"659 62 OFFCURVE",
"397 -50 OFFCURVE",
"357 -250 CURVE",
"447 -250 LINE",
"472 -125 OFFCURVE",
"631 0 OFFCURVE",
"781 0 CURVE"
);
},
{
closed = 1;
nodes = (
"231 200 LINE",
"191 0 LINE",
"281 0 LINE",
"321 200 LINE"
);
},
{
closed = 1;
nodes = (
"214 340 LINE",
"234 340 OFFCURVE",
"242 318 OFFCURVE",
"242 286 CURVE SMOOTH",
"242 261 OFFCURVE",
"237 231 OFFCURVE",
"231 200 CURVE",
"321 200 LINE",
"327 236 OFFCURVE",
"330 266 OFFCURVE",
"330 292 CURVE SMOOTH",
"330 366 OFFCURVE",
"303 400 OFFCURVE",
"226 400 CURVE"
);
},
{
closed = 1;
nodes = (
"226 400 LINE",
"190 400 OFFCURVE",
"161 372 OFFCURVE",
"137 312 CURVE",
"160 266 LINE",
"184 326 OFFCURVE",
"196 340 OFFCURVE",
"214 340 CURVE"
);
},
{
closed = 1;
nodes = (
"501 0 LINE",
"541 200 LINE",
"451 200 LINE",
"411 0 LINE"
);
},
{
closed = 1;
nodes = (
"544 220 OFFCURVE",
"546 238 OFFCURVE",
"546 254 CURVE SMOOTH",
"546 354 OFFCURVE",
"492 400 OFFCURVE",
"418 400 CURVE SMOOTH",
"374 400 OFFCURVE",
"343 374 OFFCURVE",
"304 314 CURVE",
"296 268 LINE",
"356 323 OFFCURVE",
"367 340 OFFCURVE",
"406 340 CURVE SMOOTH",
"441 340 OFFCURVE",
"458 321 OFFCURVE",
"458 271 CURVE SMOOTH",
"458 252 OFFCURVE",
"456 229 OFFCURVE",
"451 200 CURVE",
"541 200 LINE"
);
},
{
closed = 1;
nodes = (
"764 219 OFFCURVE",
"766 237 OFFCURVE",
"766 253 CURVE SMOOTH",
"766 353 OFFCURVE",
"710 400 OFFCURVE",
"621 400 CURVE SMOOTH",
"581 400 OFFCURVE",
"542 373 OFFCURVE",
"503 313 CURVE",
"495 267 LINE",
"555 322 OFFCURVE",
"569 340 OFFCURVE",
"609 340 CURVE SMOOTH",
"648 340 OFFCURVE",
"676 317 OFFCURVE",
"676 254 CURVE SMOOTH",
"676 238 OFFCURVE",
"675 221 OFFCURVE",
"671 200 CURVE",
"761 200 LINE"
);
},
{
closed = 1;
nodes = (
"0 0 LINE",
"36 0 OFFCURVE",
"65 28 OFFCURVE",
"89 88 CURVE",
"66 134 LINE",
"42 74 OFFCURVE",
"30 60 OFFCURVE",
"12 60 CURVE"
);
},
{
closed = 1;
nodes = (
"66 134 LINE",
"89 88 LINE",
"160 266 LINE",
"137 312 LINE"
);
}
);
width = 843;
}
);
},
{
glyphname = "ma-hira.fin";
lastChange = "2018-07-16 17:34:15 +0000";
layers = (
{
layerId = "CDF314B6-AD07-4304-BC80-988178CB760F";
paths = (
{
closed = 1;
nodes = (
"159 241 OFFCURVE",
"157 223 OFFCURVE",
"157 207 CURVE SMOOTH",
"157 107 OFFCURVE",
"213 60 OFFCURVE",
"302 60 CURVE SMOOTH",
"371 60 OFFCURVE",
"415 88 OFFCURVE",
"454 148 CURVE",
"462 194 LINE",
"402 139 OFFCURVE",
"371 120 OFFCURVE",
"314 120 CURVE SMOOTH",
"275 120 OFFCURVE",
"247 143 OFFCURVE",
"247 206 CURVE SMOOTH",
"247 222 OFFCURVE",
"248 239 OFFCURVE",
"252 260 CURVE",
"162 260 LINE"
);
},
{
closed = 1;
nodes = (
"510 200 LINE",
"550 400 LINE",
"460 400 LINE",
"420 200 LINE"
);
},
{
closed = 1;
nodes = (
"0 0 LINE",
"90 0 OFFCURVE",
"157 97 OFFCURVE",
"173 177 CURVE",
"150 200 LINE",
"134 120 OFFCURVE",
"57 60 OFFCURVE",
"12 60 CURVE"
);
},
{
closed = 1;
nodes = (
"380 0 LINE",
"346 -170 OFFCURVE",
"286 -340 OFFCURVE",
"223 -340 CURVE",
"211 -400 LINE",
"348 -400 OFFCURVE",
"414 -279 OFFCURVE",
"470 0 CURVE"
);
},
{
closed = 1;
nodes = (
"223 -340 LINE",
"199 -340 OFFCURVE",
"190 -327 OFFCURVE",
"190 -300 CURVE SMOOTH",
"190 -287 OFFCURVE",
"192 -270 OFFCURVE",
"196 -250 CURVE",
"106 -250 LINE",
"102 -272 OFFCURVE",
"99 -291 OFFCURVE",
"99 -309 CURVE SMOOTH",
"99 -370 OFFCURVE",
"130 -400 OFFCURVE",
"211 -400 CURVE"
);
},
{
closed = 1;
nodes = (
"470 0 LINE",
"510 200 LINE",
"420 200 LINE",
"380 0 LINE"
);
},
{
closed = 1;
nodes = (
"542 60 LINE",
"408 62 OFFCURVE",
"146 -50 OFFCURVE",
"106 -250 CURVE",
"196 -250 LINE",
"221 -125 OFFCURVE",
"380 0 OFFCURVE",
"530 0 CURVE"
);
},
{
closed = 1;
nodes = (
"173 177 LINE",
"240 200 LINE",
"280 400 LINE",
"190 400 LINE",
"150 200 LINE"
);
}
);
width = 600;
}
);
},
{
glyphname = "mi-hira.fin";
lastChange = "2018-06-10 20:17:06 +0000";
layers = (
{
layerId = "CDF314B6-AD07-4304-BC80-988178CB760F";
paths = (
{
closed = 1;
nodes = (
"0 0 LINE",
"36 0 OFFCURVE",
"64 24 OFFCURVE",
"100 48 CURVE",
"64 84 LINE",
"46 72 OFFCURVE",
"30 60 OFFCURVE",
"12 60 CURVE"
);
},
{
closed = 1;
nodes = (
"100 48 LINE",
"343 210 LINE",
"307 246 LINE",
"64 84 LINE"
);
},
{
closed = 1;
nodes = (
"262 30 LINE",
"280 12 LINE",
"523 174 LINE",
"487 210 LINE",
"244 48 LINE"
);
},
{
closed = 1;
nodes = (
"217 -186 LINE",
"460 -24 LINE",
"424 12 LINE",
"181 -150 LINE"
);
},
{
closed = 1;
nodes = (
"19 -132 LINE",
"37 -150 LINE",
"280 12 LINE",
"244 48 LINE",
"1 -114 LINE"
);
},
{
closed = 1;
nodes = (
"350 70 LINE",
"343 210 LINE",
"253 210 LINE",
"262 30 LINE"
);
},
{
closed = 1;
nodes = (
"174 -10 LINE",
"181 -150 LINE",
"271 -150 LINE",
"262 30 LINE"
);
},
{
closed = 1;
nodes = (
"253 -132 LINE",
"271 -150 LINE",
"514 12 LINE",
"478 48 LINE",
"235 -114 LINE"
);
}
);
width = 573;
}
);
},
{
glyphname = "mu-hira.fin";
lastChange = "2018-07-16 17:34:15 +0000";
layers = (
{
layerId = "CDF314B6-AD07-4304-BC80-988178CB760F";
paths = (
{
closed = 1;
nodes = (
"386 350 OFFCURVE",
"397 333 OFFCURVE",
"397 304 CURVE SMOOTH",
"397 294 OFFCURVE",
"396 283 OFFCURVE",
"393 270 CURVE",
"483 270 LINE",
"485 281 OFFCURVE",
"486 292 OFFCURVE",
"486 302 CURVE SMOOTH",
"486 365 OFFCURVE",
"444 410 OFFCURVE",
"375 410 CURVE",
"363 350 LINE"
);
},
{
closed = 1;
nodes = (
"373 170 OFFCURVE",
"64 60 OFFCURVE",
"12 60 CURVE",
"0 0 LINE",
"75 0 OFFCURVE",
"458 145 OFFCURVE",
"483 270 CURVE",
"393 270 LINE"
);
},
{
closed = 1;
nodes = (
"375 410 LINE",
"295 410 OFFCURVE",
"227 350 OFFCURVE",
"211 270 CURVE",
"301 270 LINE",
"313 320 OFFCURVE",
"333 350 OFFCURVE",
"363 350 CURVE"
);
},
{
closed = 1;
nodes = (
"137 -200 OFFCURVE",
"126 -180 OFFCURVE",
"126 -157 CURVE SMOOTH",
"126 -152 OFFCURVE",
"127 -146 OFFCURVE",
"128 -140 CURVE",
"38 -140 LINE",
"36 -150 OFFCURVE",
"35 -160 OFFCURVE",
"35 -169 CURVE SMOOTH",
"35 -230 OFFCURVE",
"79 -260 OFFCURVE",
"149 -260 CURVE",
"161 -200 LINE"
);
},
{
closed = 1;
nodes = (
"149 -260 LINE",
"229 -260 OFFCURVE",
"292 -220 OFFCURVE",
"308 -140 CURVE",
"218 -140 LINE",
"212 -170 OFFCURVE",
"191 -200 OFFCURVE",
"161 -200 CURVE"
);
},
{
closed = 1;
nodes = (
"308 -140 LINE",
"337 0 LINE",
"247 0 LINE",
"218 -140 LINE"
);
},
{
closed = 1;
nodes = (
"378 -140 OFFCURVE",
"430 1 OFFCURVE",
"520 0 CURVE",
"532 60 LINE",
"412 60 OFFCURVE",
"350 -80 OFFCURVE",
"230 -80 CURVE",
"218 -140 LINE"
);
},
{
closed = 1;
nodes = (
"340 16 OFFCURVE",
"342 31 OFFCURVE",
"342 44 CURVE SMOOTH",
"342 119 OFFCURVE",
"296 151 OFFCURVE",
"296 226 CURVE SMOOTH",
"296 239 OFFCURVE",
"298 254 OFFCURVE",
"301 270 CURVE",
"211 270 LINE",
"208 254 OFFCURVE",
"206 239 OFFCURVE",
"206 226 CURVE SMOOTH",
"206 151 OFFCURVE",
"252 119 OFFCURVE",
"252 44 CURVE SMOOTH",
"252 31 OFFCURVE",
"250 16 OFFCURVE",
"247 0 CURVE",
"337 0 LINE"
);
},
{
closed = 1;
nodes = (
"197 -20 LINE",
"117 -20 OFFCURVE",
"54 -60 OFFCURVE",
"38 -140 CURVE",
"128 -140 LINE",
"134 -110 OFFCURVE",
"155 -80 OFFCURVE",
"185 -80 CURVE"
);
},
{
closed = 1;
nodes = (
"209 -80 OFFCURVE",
"220 -100 OFFCURVE",
"220 -123 CURVE SMOOTH",
"220 -128 OFFCURVE",
"219 -134 OFFCURVE",
"218 -140 CURVE",
"308 -140 LINE",
"310 -130 OFFCURVE",
"311 -120 OFFCURVE",
"311 -111 CURVE SMOOTH",
"311 -50 OFFCURVE",
"267 -20 OFFCURVE",
"197 -20 CURVE",
"185 -80 LINE"
);
}
);
width = 582;
}
);
},
{
glyphname = "me-hira.fin";
lastChange = "2018-07-16 17:34:15 +0000";
layers = (
{
layerId = "CDF314B6-AD07-4304-BC80-988178CB760F";
paths = (
{
closed = 1;
nodes = (
"159 241 OFFCURVE",
"157 223 OFFCURVE",
"157 207 CURVE SMOOTH",
"157 107 OFFCURVE",
"213 60 OFFCURVE",
"302 60 CURVE SMOOTH",
"371 60 OFFCURVE",
"415 88 OFFCURVE",
"454 148 CURVE",
"462 194 LINE",
"402 139 OFFCURVE",
"371 120 OFFCURVE",
"314 120 CURVE SMOOTH",
"275 120 OFFCURVE",
"247 143 OFFCURVE",
"247 206 CURVE SMOOTH",
"247 222 OFFCURVE",
"248 239 OFFCURVE",
"252 260 CURVE",
"162 260 LINE"
);
},
{
closed = 1;
nodes = (
"510 200 LINE",
"550 400 LINE",
"460 400 LINE",
"420 200 LINE"
);
},
{
closed = 1;
nodes = (
"0 0 LINE",
"90 0 OFFCURVE",
"157 97 OFFCURVE",
"173 177 CURVE",
"150 200 LINE",
"134 120 OFFCURVE",
"57 60 OFFCURVE",
"12 60 CURVE"
);
},
{
closed = 1;
nodes = (
"380 0 LINE",
"346 -170 OFFCURVE",
"286 -340 OFFCURVE",
"223 -340 CURVE",
"211 -400 LINE",
"348 -400 OFFCURVE",
"414 -279 OFFCURVE",
"470 0 CURVE"
);
},
{
closed = 1;
nodes = (
"223 -340 LINE",
"199 -340 OFFCURVE",
"190 -327 OFFCURVE",
"190 -300 CURVE SMOOTH",
"190 -287 OFFCURVE",
"192 -270 OFFCURVE",
"196 -250 CURVE",
"106 -250 LINE",
"102 -272 OFFCURVE",
"99 -291 OFFCURVE",
"99 -309 CURVE SMOOTH",
"99 -370 OFFCURVE",
"130 -400 OFFCURVE",
"211 -400 CURVE"
);
},
{
closed = 1;
nodes = (
"470 0 LINE",
"510 200 LINE",
"420 200 LINE",
"380 0 LINE"
);
},
{
closed = 1;
nodes = (
"173 177 LINE",
"240 200 LINE",
"280 400 LINE",
"190 400 LINE",
"150 200 LINE"
);
},
{
closed = 1;
nodes = (
"571 -171 OFFCURVE",
"623 -126 OFFCURVE",
"623 -63 CURVE SMOOTH",
"623 -4 OFFCURVE",
"572 49 OFFCURVE",
"505 49 CURVE SMOOTH",
"445 49 OFFCURVE",
"393 3 OFFCURVE",
"393 -59 CURVE SMOOTH",
"393 -118 OFFCURVE",
"442 -171 OFFCURVE",
"510 -171 CURVE SMOOTH"
);
},
{
closed = 1;
nodes = (
"459 -29 OFFCURVE",
"483 -1 OFFCURVE",
"511 -1 CURVE SMOOTH",
"538 -1 OFFCURVE",
"558 -27 OFFCURVE",
"558 -58 CURVE SMOOTH",
"558 -93 OFFCURVE",
"532 -122 OFFCURVE",
"503 -122 CURVE SMOOTH",
"476 -122 OFFCURVE",
"459 -96 OFFCURVE",
"459 -65 CURVE SMOOTH"
);
},
{
closed = 1;
nodes = (
"482 60 LINE",
"343 25 OFFCURVE",
"143 -71 OFFCURVE",
"106 -250 CURVE",
"196 -250 LINE",
"221 -141 OFFCURVE",
"320 -49 OFFCURVE",
"470 0 CURVE"
);
}
);
width = 673;
}
);
},
{
glyphname = "mo-hira.fin";
lastChange = "2018-07-16 17:34:15 +0000";
layers = (
{
layerId = "CDF314B6-AD07-4304-BC80-988178CB760F";
paths = (
{
closed = 1;
nodes = (
"0 0 LINE",
"120 0 OFFCURVE",
"202 97 OFFCURVE",
"218 177 CURVE",
"195 200 LINE",
"179 120 OFFCURVE",
"69 60 OFFCURVE",
"12 60 CURVE"
);
},
{
closed = 1;
nodes = (
"517 322 OFFCURVE",
"518 329 OFFCURVE",
"518 335 CURVE SMOOTH",
"518 403 OFFCURVE",
"446 440 OFFCURVE",
"373 440 CURVE",
"361 380 LINE",
"412 380 OFFCURVE",
"427 355 OFFCURVE",
"427 329 CURVE SMOOTH",
"427 324 OFFCURVE",
"427 320 OFFCURVE",
"426 315 CURVE",
"516 315 LINE"
);
},
{
closed = 1;
nodes = (
"252 190 LINE",
"367 190 OFFCURVE",
"496 215 OFFCURVE",
"516 315 CURVE",
"426 315 LINE",
"416 265 OFFCURVE",
"320 250 OFFCURVE",
"264 250 CURVE"
);
},
{
closed = 1;
nodes = (
"199 250 LINE",
"187 190 LINE",
"252 190 LINE",
"264 250 LINE"
);
},
{
closed = 1;
nodes = (
"373 440 LINE",
"258 440 OFFCURVE",
"162 350 OFFCURVE",
"136 220 CURVE",
"226 220 LINE",
"246 320 OFFCURVE",
"305 380 OFFCURVE",
"361 380 CURVE"
);
},
{
closed = 1;
nodes = (
"421 500 OFFCURVE",
"443 522 OFFCURVE",
"443 550 CURVE SMOOTH",
"443 578 OFFCURVE",
"421 600 OFFCURVE",
"393 600 CURVE SMOOTH",
"365 600 OFFCURVE",
"343 578 OFFCURVE",
"343 550 CURVE SMOOTH",
"343 522 OFFCURVE",
"365 500 OFFCURVE",
"393 500 CURVE SMOOTH"
);
},
{
closed = 1;
nodes = (
"333 60 LINE",
"281 60 OFFCURVE",
"222 98 OFFCURVE",
"222 180 CURVE SMOOTH",
"222 192 OFFCURVE",
"223 206 OFFCURVE",
"226 220 CURVE",
"136 220 LINE",
"133 203 OFFCURVE",
"131 187 OFFCURVE",
"131 172 CURVE SMOOTH",
"131 48 OFFCURVE",
"241 0 OFFCURVE",
"321 0 CURVE"
);
},
{
closed = 1;
nodes = (
"321 0 LINE",
"390 0 OFFCURVE",
"434 28 OFFCURVE",
"473 88 CURVE",
"481 134 LINE",
"421 79 OFFCURVE",
"390 60 OFFCURVE",
"333 60 CURVE"
);
}
);
width = 568;
}
);
},
{
glyphname = "ya-hira.fin";
lastChange = "2018-07-16 17:34:15 +0000";
layers = (
{
anchors = (
{
name = daku;
position = "{362, 360}";
}
);
layerId = "CDF314B6-AD07-4304-BC80-988178CB760F";
paths = (
{
closed = 1;
nodes = (
"362 0 LINE",
"477 0 OFFCURVE",
"566 80 OFFCURVE",
"586 180 CURVE",
"496 180 LINE",
"482 110 OFFCURVE",
"430 60 OFFCURVE",
"374 60 CURVE"
);
},
{
closed = 1;
nodes = (
"0 0 LINE",
"36 0 OFFCURVE",
"66 8 OFFCURVE",
"106 48 CURVE",
"76 108 LINE",
"46 78 OFFCURVE",
"30 60 OFFCURVE",
"12 60 CURVE"
);
},
{
closed = 1;
nodes = (
"106 48 LINE",
"288 230 LINE",
"258 290 LINE",
"76 108 LINE"
);
},
{
closed = 1;
nodes = (
"588 192 OFFCURVE",
"590 204 OFFCURVE",
"590 215 CURVE SMOOTH",
"590 298 OFFCURVE",
"527 360 OFFCURVE",
"422 360 CURVE SMOOTH",
"343 360 OFFCURVE",
"288 320 OFFCURVE",
"258 290 CURVE",
"288 230 LINE",
"318 260 OFFCURVE",
"353 300 OFFCURVE",
"410 300 CURVE SMOOTH",
"472 300 OFFCURVE",
"500 266 OFFCURVE",
"500 215 CURVE SMOOTH",
"500 204 OFFCURVE",
"498 192 OFFCURVE",
"496 180 CURVE",
"586 180 LINE"
);
},
{
closed = 1;
nodes = (
"362 0 LINE",
"575 0 LINE",
"587 60 LINE",
"374 60 LINE"
);
}
);
width = 640;
}
);
},
{
glyphname = "yu-hira.fin";
lastChange = "2018-07-16 17:34:15 +0000";
layers = (
{
anchors = (
{
name = daku;
position = "{362, 360}";
}
);
layerId = "CDF314B6-AD07-4304-BC80-988178CB760F";
paths = (
{
closed = 1;
nodes = (
"362 0 LINE",
"477 0 OFFCURVE",
"566 80 OFFCURVE",
"586 180 CURVE",
"496 180 LINE",
"482 110 OFFCURVE",
"430 60 OFFCURVE",
"374 60 CURVE"
);
},
{
closed = 1;
nodes = (
"0 0 LINE",
"36 0 OFFCURVE",
"66 8 OFFCURVE",
"106 48 CURVE",
"76 108 LINE",
"46 78 OFFCURVE",
"30 60 OFFCURVE",
"12 60 CURVE"
);
},
{
closed = 1;
nodes = (
"106 48 LINE",
"288 230 LINE",
"258 290 LINE",
"76 108 LINE"
);
},
{
closed = 1;
nodes = (
"588 192 OFFCURVE",
"590 204 OFFCURVE",
"590 215 CURVE SMOOTH",
"590 298 OFFCURVE",
"527 360 OFFCURVE",
"422 360 CURVE SMOOTH",
"343 360 OFFCURVE",
"288 320 OFFCURVE",
"258 290 CURVE",
"288 230 LINE",
"318 260 OFFCURVE",
"353 300 OFFCURVE",
"410 300 CURVE SMOOTH",
"472 300 OFFCURVE",
"500 266 OFFCURVE",
"500 215 CURVE SMOOTH",
"500 204 OFFCURVE",
"498 192 OFFCURVE",
"496 180 CURVE",
"586 180 LINE"
);
},
{
closed = 1;
nodes = (
"362 0 LINE",
"575 0 LINE",
"587 60 LINE",
"374 60 LINE"
);
},
{
closed = 1;
nodes = (
"327 118 LINE",
"357 178 LINE",
"175 360 LINE",
"145 300 LINE"
);
}
);
width = 640;
}
);
},
{
glyphname = "yo-hira.fin";
lastChange = "2018-07-16 17:34:15 +0000";
layers = (
{
anchors = (
{
name = daku;
position = "{246, 440}";
}
);
layerId = "CDF314B6-AD07-4304-BC80-988178CB760F";
paths = (
{
closed = 1;
nodes = (
"0 0 LINE",
"36 0 OFFCURVE",
"66 8 OFFCURVE",
"106 48 CURVE",
"76 108 LINE",
"46 78 OFFCURVE",
"30 60 OFFCURVE",
"12 60 CURVE"
);
},
{
closed = 1;
nodes = (
"106 48 LINE",
"406 348 LINE",
"376 408 LINE",
"76 108 LINE"
);
},
{
closed = 1;
nodes = (
"196 400 LINE",
"156 200 LINE",
"246 200 LINE",
"286 400 LINE"
);
},
{
closed = 1;
nodes = (
"263 60 LINE",
"243 60 OFFCURVE",
"235 82 OFFCURVE",
"235 114 CURVE SMOOTH",
"235 139 OFFCURVE",
"240 169 OFFCURVE",
"246 200 CURVE",
"156 200 LINE",
"150 164 OFFCURVE",
"147 134 OFFCURVE",
"147 108 CURVE SMOOTH",
"147 34 OFFCURVE",
"174 0 OFFCURVE",
"251 0 CURVE"
);
},
{
closed = 1;
nodes = (
"196 400 LINE",
"286 400 LINE",
"294 440 LINE",
"204 440 LINE"
);
},
{
closed = 1;
nodes = (
"251 0 LINE",
"320 0 OFFCURVE",
"364 28 OFFCURVE",
"403 88 CURVE",
"411 134 LINE",
"351 79 OFFCURVE",
"320 60 OFFCURVE",
"263 60 CURVE"
);
}
);
width = 461;
}
);
},
{
glyphname = "ra-hira.fin";
lastChange = "2018-07-16 17:34:15 +0000";
layers = (
{
layerId = "CDF314B6-AD07-4304-BC80-988178CB760F";
paths = (
{
closed = 1;
nodes = (
"247 0 LINE",
"197 -250 OFFCURVE",
"60 -340 OFFCURVE",
"0 -340 CURVE",
"-12 -400 LINE",
"78 -400 OFFCURVE",
"277 -300 OFFCURVE",
"337 0 CURVE"
);
},
{
closed = 1;
nodes = (
"0 -340 LINE",
"-24 -340 OFFCURVE",
"-42 -325 OFFCURVE",
"-54 -313 CURVE",
"-99 -358 LINE",
"-75 -382 OFFCURVE",
"-48 -400 OFFCURVE",
"-12 -400 CURVE"
);
},
{
closed = 1;
nodes = (
"0 0 LINE",
"36 0 OFFCURVE",
"64 24 OFFCURVE",
"100 48 CURVE",
"64 84 LINE",
"46 72 OFFCURVE",
"30 60 OFFCURVE",
"12 60 CURVE"
);
},
{
closed = 1;
nodes = (
"100 48 LINE",
"370 228 LINE",
"334 264 LINE",
"64 84 LINE"
);
},
{
closed = 1;
nodes = (
"370 228 LINE",
"424 264 LINE",
"388 300 LINE",
"334 264 LINE"
);
},
{
closed = 1;
nodes = (
"334 264 LINE",
"226 192 OFFCURVE",
"266 85 OFFCURVE",
"247 0 CURVE",
"337 0 LINE",
"341 20 OFFCURVE",
"342 40 OFFCURVE",
"342 59 CURVE SMOOTH",
"342 93 OFFCURVE",
"338 125 OFFCURVE",
"338 152 CURVE SMOOTH",
"338 184 OFFCURVE",
"344 211 OFFCURVE",
"370 228 CURVE"
);
}
);
width = 474;
}
);
},
{
glyphname = "ri-hira.fin";
lastChange = "2018-07-16 17:34:15 +0000";
layers = (
{
layerId = "CDF314B6-AD07-4304-BC80-988178CB760F";
paths = (
{
closed = 1;
nodes = (
"159 241 OFFCURVE",
"157 223 OFFCURVE",
"157 207 CURVE SMOOTH",
"157 107 OFFCURVE",
"213 60 OFFCURVE",
"302 60 CURVE SMOOTH",
"371 60 OFFCURVE",
"415 88 OFFCURVE",
"454 148 CURVE",
"462 194 LINE",
"402 139 OFFCURVE",
"371 120 OFFCURVE",
"314 120 CURVE SMOOTH",
"275 120 OFFCURVE",
"247 143 OFFCURVE",
"247 206 CURVE SMOOTH",
"247 222 OFFCURVE",
"248 239 OFFCURVE",
"252 260 CURVE",
"162 260 LINE"
);
},
{
closed = 1;
nodes = (
"510 200 LINE",
"550 400 LINE",
"460 400 LINE",
"420 200 LINE"
);
},
{
closed = 1;
nodes = (
"0 0 LINE",
"90 0 OFFCURVE",
"157 97 OFFCURVE",
"173 177 CURVE",
"150 200 LINE",
"134 120 OFFCURVE",
"57 60 OFFCURVE",
"12 60 CURVE"
);
},
{
closed = 1;
nodes = (
"470 0 LINE",
"510 200 LINE",
"420 200 LINE",
"380 0 LINE"
);
},
{
closed = 1;
nodes = (
"173 177 LINE",
"240 200 LINE",
"280 400 LINE",
"190 400 LINE",
"150 200 LINE"
);
},
{
closed = 1;
nodes = (
"430 -200 LINE",
"470 0 LINE",
"380 0 LINE",
"340 -200 LINE"
);
},
{
closed = 1;
nodes = (
"390 -400 LINE",
"430 -200 LINE",
"340 -200 LINE",
"300 -400 LINE"
);
}
);
width = 600;
}
);
},
{
glyphname = "ru-hira.fin";
lastChange = "2018-07-16 17:34:15 +0000";
layers = (
{
layerId = "CDF314B6-AD07-4304-BC80-988178CB760F";
paths = (
{
closed = 1;
nodes = (
"140 -200 LINE",
"152 -140 LINE",
"62 -140 LINE",
"50 -200 LINE"
);
},
{
closed = 1;
nodes = (
"50 -200 LINE",
"10 -400 LINE",
"100 -400 LINE",
"140 -200 LINE"
);
},
{
closed = 1;
nodes = (
"235 200 LINE",
"195 0 LINE",
"297 60 LINE",
"325 200 LINE"
);
},
{
closed = 1;
nodes = (
"275 400 LINE",
"235 200 LINE",
"325 200 LINE",
"365 400 LINE"
);
},
{
closed = 1;
nodes = (
"451 600 LINE",
"376 600 OFFCURVE",
"300 525 OFFCURVE",
"275 400 CURVE",
"365 400 LINE",
"385 500 OFFCURVE",
"409 540 OFFCURVE",
"439 540 CURVE"
);
},
{
closed = 1;
nodes = (
"125 -62 OFFCURVE",
"277 -40 OFFCURVE",
"297 60 CURVE",
"207 60 LINE",
"197 10 OFFCURVE",
"131 -6 OFFCURVE",
"86 -20 CURVE",
"74 -80 LINE"
);
},
{
closed = 1;
nodes = (
"0 0 LINE",
"57 0 OFFCURVE",
"74 -14 OFFCURVE",
"74 -52 CURVE SMOOTH",
"74 -73 OFFCURVE",
"69 -102 OFFCURVE",
"62 -140 CURVE",
"152 -140 LINE",
"157 -107 OFFCURVE",
"161 -79 OFFCURVE",
"161 -55 CURVE SMOOTH",
"161 23 OFFCURVE",
"126 60 OFFCURVE",
"12 60 CURVE"
);
}
);
width = 501;
}
);
},
{
glyphname = "re-hira.fin";
lastChange = "2018-07-16 17:34:15 +0000";
layers = (
{
layerId = "CDF314B6-AD07-4304-BC80-988178CB760F";
paths = (
{
closed = 1;
nodes = (
"328 200 LINE",
"288 0 LINE",
"378 0 LINE",
"418 200 LINE"
);
},
{
closed = 1;
nodes = (
"96 68 LINE",
"396 368 LINE",
"376 408 LINE",
"76 108 LINE"
);
},
{
closed = 1;
nodes = (
"396 368 LINE",
"458 400 LINE",
"466 440 LINE",
"408 440 LINE",
"376 408 LINE"
);
},
{
closed = 1;
nodes = (
"0 0 LINE",
"36 0 OFFCURVE",
"56 28 OFFCURVE",
"96 68 CURVE",
"76 108 LINE",
"46 78 OFFCURVE",
"30 60 OFFCURVE",
"12 60 CURVE"
);
},
{
closed = 1;
nodes = (
"368 400 LINE",
"328 200 LINE",
"418 200 LINE",
"458 400 LINE"
);
},
{
closed = 1;
nodes = (
"250 98 LINE",
"574 314 LINE",
"538 350 LINE",
"214 134 LINE"
);
},
{
closed = 1;
nodes = (
"150 50 LINE",
"186 50 OFFCURVE",
"214 74 OFFCURVE",
"250 98 CURVE",
"214 134 LINE",
"196 122 OFFCURVE",
"180 110 OFFCURVE",
"162 110 CURVE"
);
},
{
closed = 1;
nodes = (
"628 350 LINE",
"636 390 LINE",
"598 390 LINE",
"538 350 LINE"
);
},
{
closed = 1;
nodes = (
"528 300 LINE",
"508 200 LINE",
"598 200 LINE",
"618 300 LINE"
);
},
{
closed = 1;
nodes = (
"660 60 LINE",
"621 60 OFFCURVE",
"593 83 OFFCURVE",
"593 146 CURVE SMOOTH",
"593 162 OFFCURVE",
"594 179 OFFCURVE",
"598 200 CURVE",
"508 200 LINE",
"505 181 OFFCURVE",
"503 163 OFFCURVE",
"503 147 CURVE SMOOTH",
"503 47 OFFCURVE",
"559 0 OFFCURVE",
"648 0 CURVE"
);
},
{
closed = 1;
nodes = (
"538 350 LINE",
"528 300 LINE",
"618 300 LINE",
"628 350 LINE"
);
},
{
closed = 1;
nodes = (
"648 0 LINE",
"717 0 OFFCURVE",
"761 28 OFFCURVE",
"800 88 CURVE",
"808 134 LINE",
"748 79 OFFCURVE",
"717 60 OFFCURVE",
"660 60 CURVE"
);
}
);
width = 858;
}
);
},
{
glyphname = "ro-hira.fin";
lastChange = "2018-07-16 17:34:15 +0000";
layers = (
{
layerId = "CDF314B6-AD07-4304-BC80-988178CB760F";
paths = (
{
closed = 1;
nodes = (
"331 0 LINE",
"281 -250 OFFCURVE",
"144 -340 OFFCURVE",
"84 -340 CURVE",
"72 -400 LINE",
"162 -400 OFFCURVE",
"361 -300 OFFCURVE",
"421 0 CURVE"
);
},
{
closed = 1;
nodes = (
"269 74 LINE",
"319 94 OFFCURVE",
"446 150 OFFCURVE",
"456 200 CURVE",
"366 200 LINE",
"361 175 OFFCURVE",
"331 154 OFFCURVE",
"281 134 CURVE"
);
},
{
closed = 1;
nodes = (
"423 9 OFFCURVE",
"424 18 OFFCURVE",
"424 27 CURVE SMOOTH",
"424 86 OFFCURVE",
"388 144 OFFCURVE",
"327 144 CURVE SMOOTH",
"313 144 OFFCURVE",
"297 141 OFFCURVE",
"281 134 CURVE",
"181 94 LINE",
"169 34 LINE",
"269 74 LINE",
"279 78 OFFCURVE",
"287 80 OFFCURVE",
"295 80 CURVE SMOOTH",
"320 80 OFFCURVE",
"334 60 OFFCURVE",
"334 28 CURVE SMOOTH",
"334 20 OFFCURVE",
"333 10 OFFCURVE",
"331 0 CURVE",
"421 0 LINE"
);
},
{
closed = 1;
nodes = (
"457 203 OFFCURVE",
"457 207 OFFCURVE",
"457 210 CURVE SMOOTH",
"457 256 OFFCURVE",
"392 300 OFFCURVE",
"296 300 CURVE SMOOTH",
"227 300 OFFCURVE",
"164 272 OFFCURVE",
"124 212 CURVE",
"136 166 LINE",
"172 221 OFFCURVE",
"227 240 OFFCURVE",
"284 240 CURVE SMOOTH",
"333 240 OFFCURVE",
"371 225 OFFCURVE",
"366 200 CURVE",
"456 200 LINE"
);
},
{
closed = 1;
nodes = (
"0 0 LINE",
"36 0 OFFCURVE",
"96 106 OFFCURVE",
"136 166 CURVE",
"124 212 LINE",
"84 152 OFFCURVE",
"30 60 OFFCURVE",
"12 60 CURVE"
);
},
{
closed = 1;
nodes = (
"269 74 LINE",
"319 94 OFFCURVE",
"446 150 OFFCURVE",
"456 200 CURVE",
"366 200 LINE",
"361 175 OFFCURVE",
"331 154 OFFCURVE",
"281 134 CURVE"
);
},
{
closed = 1;
nodes = (
"84 -340 LINE",
"60 -340 OFFCURVE",
"42 -325 OFFCURVE",
"30 -313 CURVE",
"-15 -358 LINE",
"9 -382 OFFCURVE",
"36 -400 OFFCURVE",
"72 -400 CURVE"
);
}
);
width = 507;
}
);
},
{
glyphname = "wa-hira.fin";
lastChange = "2018-07-16 17:34:15 +0000";
layers = (
{
anchors = (
{
name = daku;
position = "{449, 440}";
}
);
layerId = "CDF314B6-AD07-4304-BC80-988178CB760F";
paths = (
{
closed = 1;
nodes = (
"604 219 OFFCURVE",
"606 237 OFFCURVE",
"606 253 CURVE SMOOTH",
"606 353 OFFCURVE",
"550 400 OFFCURVE",
"461 400 CURVE SMOOTH",
"392 400 OFFCURVE",
"348 372 OFFCURVE",
"309 312 CURVE",
"301 266 LINE",
"361 321 OFFCURVE",
"392 340 OFFCURVE",
"449 340 CURVE SMOOTH",
"488 340 OFFCURVE",
"516 317 OFFCURVE",
"516 254 CURVE SMOOTH",
"516 238 OFFCURVE",
"515 221 OFFCURVE",
"511 200 CURVE",
"601 200 LINE"
);
},
{
closed = 1;
nodes = (
"241 200 LINE",
"201 0 LINE",
"291 0 LINE",
"331 200 LINE"
);
},
{
closed = 1;
nodes = (
"230 380 LINE",
"250 380 OFFCURVE",
"258 358 OFFCURVE",
"258 326 CURVE SMOOTH",
"258 301 OFFCURVE",
"253 271 OFFCURVE",
"247 240 CURVE",
"337 240 LINE",
"343 276 OFFCURVE",
"346 306 OFFCURVE",
"346 332 CURVE SMOOTH",
"346 406 OFFCURVE",
"319 440 OFFCURVE",
"242 440 CURVE"
);
},
{
closed = 1;
nodes = (
"471 0 LINE SMOOTH",
"437 -170 OFFCURVE",
"376 -340 OFFCURVE",
"313 -340 CURVE",
"301 -400 LINE",
"438 -400 OFFCURVE",
"505 -279 OFFCURVE",
"561 0 CURVE SMOOTH",
"601 200 LINE",
"511 200 LINE"
);
},
{
closed = 1;
nodes = (
"241 200 LINE",
"331 200 LINE",
"337 240 LINE",
"247 240 LINE"
);
},
{
closed = 1;
nodes = (
"66 134 LINE",
"89 88 LINE",
"176 306 LINE",
"153 352 LINE"
);
},
{
closed = 1;
nodes = (
"0 0 LINE",
"36 0 OFFCURVE",
"65 28 OFFCURVE",
"89 88 CURVE",
"66 134 LINE",
"42 74 OFFCURVE",
"30 60 OFFCURVE",
"12 60 CURVE"
);
},
{
closed = 1;
nodes = (
"242 440 LINE",
"206 440 OFFCURVE",
"177 412 OFFCURVE",
"153 352 CURVE",
"176 306 LINE",
"200 366 OFFCURVE",
"212 380 OFFCURVE",
"230 380 CURVE"
);
}
);
width = 656;
}
);
},
{
glyphname = "wi-hira.fin";
lastChange = "2018-07-16 17:34:15 +0000";
layers = (
{
layerId = "CDF314B6-AD07-4304-BC80-988178CB760F";
paths = (
{
closed = 1;
nodes = (
"290 0 LINE",
"359 0 OFFCURVE",
"403 28 OFFCURVE",
"442 88 CURVE",
"450 134 LINE",
"390 79 OFFCURVE",
"359 60 OFFCURVE",
"302 60 CURVE"
);
},
{
closed = 1;
nodes = (
"302 60 LINE",
"282 60 OFFCURVE",
"274 82 OFFCURVE",
"274 114 CURVE SMOOTH",
"274 139 OFFCURVE",
"279 169 OFFCURVE",
"285 200 CURVE",
"195 200 LINE",
"189 164 OFFCURVE",
"186 134 OFFCURVE",
"186 108 CURVE SMOOTH",
"186 34 OFFCURVE",
"213 0 OFFCURVE",
"290 0 CURVE"
);
},
{
closed = 1;
nodes = (
"0 0 LINE",
"120 0 OFFCURVE",
"202 97 OFFCURVE",
"218 177 CURVE",
"195 200 LINE",
"179 120 OFFCURVE",
"69 60 OFFCURVE",
"12 60 CURVE"
);
},
{
closed = 1;
nodes = (
"215 300 LINE",
"195 200 LINE",
"285 200 LINE",
"305 300 LINE"
);
},
{
closed = 1;
nodes = (
"308 360 OFFCURVE",
"330 382 OFFCURVE",
"330 410 CURVE SMOOTH",
"330 438 OFFCURVE",
"308 460 OFFCURVE",
"280 460 CURVE SMOOTH",
"252 460 OFFCURVE",
"230 438 OFFCURVE",
"230 410 CURVE SMOOTH",
"230 382 OFFCURVE",
"252 360 OFFCURVE",
"280 360 CURVE SMOOTH"
);
}
);
width = 500;
}
);
},
{
glyphname = "we-hira.fin";
lastChange = "2018-07-16 17:34:15 +0000";
layers = (
{
layerId = "CDF314B6-AD07-4304-BC80-988178CB760F";
paths = (
{
closed = 1;
nodes = (
"386 0 LINE",
"352 -170 OFFCURVE",
"292 -340 OFFCURVE",
"229 -340 CURVE",
"217 -400 LINE",
"354 -400 OFFCURVE",
"420 -279 OFFCURVE",
"476 0 CURVE"
);
},
{
closed = 1;
nodes = (
"229 -340 LINE",
"205 -340 OFFCURVE",
"196 -327 OFFCURVE",
"196 -300 CURVE SMOOTH",
"196 -287 OFFCURVE",
"198 -270 OFFCURVE",
"202 -250 CURVE",
"112 -250 LINE",
"108 -272 OFFCURVE",
"105 -291 OFFCURVE",
"105 -309 CURVE SMOOTH",
"105 -370 OFFCURVE",
"136 -400 OFFCURVE",
"217 -400 CURVE"
);
},
{
closed = 1;
nodes = (
"548 60 LINE",
"414 62 OFFCURVE",
"152 -50 OFFCURVE",
"112 -250 CURVE",
"202 -250 LINE",
"227 -125 OFFCURVE",
"386 0 OFFCURVE",
"536 0 CURVE"
);
},
{
closed = 1;
nodes = (
"537 303 OFFCURVE",
"537 307 OFFCURVE",
"537 310 CURVE SMOOTH",
"537 356 OFFCURVE",
"472 400 OFFCURVE",
"376 400 CURVE SMOOTH",
"307 400 OFFCURVE",
"244 372 OFFCURVE",
"204 312 CURVE",
"216 266 LINE",
"252 321 OFFCURVE",
"307 340 OFFCURVE",
"364 340 CURVE SMOOTH",
"413 340 OFFCURVE",
"451 325 OFFCURVE",
"446 300 CURVE",
"536 300 LINE"
);
},
{
closed = 1;
nodes = (
"446 300 LINE",
"426 200 LINE",
"516 200 LINE",
"536 300 LINE"
);
},
{
closed = 1;
nodes = (
"0 0 LINE",
"36 0 OFFCURVE",
"63 28 OFFCURVE",
"102 88 CURVE",
"90 134 LINE",
"50 74 OFFCURVE",
"36 60 OFFCURVE",
"12 60 CURVE"
);
},
{
closed = 1;
nodes = (
"90 134 LINE",
"102 88 LINE",
"216 266 LINE",
"204 312 LINE"
);
},
{
closed = 1;
nodes = (
"420 170 LINE",
"412 130 LINE",
"386 0 LINE",
"476 0 LINE",
"516 200 LINE",
"426 200 LINE"
);
},
{
closed = 1;
nodes = (
"331 1 OFFCURVE",
"341 0 OFFCURVE",
"351 0 CURVE SMOOTH",
"430 0 OFFCURVE",
"498 57 OFFCURVE",
"498 140 CURVE SMOOTH",
"498 207 OFFCURVE",
"447 269 OFFCURVE",
"376 283 CURVE SMOOTH",
"366 285 OFFCURVE",
"356 286 OFFCURVE",
"346 286 CURVE SMOOTH",
"267 286 OFFCURVE",
"200 226 OFFCURVE",
"200 146 CURVE SMOOTH",
"200 78 OFFCURVE",
"248 16 OFFCURVE",
"321 3 CURVE SMOOTH"
);
},
{
closed = 1;
nodes = (
"284 185 OFFCURVE",
"317 221 OFFCURVE",
"353 221 CURVE SMOOTH",
"388 221 OFFCURVE",
"414 188 OFFCURVE",
"414 148 CURVE SMOOTH",
"414 101 OFFCURVE",
"379 64 OFFCURVE",
"342 64 CURVE SMOOTH",
"307 64 OFFCURVE",
"284 97 OFFCURVE",
"284 137 CURVE SMOOTH"
);
}
);
width = 598;
}
);
},
{
glyphname = "wo-hira.fin";
lastChange = "2018-07-16 17:34:15 +0000";
layers = (
{
layerId = "CDF314B6-AD07-4304-BC80-988178CB760F";
paths = (
{
closed = 1;
nodes = (
"235 200 LINE",
"195 0 LINE",
"285 0 LINE",
"325 200 LINE"
);
},
{
closed = 1;
nodes = (
"755 322 OFFCURVE",
"756 329 OFFCURVE",
"756 335 CURVE SMOOTH",
"756 403 OFFCURVE",
"684 440 OFFCURVE",
"611 440 CURVE",
"599 380 LINE",
"650 380 OFFCURVE",
"665 355 OFFCURVE",
"665 329 CURVE SMOOTH",
"665 324 OFFCURVE",
"665 320 OFFCURVE",
"664 315 CURVE",
"754 315 LINE"
);
},
{
closed = 1;
nodes = (
"611 440 LINE",
"496 440 OFFCURVE",
"400 350 OFFCURVE",
"374 220 CURVE",
"464 220 LINE",
"484 320 OFFCURVE",
"543 380 OFFCURVE",
"599 380 CURVE"
);
},
{
closed = 1;
nodes = (
"159 124 LINE",
"147 64 LINE",
"531 160 LINE",
"543 220 LINE"
);
},
{
closed = 1;
nodes = (
"531 160 LINE",
"651 190 OFFCURVE",
"738 235 OFFCURVE",
"754 315 CURVE",
"664 315 LINE",
"654 265 OFFCURVE",
"603 235 OFFCURVE",
"543 220 CURVE"
);
},
{
closed = 1;
nodes = (
"571 60 LINE",
"519 60 OFFCURVE",
"460 98 OFFCURVE",
"460 180 CURVE SMOOTH",
"460 192 OFFCURVE",
"461 206 OFFCURVE",
"464 220 CURVE",
"374 220 LINE",
"371 203 OFFCURVE",
"369 187 OFFCURVE",
"369 172 CURVE SMOOTH",
"369 48 OFFCURVE",
"479 0 OFFCURVE",
"559 0 CURVE"
);
},
{
closed = 1;
nodes = (
"559 0 LINE",
"628 0 OFFCURVE",
"672 28 OFFCURVE",
"711 88 CURVE",
"719 134 LINE",
"659 79 OFFCURVE",
"628 60 OFFCURVE",
"571 60 CURVE"
);
},
{
closed = 1;
nodes = (
"325 200 LINE",
"329 220 LINE",
"239 220 LINE",
"235 200 LINE"
);
},
{
closed = 1;
nodes = (
"222 360 LINE",
"242 360 OFFCURVE",
"250 338 OFFCURVE",
"250 306 CURVE SMOOTH",
"250 281 OFFCURVE",
"245 251 OFFCURVE",
"239 220 CURVE",
"329 220 LINE",
"336 256 OFFCURVE",
"340 287 OFFCURVE",
"340 313 CURVE SMOOTH",
"340 385 OFFCURVE",
"310 420 OFFCURVE",
"234 420 CURVE"
);
},
{
closed = 1;
nodes = (
"234 420 LINE",
"198 420 OFFCURVE",
"169 392 OFFCURVE",
"145 332 CURVE",
"168 286 LINE",
"192 346 OFFCURVE",
"204 360 OFFCURVE",
"222 360 CURVE"
);
},
{
closed = 1;
nodes = (
"0 0 LINE",
"36 0 OFFCURVE",
"65 28 OFFCURVE",
"89 88 CURVE",
"66 134 LINE",
"42 74 OFFCURVE",
"30 60 OFFCURVE",
"12 60 CURVE"
);
},
{
closed = 1;
nodes = (
"66 134 LINE",
"89 88 LINE",
"168 286 LINE",
"145 332 LINE"
);
}
);
width = 806;
}
);
},
{
glyphname = "n-hira.fin";
lastChange = "2018-07-16 17:34:15 +0000";
layers = (
{
layerId = "CDF314B6-AD07-4304-BC80-988178CB760F";
paths = (
{
closed = 1;
nodes = (
"624 200 LINE",
"664 400 LINE",
"574 400 LINE",
"534 200 LINE"
);
},
{
closed = 1;
nodes = (
"726 260 LINE",
"687 260 OFFCURVE",
"659 283 OFFCURVE",
"659 346 CURVE SMOOTH",
"659 362 OFFCURVE",
"660 379 OFFCURVE",
"664 400 CURVE",
"574 400 LINE",
"571 381 OFFCURVE",
"569 363 OFFCURVE",
"569 347 CURVE SMOOTH",
"569 247 OFFCURVE",
"625 200 OFFCURVE",
"714 200 CURVE"
);
},
{
closed = 1;
nodes = (
"513 95 OFFCURVE",
"491 60 OFFCURVE",
"441 60 CURVE SMOOTH",
"412 60 OFFCURVE",
"396 78 OFFCURVE",
"396 127 CURVE SMOOTH",
"396 146 OFFCURVE",
"399 170 OFFCURVE",
"404 200 CURVE",
"314 200 LINE",
"310 174 OFFCURVE",
"308 150 OFFCURVE",
"308 129 CURVE SMOOTH",
"308 41 OFFCURVE",
"346 0 OFFCURVE",
"429 0 CURVE SMOOTH",
"532 0 OFFCURVE",
"596 60 OFFCURVE",
"624 200 CURVE",
"534 200 LINE"
);
},
{
closed = 1;
nodes = (
"404 200 LINE",
"444 400 LINE",
"354 400 LINE",
"314 200 LINE"
);
},
{
closed = 1;
nodes = (
"101 181 OFFCURVE",
"99 163 OFFCURVE",
"99 147 CURVE SMOOTH",
"99 47 OFFCURVE",
"155 0 OFFCURVE",
"244 0 CURVE SMOOTH",
"284 0 OFFCURVE",
"323 27 OFFCURVE",
"362 87 CURVE",
"370 133 LINE",
"310 78 OFFCURVE",
"296 60 OFFCURVE",
"256 60 CURVE SMOOTH",
"217 60 OFFCURVE",
"189 83 OFFCURVE",
"189 146 CURVE SMOOTH",
"189 162 OFFCURVE",
"190 179 OFFCURVE",
"194 200 CURVE",
"104 200 LINE"
);
},
{
closed = 1;
nodes = (
"0 0 LINE",
"69 0 OFFCURVE",
"113 28 OFFCURVE",
"152 88 CURVE",
"160 134 LINE",
"100 79 OFFCURVE",
"69 60 OFFCURVE",
"12 60 CURVE"
);
},
{
closed = 1;
nodes = (
"194 200 LINE",
"234 400 LINE",
"144 400 LINE",
"104 200 LINE"
);
}
);
width = 776;
}
);
},
{
glyphname = "a-hira.ini";
lastChange = "2018-07-16 17:34:15 +0000";
layers = (
{
anchors = (
{
name = daku;
position = "{282, 440}";
}
);
layerId = "CDF314B6-AD07-4304-BC80-988178CB760F";
paths = (
{
closed = 1;
nodes = (
"425 259 OFFCURVE",
"427 277 OFFCURVE",
"427 293 CURVE SMOOTH",
"427 393 OFFCURVE",
"371 440 OFFCURVE",
"282 440 CURVE SMOOTH",
"213 440 OFFCURVE",
"150 412 OFFCURVE",
"110 352 CURVE",
"122 306 LINE",
"158 361 OFFCURVE",
"213 380 OFFCURVE",
"270 380 CURVE SMOOTH",
"309 380 OFFCURVE",
"337 357 OFFCURVE",
"337 294 CURVE SMOOTH",
"337 278 OFFCURVE",
"336 261 OFFCURVE",
"332 240 CURVE",
"422 240 LINE"
);
},
{
closed = 1;
nodes = (
"326 200 LINE",
"308 95 OFFCURVE",
"264 60 OFFCURVE",
"208 60 CURVE SMOOTH",
"164 60 OFFCURVE",
"140 82 OFFCURVE",
"140 114 CURVE SMOOTH",
"140 119 OFFCURVE",
"141 124 OFFCURVE",
"142 129 CURVE",
"52 129 LINE",
"50 121 OFFCURVE",
"50 113 OFFCURVE",
"50 105 CURVE SMOOTH",
"50 24 OFFCURVE",
"144 0 OFFCURVE",
"196 0 CURVE SMOOTH",
"311 0 OFFCURVE",
"394 63 OFFCURVE",
"416 200 CURVE"
);
},
{
closed = 1;
nodes = (
"339 60 OFFCURVE",
"358 234 OFFCURVE",
"218 234 CURVE SMOOTH",
"176 234 OFFCURVE",
"72 229 OFFCURVE",
"52 129 CURVE",
"142 129 LINE",
"148 159 OFFCURVE",
"176 174 OFFCURVE",
"206 174 CURVE SMOOTH",
"306 174 OFFCURVE",
"296 0 OFFCURVE",
"416 0 CURVE",
"428 60 LINE"
);
},
{
closed = 1;
nodes = (
"326 200 LINE",
"416 200 LINE",
"422 240 LINE",
"332 240 LINE"
);
}
);
width = 416;
}
);
},
{
glyphname = "i-hira.ini";
lastChange = "2018-07-16 17:34:15 +0000";
layers = (
{
anchors = (
{
name = daku;
position = "{348, 430}";
}
);
layerId = "CDF314B6-AD07-4304-BC80-988178CB760F";
paths = (
{
closed = 1;
nodes = (
"258 200 LINE",
"278 300 LINE",
"174 230 LINE",
"168 200 LINE"
);
},
{
closed = 1;
nodes = (
"165 181 OFFCURVE",
"163 163 OFFCURVE",
"163 147 CURVE SMOOTH",
"163 47 OFFCURVE",
"219 0 OFFCURVE",
"308 0 CURVE SMOOTH",
"377 0 OFFCURVE",
"421 28 OFFCURVE",
"460 88 CURVE",
"468 134 LINE",
"408 79 OFFCURVE",
"377 60 OFFCURVE",
"320 60 CURVE SMOOTH",
"281 60 OFFCURVE",
"253 83 OFFCURVE",
"253 146 CURVE SMOOTH",
"253 162 OFFCURVE",
"254 179 OFFCURVE",
"258 200 CURVE",
"168 200 LINE"
);
},
{
closed = 1;
nodes = (
"528 200 LINE",
"568 400 LINE",
"478 400 LINE",
"438 200 LINE"
);
},
{
closed = 1;
nodes = (
"228 212 OFFCURVE",
"280 257 OFFCURVE",
"280 320 CURVE SMOOTH",
"280 379 OFFCURVE",
"229 432 OFFCURVE",
"162 432 CURVE SMOOTH",
"102 432 OFFCURVE",
"50 386 OFFCURVE",
"50 324 CURVE SMOOTH",
"50 265 OFFCURVE",
"99 212 OFFCURVE",
"167 212 CURVE SMOOTH"
);
},
{
closed = 1;
nodes = (
"116 354 OFFCURVE",
"140 382 OFFCURVE",
"168 382 CURVE SMOOTH",
"195 382 OFFCURVE",
"215 356 OFFCURVE",
"215 325 CURVE SMOOTH",
"215 290 OFFCURVE",
"189 261 OFFCURVE",
"160 261 CURVE SMOOTH",
"133 261 OFFCURVE",
"116 287 OFFCURVE",
"116 318 CURVE SMOOTH"
);
},
{
closed = 1;
nodes = (
"590 60 LINE",
"551 60 OFFCURVE",
"523 83 OFFCURVE",
"523 146 CURVE SMOOTH",
"523 162 OFFCURVE",
"524 179 OFFCURVE",
"528 200 CURVE",
"438 200 LINE",
"435 181 OFFCURVE",
"433 163 OFFCURVE",
"433 147 CURVE SMOOTH",
"433 47 OFFCURVE",
"489 0 OFFCURVE",
"578 0 CURVE"
);
}
);
width = 578;
}
);
},
{
glyphname = "u-hira.ini";
lastChange = "2018-07-16 17:34:15 +0000";
layers = (
{
anchors = (
{
name = daku;
position = "{296, 300}";
}
);
layerId = "CDF314B6-AD07-4304-BC80-988178CB760F";
paths = (
{
closed = 1;
nodes = (
"331 0 LINE",
"297 -170 OFFCURVE",
"237 -340 OFFCURVE",
"174 -340 CURVE",
"162 -400 LINE",
"299 -400 OFFCURVE",
"365 -279 OFFCURVE",
"421 0 CURVE"
);
},
{
closed = 1;
nodes = (
"174 -340 LINE",
"150 -340 OFFCURVE",
"141 -327 OFFCURVE",
"141 -300 CURVE SMOOTH",
"141 -287 OFFCURVE",
"143 -270 OFFCURVE",
"147 -250 CURVE",
"57 -250 LINE",
"53 -272 OFFCURVE",
"50 -291 OFFCURVE",
"50 -309 CURVE SMOOTH",
"50 -370 OFFCURVE",
"81 -400 OFFCURVE",
"162 -400 CURVE"
);
},
{
closed = 1;
nodes = (
"423 9 OFFCURVE",
"424 18 OFFCURVE",
"424 27 CURVE SMOOTH",
"424 86 OFFCURVE",
"388 144 OFFCURVE",
"327 144 CURVE SMOOTH",
"313 144 OFFCURVE",
"297 141 OFFCURVE",
"281 134 CURVE",
"181 94 LINE",
"169 34 LINE",
"269 74 LINE",
"279 78 OFFCURVE",
"287 80 OFFCURVE",
"295 80 CURVE SMOOTH",
"320 80 OFFCURVE",
"334 60 OFFCURVE",
"334 28 CURVE SMOOTH",
"334 20 OFFCURVE",
"333 10 OFFCURVE",
"331 0 CURVE",
"421 0 LINE"
);
},
{
closed = 1;
nodes = (
"457 203 OFFCURVE",
"457 207 OFFCURVE",
"457 210 CURVE SMOOTH",
"457 256 OFFCURVE",
"392 300 OFFCURVE",
"296 300 CURVE SMOOTH",
"227 300 OFFCURVE",
"164 272 OFFCURVE",
"124 212 CURVE",
"136 166 LINE",
"172 221 OFFCURVE",
"227 240 OFFCURVE",
"284 240 CURVE SMOOTH",
"333 240 OFFCURVE",
"371 225 OFFCURVE",
"366 200 CURVE",
"456 200 LINE"
);
},
{
closed = 1;
nodes = (
"269 74 LINE",
"319 94 OFFCURVE",
"446 150 OFFCURVE",
"456 200 CURVE",
"366 200 LINE",
"361 175 OFFCURVE",
"331 154 OFFCURVE",
"281 134 CURVE"
);
},
{
closed = 1;
nodes = (
"433 60 LINE",
"294 25 OFFCURVE",
"94 -71 OFFCURVE",
"57 -250 CURVE",
"147 -250 LINE",
"172 -141 OFFCURVE",
"271 -49 OFFCURVE",
"421 0 CURVE"
);
},
{
closed = 1;
nodes = (
"376 0 LINE",
"421 0 LINE",
"433 60 LINE",
"388 60 LINE"
);
}
);
width = 421;
}
);
},
{
glyphname = "e-hira.ini";
lastChange = "2018-07-16 17:34:15 +0000";
layers = (
{
anchors = (
{
name = daku;
position = "{264, 600}";
}
);
layerId = "CDF314B6-AD07-4304-BC80-988178CB760F";
paths = (
{
closed = 1;
nodes = (
"181 181 OFFCURVE",
"179 163 OFFCURVE",
"179 147 CURVE SMOOTH",
"179 47 OFFCURVE",
"235 0 OFFCURVE",
"324 0 CURVE",
"336 60 LINE",
"297 60 OFFCURVE",
"269 83 OFFCURVE",
"269 146 CURVE SMOOTH",
"269 162 OFFCURVE",
"270 179 OFFCURVE",
"274 200 CURVE",
"184 200 LINE"
);
},
{
closed = 1;
nodes = (
"139 200 LINE",
"103 200 OFFCURVE",
"74 183 OFFCURVE",
"50 123 CURVE",
"73 77 LINE",
"97 137 OFFCURVE",
"109 140 OFFCURVE",
"127 140 CURVE"
);
},
{
closed = 1;
nodes = (
"144 0 LINE",
"104 -200 LINE",
"194 -200 LINE",
"234 0 LINE"
);
},
{
closed = 1;
nodes = (
"104 -200 LINE",
"64 -400 LINE",
"154 -400 LINE",
"194 -200 LINE"
);
},
{
closed = 1;
nodes = (
"224 400 LINE",
"184 200 LINE",
"274 200 LINE",
"314 400 LINE"
);
},
{
closed = 1;
nodes = (
"264 600 LINE",
"224 400 LINE",
"314 400 LINE",
"354 600 LINE"
);
},
{
closed = 1;
nodes = (
"127 140 LINE",
"147 140 OFFCURVE",
"155 118 OFFCURVE",
"155 86 CURVE SMOOTH",
"155 61 OFFCURVE",
"150 31 OFFCURVE",
"144 0 CURVE",
"234 0 LINE",
"240 36 OFFCURVE",
"243 66 OFFCURVE",
"243 92 CURVE SMOOTH",
"243 166 OFFCURVE",
"216 200 OFFCURVE",
"139 200 CURVE"
);
}
);
width = 324;
}
);
},
{
glyphname = "o-hira.ini";
lastChange = "2018-07-16 17:34:15 +0000";
layers = (
{
anchors = (
{
name = daku;
position = "{365, 420}";
}
);
layerId = "CDF314B6-AD07-4304-BC80-988178CB760F";
paths = (
{
closed = 1;
nodes = (
"170 200 LINE",
"130 0 LINE",
"220 0 LINE",
"260 200 LINE"
);
},
{
closed = 1;
nodes = (
"579 252 OFFCURVE",
"581 264 OFFCURVE",
"581 275 CURVE SMOOTH",
"581 358 OFFCURVE",
"518 420 OFFCURVE",
"413 420 CURVE SMOOTH",
"293 420 OFFCURVE",
"195 325 OFFCURVE",
"170 200 CURVE",
"260 200 LINE",
"280 300 OFFCURVE",
"344 360 OFFCURVE",
"401 360 CURVE SMOOTH",
"463 360 OFFCURVE",
"491 326 OFFCURVE",
"491 275 CURVE SMOOTH",
"491 264 OFFCURVE",
"489 252 OFFCURVE",
"487 240 CURVE",
"577 240 LINE"
);
},
{
closed = 1;
nodes = (
"365 120 LINE",
"329 120 OFFCURVE",
"314 123 OFFCURVE",
"290 139 CURVE",
"254 85 LINE",
"278 69 OFFCURVE",
"305 60 OFFCURVE",
"353 60 CURVE"
);
},
{
closed = 1;
nodes = (
"130 0 LINE",
"90 -200 LINE",
"180 -200 LINE",
"220 0 LINE"
);
},
{
closed = 1;
nodes = (
"90 -200 LINE",
"50 -400 LINE",
"140 -400 LINE",
"180 -200 LINE"
);
},
{
closed = 1;
nodes = (
"353 60 LINE",
"468 60 OFFCURVE",
"557 140 OFFCURVE",
"577 240 CURVE",
"487 240 LINE",
"473 170 OFFCURVE",
"421 120 OFFCURVE",
"365 120 CURVE"
);
},
{
closed = 1;
nodes = (
"537 60 LINE",
"477 60 OFFCURVE",
"370 59 OFFCURVE",
"290 139 CURVE",
"254 85 LINE",
"334 5 OFFCURVE",
"465 0 OFFCURVE",
"525 0 CURVE"
);
},
{
closed = 1;
nodes = (
"165 400 LINE",
"129 400 OFFCURVE",
"100 383 OFFCURVE",
"76 323 CURVE",
"99 277 LINE",
"123 337 OFFCURVE",
"135 340 OFFCURVE",
"153 340 CURVE"
);
},
{
closed = 1;
nodes = (
"153 340 LINE",
"173 340 OFFCURVE",
"181 318 OFFCURVE",
"181 286 CURVE SMOOTH",
"181 261 OFFCURVE",
"176 231 OFFCURVE",
"170 200 CURVE",
"260 200 LINE",
"266 236 OFFCURVE",
"269 266 OFFCURVE",
"269 292 CURVE SMOOTH",
"269 366 OFFCURVE",
"242 400 OFFCURVE",
"165 400 CURVE"
);
}
);
width = 525;
}
);
},
{
glyphname = "ka-hira.ini";
lastChange = "2018-07-14 22:20:20 +0000";
layers = (
{
components = (
{
name = "kadotless-hira.ini";
}
);
layerId = "CDF314B6-AD07-4304-BC80-988178CB760F";
paths = (
{
closed = 1;
nodes = (
"381 260 OFFCURVE",
"403 282 OFFCURVE",
"403 310 CURVE SMOOTH",
"403 338 OFFCURVE",
"381 360 OFFCURVE",
"353 360 CURVE SMOOTH",
"325 360 OFFCURVE",
"303 338 OFFCURVE",
"303 310 CURVE SMOOTH",
"303 282 OFFCURVE",
"325 260 OFFCURVE",
"353 260 CURVE SMOOTH"
);
}
);
width = 421;
}
);
},
{
glyphname = "ki-hira.ini";
lastChange = "2018-07-14 22:21:40 +0000";
layers = (
{
components = (
{
name = "kidotless-hira.ini";
}
);
layerId = "CDF314B6-AD07-4304-BC80-988178CB760F";
paths = (
{
closed = 1;
nodes = (
"372 300 OFFCURVE",
"394 322 OFFCURVE",
"394 350 CURVE SMOOTH",
"394 378 OFFCURVE",
"372 400 OFFCURVE",
"344 400 CURVE SMOOTH",
"316 400 OFFCURVE",
"294 378 OFFCURVE",
"294 350 CURVE SMOOTH",
"294 322 OFFCURVE",
"316 300 OFFCURVE",
"344 300 CURVE SMOOTH"
);
}
);
width = 589;
}
);
},
{
glyphname = "ku-hira.ini";
lastChange = "2018-07-16 17:34:15 +0000";
layers = (
{
anchors = (
{
name = daku;
position = "{293, 246}";
}
);
layerId = "CDF314B6-AD07-4304-BC80-988178CB760F";
paths = (
{
closed = 1;
nodes = (
"510 60 LINE",
"474 60 OFFCURVE",
"446 36 OFFCURVE",
"410 12 CURVE",
"446 -24 LINE",
"464 -12 OFFCURVE",
"480 0 OFFCURVE",
"498 0 CURVE"
);
},
{
closed = 1;
nodes = (
"293 246 LINE",
"217 196 OFFCURVE",
"189 147 OFFCURVE",
"189 96 CURVE SMOOTH",
"189 74 OFFCURVE",
"194 52 OFFCURVE",
"203 30 CURVE",
"293 30 LINE",
"279 66 OFFCURVE",
"266 94 OFFCURVE",
"266 121 CURVE SMOOTH",
"266 151 OFFCURVE",
"282 178 OFFCURVE",
"329 210 CURVE"
);
},
{
closed = 1;
nodes = (
"86 48 LINE",
"329 210 LINE",
"293 246 LINE",
"50 84 LINE"
);
},
{
closed = 1;
nodes = (
"329 210 LINE",
"410 264 LINE",
"374 300 LINE",
"293 246 LINE"
);
},
{
closed = 1;
nodes = (
"203 -186 LINE",
"446 -24 LINE",
"410 12 LINE",
"167 -150 LINE"
);
},
{
closed = 1;
nodes = (
"203 -186 LINE",
"279 -136 OFFCURVE",
"307 -87 OFFCURVE",
"307 -36 CURVE SMOOTH",
"307 -14 OFFCURVE",
"302 8 OFFCURVE",
"293 30 CURVE",
"203 30 LINE",
"217 -6 OFFCURVE",
"230 -34 OFFCURVE",
"230 -61 CURVE SMOOTH",
"230 -91 OFFCURVE",
"214 -118 OFFCURVE",
"167 -150 CURVE"
);
},
{
closed = 1;
nodes = (
"122 -240 LINE",
"203 -186 LINE",
"167 -150 LINE",
"86 -204 LINE"
);
}
);
width = 498;
}
);
},
{
glyphname = "ke-hira.ini";
lastChange = "2018-07-16 17:34:15 +0000";
layers = (
{
anchors = (
{
name = daku;
position = "{232, 200}";
}
);
layerId = "CDF314B6-AD07-4304-BC80-988178CB760F";
paths = (
{
closed = 1;
nodes = (
"374 12 LINE",
"50 -204 LINE",
"86 -240 LINE",
"410 -24 LINE"
);
},
{
closed = 1;
nodes = (
"474 60 LINE",
"438 60 OFFCURVE",
"410 36 OFFCURVE",
"374 12 CURVE",
"410 -24 LINE",
"428 -12 OFFCURVE",
"444 0 OFFCURVE",
"462 0 CURVE"
);
},
{
closed = 1;
nodes = (
"332 -200 LINE",
"372 0 LINE",
"282 0 LINE",
"242 -200 LINE"
);
},
{
closed = 1;
nodes = (
"50 0 LINE",
"95 0 OFFCURVE",
"138 -41 OFFCURVE",
"138 -86 CURVE SMOOTH",
"138 -90 OFFCURVE",
"138 -94 OFFCURVE",
"137 -99 CURVE",
"227 -99 LINE",
"229 -89 OFFCURVE",
"230 -79 OFFCURVE",
"230 -70 CURVE SMOOTH",
"230 12 OFFCURVE",
"154 60 OFFCURVE",
"62 60 CURVE"
);
},
{
closed = 1;
nodes = (
"146 -200 OFFCURVE",
"214 -156 OFFCURVE",
"227 -99 CURVE",
"137 -99 LINE",
"127 -149 OFFCURVE",
"95 -174 OFFCURVE",
"50 -204 CURVE",
"86 -240 LINE"
);
},
{
closed = 1;
nodes = (
"372 0 LINE",
"412 200 LINE",
"322 200 LINE",
"282 0 LINE"
);
},
{
closed = 1;
nodes = (
"292 -400 LINE",
"332 -200 LINE",
"242 -200 LINE",
"202 -400 LINE"
);
}
);
width = 462;
}
);
},
{
glyphname = "ko-hira.ini";
lastChange = "2018-07-16 17:34:15 +0000";
layers = (
{
anchors = (
{
name = daku;
position = "{263, 430}";
}
);
layerId = "CDF314B6-AD07-4304-BC80-988178CB760F";
paths = (
{
closed = 1;
nodes = (
"335 200 LINE",
"355 300 LINE",
"251 230 LINE",
"245 200 LINE"
);
},
{
closed = 1;
nodes = (
"305 212 OFFCURVE",
"357 257 OFFCURVE",
"357 320 CURVE SMOOTH",
"357 379 OFFCURVE",
"306 432 OFFCURVE",
"239 432 CURVE SMOOTH",
"179 432 OFFCURVE",
"127 386 OFFCURVE",
"127 324 CURVE SMOOTH",
"127 265 OFFCURVE",
"176 212 OFFCURVE",
"244 212 CURVE SMOOTH"
);
},
{
closed = 1;
nodes = (
"193 354 OFFCURVE",
"217 382 OFFCURVE",
"245 382 CURVE SMOOTH",
"272 382 OFFCURVE",
"292 356 OFFCURVE",
"292 325 CURVE SMOOTH",
"292 290 OFFCURVE",
"266 261 OFFCURVE",
"237 261 CURVE SMOOTH",
"210 261 OFFCURVE",
"193 287 OFFCURVE",
"193 318 CURVE SMOOTH"
);
},
{
closed = 1;
nodes = (
"245 200 LINE",
"458 200 LINE",
"470 260 LINE",
"257 260 LINE"
);
},
{
closed = 1;
nodes = (
"50 0 LINE",
"165 0 OFFCURVE",
"282 63 OFFCURVE",
"326 200 CURVE",
"245 200 LINE",
"209 95 OFFCURVE",
"118 60 OFFCURVE",
"62 60 CURVE"
);
},
{
closed = 1;
nodes = (
"475 60 LINE",
"454 60 OFFCURVE",
"447 79 OFFCURVE",
"447 111 CURVE SMOOTH",
"447 135 OFFCURVE",
"451 166 OFFCURVE",
"458 200 CURVE",
"377 200 LINE",
"369 158 OFFCURVE",
"364 123 OFFCURVE",
"364 95 CURVE SMOOTH",
"364 29 OFFCURVE",
"390 0 OFFCURVE",
"463 0 CURVE"
);
}
);
width = 463;
}
);
},
{
glyphname = "sa-hira.ini";
lastChange = "2018-07-16 17:34:15 +0000";
layers = (
{
anchors = (
{
name = daku;
position = "{278, 440}";
}
);
layerId = "CDF314B6-AD07-4304-BC80-988178CB760F";
paths = (
{
closed = 1;
nodes = (
"552 322 OFFCURVE",
"553 329 OFFCURVE",
"553 335 CURVE SMOOTH",
"553 403 OFFCURVE",
"481 440 OFFCURVE",
"408 440 CURVE",
"396 380 LINE",
"447 380 OFFCURVE",
"462 355 OFFCURVE",
"462 329 CURVE SMOOTH",
"462 324 OFFCURVE",
"462 320 OFFCURVE",
"461 315 CURVE",
"551 315 LINE"
);
},
{
closed = 1;
nodes = (
"287 190 LINE",
"402 190 OFFCURVE",
"531 215 OFFCURVE",
"551 315 CURVE",
"461 315 LINE",
"451 265 OFFCURVE",
"355 250 OFFCURVE",
"299 250 CURVE"
);
},
{
closed = 1;
nodes = (
"234 250 LINE",
"222 190 LINE",
"287 190 LINE",
"299 250 LINE"
);
},
{
closed = 1;
nodes = (
"408 440 LINE",
"341 440 OFFCURVE",
"282 410 OFFCURVE",
"237 359 CURVE",
"239 354 OFFCURVE",
"240 348 OFFCURVE",
"240 342 CURVE SMOOTH",
"240 310 OFFCURVE",
"215 271 OFFCURVE",
"179 253 CURVE",
"177 242 OFFCURVE",
"173 231 OFFCURVE",
"171 220 CURVE",
"261 220 LINE",
"281 320 OFFCURVE",
"340 380 OFFCURVE",
"396 380 CURVE"
);
},
{
closed = 1;
nodes = (
"228 212 OFFCURVE",
"280 257 OFFCURVE",
"280 320 CURVE SMOOTH",
"280 379 OFFCURVE",
"229 432 OFFCURVE",
"162 432 CURVE SMOOTH",
"102 432 OFFCURVE",
"50 386 OFFCURVE",
"50 324 CURVE SMOOTH",
"50 265 OFFCURVE",
"99 212 OFFCURVE",
"167 212 CURVE SMOOTH"
);
},
{
closed = 1;
nodes = (
"116 354 OFFCURVE",
"140 382 OFFCURVE",
"168 382 CURVE SMOOTH",
"195 382 OFFCURVE",
"215 356 OFFCURVE",
"215 325 CURVE SMOOTH",
"215 290 OFFCURVE",
"189 261 OFFCURVE",
"160 261 CURVE SMOOTH",
"133 261 OFFCURVE",
"116 287 OFFCURVE",
"116 318 CURVE SMOOTH"
);
},
{
closed = 1;
nodes = (
"500 60 LINE",
"378 60 OFFCURVE",
"256 60 OFFCURVE",
"256 176 CURVE SMOOTH",
"256 189 OFFCURVE",
"258 204 OFFCURVE",
"261 220 CURVE",
"171 220 LINE",
"167 198 OFFCURVE",
"165 179 OFFCURVE",
"165 161 CURVE SMOOTH",
"165 0 OFFCURVE",
"336 0 OFFCURVE",
"488 0 CURVE"
);
}
);
width = 488;
}
);
},
{
glyphname = "si-hira.ini";
lastChange = "2018-07-16 17:34:15 +0000";
layers = (
{
anchors = (
{
name = daku;
position = "{225, 440}";
}
);
layerId = "CDF314B6-AD07-4304-BC80-988178CB760F";
paths = (
{
closed = 1;
nodes = (
"116 353 LINE",
"143 371 OFFCURVE",
"179 380 OFFCURVE",
"213 380 CURVE",
"225 440 LINE",
"193 440 OFFCURVE",
"160 433 OFFCURVE",
"130 421 CURVE"
);
},
{
closed = 1;
nodes = (
"346 132 OFFCURVE",
"347 139 OFFCURVE",
"347 145 CURVE SMOOTH",
"347 213 OFFCURVE",
"275 250 OFFCURVE",
"202 250 CURVE",
"116 250 LINE",
"104 190 LINE",
"190 190 LINE",
"241 190 OFFCURVE",
"256 165 OFFCURVE",
"256 139 CURVE SMOOTH",
"256 134 OFFCURVE",
"256 130 OFFCURVE",
"255 125 CURVE",
"345 125 LINE"
);
},
{
closed = 1;
nodes = (
"152 0 LINE",
"267 0 OFFCURVE",
"325 25 OFFCURVE",
"345 125 CURVE",
"255 125 LINE",
"245 75 OFFCURVE",
"220 60 OFFCURVE",
"164 60 CURVE"
);
},
{
closed = 1;
nodes = (
"369 322 OFFCURVE",
"370 329 OFFCURVE",
"370 335 CURVE SMOOTH",
"370 403 OFFCURVE",
"298 440 OFFCURVE",
"225 440 CURVE",
"213 380 LINE",
"264 380 OFFCURVE",
"279 355 OFFCURVE",
"279 329 CURVE SMOOTH",
"279 324 OFFCURVE",
"279 320 OFFCURVE",
"278 315 CURVE",
"368 315 LINE"
);
},
{
closed = 1;
nodes = (
"104 190 LINE",
"219 190 OFFCURVE",
"349 215 OFFCURVE",
"368 315 CURVE",
"278 315 LINE",
"268 265 OFFCURVE",
"172 250 OFFCURVE",
"116 250 CURVE"
);
},
{
closed = 1;
nodes = (
"50 20 LINE",
"66 8 OFFCURVE",
"136 0 OFFCURVE",
"152 0 CURVE",
"164 60 LINE",
"148 60 OFFCURVE",
"78 68 OFFCURVE",
"62 80 CURVE"
);
},
{
closed = 1;
nodes = (
"152 0 LINE",
"320 0 LINE",
"332 60 LINE",
"164 60 LINE"
);
}
);
width = 320;
}
);
},
{
glyphname = "su-hira.ini";
lastChange = "2018-07-16 17:34:15 +0000";
layers = (
{
anchors = (
{
name = daku;
position = "{211, 60}";
}
);
layerId = "CDF314B6-AD07-4304-BC80-988178CB760F";
paths = (
{
closed = 1;
nodes = (
"107 60 LINE",
"95 0 LINE",
"373 0 LINE",
"385 60 LINE"
);
},
{
closed = 1;
nodes = (
"223 -30 LINE",
"165 -30 OFFCURVE",
"136 -58 OFFCURVE",
"112 -118 CURVE",
"135 -164 LINE",
"159 -104 OFFCURVE",
"181 -90 OFFCURVE",
"211 -90 CURVE"
);
},
{
closed = 1;
nodes = (
"211 -90 LINE",
"233 -90 OFFCURVE",
"249 -109 OFFCURVE",
"249 -150 CURVE SMOOTH",
"249 -164 OFFCURVE",
"247 -181 OFFCURVE",
"243 -200 CURVE SMOOTH",
"213 -350 OFFCURVE",
"66 -490 OFFCURVE",
"6 -490 CURVE",
"-6 -550 LINE",
"84 -550 OFFCURVE",
"293 -400 OFFCURVE",
"333 -200 CURVE SMOOTH",
"336 -186 OFFCURVE",
"337 -173 OFFCURVE",
"337 -160 CURVE SMOOTH",
"337 -84 OFFCURVE",
"291 -30 OFFCURVE",
"223 -30 CURVE"
);
}
);
width = 373;
}
);
},
{
glyphname = "se-hira.ini";
lastChange = "2018-07-14 13:07:35 +0000";
layers = (
{
anchors = (
{
name = daku;
position = "{260, 400}";
}
);
layerId = "CDF314B6-AD07-4304-BC80-988178CB760F";
paths = (
{
closed = 1;
nodes = (
"50 0 LINE",
"86 0 OFFCURVE",
"116 8 OFFCURVE",
"156 48 CURVE",
"126 108 LINE",
"96 78 OFFCURVE",
"80 60 OFFCURVE",
"62 60 CURVE"
);
},
{
closed = 1;
nodes = (
"156 48 LINE",
"456 348 LINE",
"426 408 LINE",
"126 108 LINE"
);
},
{
closed = 1;
nodes = (
"456 348 LINE",
"488 380 LINE",
"508 400 LINE",
"516 440 LINE",
"458 440 LINE",
"426 408 LINE"
);
},
{
closed = 1;
nodes = (
"418 400 LINE",
"378 200 LINE",
"468 200 LINE",
"508 400 LINE"
);
},
{
closed = 1;
nodes = (
"378 200 LINE",
"338 0 LINE",
"428 0 LINE",
"468 200 LINE"
);
},
{
closed = 1;
nodes = (
"260 0 LINE",
"375 0 OFFCURVE",
"433 25 OFFCURVE",
"453 125 CURVE",
"363 125 LINE",
"353 75 OFFCURVE",
"328 60 OFFCURVE",
"272 60 CURVE"
);
},
{
closed = 1;
nodes = (
"260 0 LINE",
"473 0 LINE",
"485 60 LINE",
"272 60 LINE"
);
}
);
width = 473;
}
);
},
{
glyphname = "so-hira.ini";
lastChange = "2018-07-16 17:34:15 +0000";
layers = (
{
anchors = (
{
name = daku;
position = "{289, 440}";
}
);
layerId = "CDF314B6-AD07-4304-BC80-988178CB760F";
paths = (
{
closed = 1;
nodes = (
"532 259 OFFCURVE",
"534 277 OFFCURVE",
"534 293 CURVE SMOOTH",
"534 393 OFFCURVE",
"478 440 OFFCURVE",
"389 440 CURVE SMOOTH",
"320 440 OFFCURVE",
"276 412 OFFCURVE",
"237 352 CURVE",
"229 306 LINE",
"289 361 OFFCURVE",
"320 380 OFFCURVE",
"377 380 CURVE SMOOTH",
"416 380 OFFCURVE",
"444 357 OFFCURVE",
"444 294 CURVE SMOOTH",
"444 278 OFFCURVE",
"443 261 OFFCURVE",
"439 240 CURVE",
"529 240 LINE"
);
},
{
closed = 1;
nodes = (
"163 200 LINE",
"123 0 LINE",
"213 0 LINE",
"253 200 LINE"
);
},
{
closed = 1;
nodes = (
"540 60 LINE",
"520 60 OFFCURVE",
"512 82 OFFCURVE",
"512 114 CURVE SMOOTH",
"512 139 OFFCURVE",
"517 169 OFFCURVE",
"523 200 CURVE",
"433 200 LINE",
"427 164 OFFCURVE",
"424 134 OFFCURVE",
"424 108 CURVE SMOOTH",
"424 34 OFFCURVE",
"451 0 OFFCURVE",
"528 0 CURVE"
);
},
{
closed = 1;
nodes = (
"152 380 LINE",
"172 380 OFFCURVE",
"180 358 OFFCURVE",
"180 326 CURVE SMOOTH",
"180 301 OFFCURVE",
"175 271 OFFCURVE",
"169 240 CURVE",
"259 240 LINE",
"265 276 OFFCURVE",
"268 306 OFFCURVE",
"268 332 CURVE SMOOTH",
"268 406 OFFCURVE",
"241 440 OFFCURVE",
"164 440 CURVE"
);
},
{
closed = 1;
nodes = (
"163 200 LINE",
"253 200 LINE",
"259 240 LINE",
"169 240 LINE"
);
},
{
closed = 1;
nodes = (
"433 200 LINE",
"523 200 LINE",
"529 240 LINE",
"439 240 LINE"
);
},
{
closed = 1;
nodes = (
"164 440 LINE",
"128 440 OFFCURVE",
"74 412 OFFCURVE",
"50 352 CURVE",
"73 306 LINE",
"97 366 OFFCURVE",
"128 380 OFFCURVE",
"152 380 CURVE"
);
}
);
width = 528;
}
);
},
{
glyphname = "ta-hira.ini";
lastChange = "2018-07-16 17:34:15 +0000";
layers = (
{
anchors = (
{
name = daku;
position = "{480, 800}";
}
);
layerId = "CDF314B6-AD07-4304-BC80-988178CB760F";
paths = (
{
closed = 1;
nodes = (
"588 219 OFFCURVE",
"590 237 OFFCURVE",
"590 253 CURVE SMOOTH",
"590 353 OFFCURVE",
"534 400 OFFCURVE",
"445 400 CURVE SMOOTH",
"376 400 OFFCURVE",
"332 372 OFFCURVE",
"293 312 CURVE",
"285 266 LINE",
"345 321 OFFCURVE",
"376 340 OFFCURVE",
"433 340 CURVE SMOOTH",
"472 340 OFFCURVE",
"500 317 OFFCURVE",
"500 254 CURVE SMOOTH",
"500 238 OFFCURVE",
"499 221 OFFCURVE",
"495 200 CURVE",
"585 200 LINE"
);
},
{
closed = 1;
nodes = (
"225 200 LINE",
"185 0 LINE",
"275 0 LINE",
"315 200 LINE"
);
},
{
closed = 1;
nodes = (
"602 60 LINE",
"582 60 OFFCURVE",
"574 82 OFFCURVE",
"574 114 CURVE SMOOTH",
"574 139 OFFCURVE",
"579 169 OFFCURVE",
"585 200 CURVE",
"495 200 LINE",
"489 164 OFFCURVE",
"486 134 OFFCURVE",
"486 108 CURVE SMOOTH",
"486 34 OFFCURVE",
"513 0 OFFCURVE",
"590 0 CURVE"
);
},
{
closed = 1;
nodes = (
"265 400 LINE",
"225 200 LINE",
"315 200 LINE",
"355 400 LINE"
);
},
{
closed = 1;
nodes = (
"305 600 LINE",
"265 400 LINE",
"355 400 LINE",
"395 600 LINE"
);
},
{
closed = 1;
nodes = (
"255 185 LINE",
"285 245 OFFCURVE",
"512 626 OFFCURVE",
"529 710 CURVE SMOOTH",
"532 724 OFFCURVE",
"533 736 OFFCURVE",
"533 747 CURVE SMOOTH",
"533 782 OFFCURVE",
"517 800 OFFCURVE",
"480 800 CURVE SMOOTH",
"388 800 OFFCURVE",
"331 727 OFFCURVE",
"305 600 CURVE",
"395 600 LINE",
"410 683 OFFCURVE",
"447 740 OFFCURVE",
"468 740 CURVE SMOOTH",
"483 740 OFFCURVE",
"489 734 OFFCURVE",
"489 721 CURVE SMOOTH",
"489 718 OFFCURVE",
"489 714 OFFCURVE",
"488 710 CURVE SMOOTH",
"474 639 OFFCURVE",
"255 260 OFFCURVE",
"225 200 CURVE"
);
},
{
closed = 1;
nodes = (
"50 100 LINE",
"119 100 OFFCURVE",
"250 235 OFFCURVE",
"275 285 CURVE",
"245 300 LINE",
"220 250 OFFCURVE",
"119 160 OFFCURVE",
"62 160 CURVE"
);
}
);
width = 590;
}
);
},
{
glyphname = "ti-hira.ini";
lastChange = "2018-07-16 17:34:15 +0000";
layers = (
{
anchors = (
{
name = daku;
position = "{382, 410}";
}
);
layerId = "CDF314B6-AD07-4304-BC80-988178CB760F";
paths = (
{
closed = 1;
nodes = (
"391 0 LINE",
"436 0 LINE",
"448 60 LINE",
"403 60 LINE"
);
},
{
closed = 1;
nodes = (
"346 0 LINE",
"296 -250 OFFCURVE",
"159 -340 OFFCURVE",
"99 -340 CURVE",
"87 -400 LINE",
"177 -400 OFFCURVE",
"376 -300 OFFCURVE",
"436 0 CURVE"
);
},
{
closed = 1;
nodes = (
"99 -340 LINE",
"75 -340 OFFCURVE",
"57 -325 OFFCURVE",
"45 -313 CURVE",
"0 -358 LINE",
"24 -382 OFFCURVE",
"51 -400 OFFCURVE",
"87 -400 CURVE"
);
},
{
closed = 1;
nodes = (
"327 135 LINE",
"307 115 LINE",
"331 91 OFFCURVE",
"349 70 OFFCURVE",
"349 32 CURVE SMOOTH",
"349 22 OFFCURVE",
"348 12 OFFCURVE",
"346 0 CURVE",
"436 0 LINE",
"438 11 OFFCURVE",
"439 21 OFFCURVE",
"439 30 CURVE SMOOTH",
"439 85 OFFCURVE",
"399 103 OFFCURVE",
"347 155 CURVE"
);
},
{
closed = 1;
nodes = (
"393 350 OFFCURVE",
"404 333 OFFCURVE",
"404 304 CURVE SMOOTH",
"404 294 OFFCURVE",
"403 283 OFFCURVE",
"400 270 CURVE",
"490 270 LINE",
"492 281 OFFCURVE",
"493 292 OFFCURVE",
"493 302 CURVE SMOOTH",
"493 365 OFFCURVE",
"451 410 OFFCURVE",
"382 410 CURVE",
"370 350 LINE"
);
},
{
closed = 1;
nodes = (
"380 170 OFFCURVE",
"163 60 OFFCURVE",
"111 60 CURVE",
"99 0 LINE",
"174 0 OFFCURVE",
"465 145 OFFCURVE",
"490 270 CURVE",
"400 270 LINE"
);
},
{
closed = 1;
nodes = (
"347 155 LINE",
"323 179 OFFCURVE",
"305 200 OFFCURVE",
"305 238 CURVE SMOOTH",
"305 248 OFFCURVE",
"306 258 OFFCURVE",
"308 270 CURVE",
"218 270 LINE",
"216 259 OFFCURVE",
"215 249 OFFCURVE",
"215 240 CURVE SMOOTH",
"215 185 OFFCURVE",
"255 167 OFFCURVE",
"307 115 CURVE"
);
},
{
closed = 1;
nodes = (
"382 410 LINE",
"302 410 OFFCURVE",
"234 350 OFFCURVE",
"218 270 CURVE",
"308 270 LINE",
"320 320 OFFCURVE",
"340 350 OFFCURVE",
"370 350 CURVE"
);
}
);
width = 436;
}
);
},
{
glyphname = "tu-hira.ini";
lastChange = "2018-07-16 17:34:15 +0000";
layers = (
{
anchors = (
{
name = daku;
position = "{247, 220}";
}
);
layerId = "CDF314B6-AD07-4304-BC80-988178CB760F";
paths = (
{
closed = 1;
nodes = (
"51 -102 OFFCURVE",
"50 -109 OFFCURVE",
"50 -115 CURVE SMOOTH",
"50 -183 OFFCURVE",
"122 -220 OFFCURVE",
"195 -220 CURVE",
"207 -160 LINE",
"156 -160 OFFCURVE",
"141 -135 OFFCURVE",
"141 -109 CURVE SMOOTH",
"141 -104 OFFCURVE",
"141 -100 OFFCURVE",
"142 -95 CURVE",
"52 -95 LINE"
);
},
{
closed = 1;
nodes = (
"195 -220 LINE",
"310 -220 OFFCURVE",
"406 -130 OFFCURVE",
"432 0 CURVE",
"342 0 LINE",
"322 -100 OFFCURVE",
"263 -160 OFFCURVE",
"207 -160 CURVE"
);
},
{
closed = 1;
nodes = (
"432 0 LINE",
"444 60 LINE",
"275 60 LINE",
"263 0 LINE"
);
},
{
closed = 1;
nodes = (
"275 60 LINE",
"155 60 OFFCURVE",
"68 -15 OFFCURVE",
"52 -95 CURVE",
"142 -95 LINE",
"152 -45 OFFCURVE",
"203 0 OFFCURVE",
"263 0 CURVE"
);
},
{
closed = 1;
nodes = (
"235 160 LINE",
"287 160 OFFCURVE",
"346 122 OFFCURVE",
"346 40 CURVE SMOOTH",
"346 28 OFFCURVE",
"345 14 OFFCURVE",
"342 0 CURVE",
"432 0 LINE",
"435 17 OFFCURVE",
"437 33 OFFCURVE",
"437 48 CURVE SMOOTH",
"437 172 OFFCURVE",
"327 220 OFFCURVE",
"247 220 CURVE"
);
},
{
closed = 1;
nodes = (
"247 220 LINE",
"178 220 OFFCURVE",
"115 192 OFFCURVE",
"75 132 CURVE",
"87 86 LINE",
"123 141 OFFCURVE",
"178 160 OFFCURVE",
"235 160 CURVE"
);
}
);
width = 432;
}
);
},
{
glyphname = "tusmall-hira.ini";
lastChange = "2018-07-16 07:47:22 +0000";
layers = (
{
layerId = "CDF314B6-AD07-4304-BC80-988178CB760F";
paths = (
{
closed = 1;
nodes = (
"62 60 LINE",
"50 0 LINE",
"268 0 LINE",
"280 60 LINE"
);
},
{
closed = 1;
nodes = (
"257 280 OFFCURVE",
"291 314 OFFCURVE",
"291 355 CURVE SMOOTH",
"291 396 OFFCURVE",
"257 430 OFFCURVE",
"216 430 CURVE SMOOTH",
"175 430 OFFCURVE",
"141 396 OFFCURVE",
"141 355 CURVE SMOOTH",
"141 314 OFFCURVE",
"175 280 OFFCURVE",
"216 280 CURVE SMOOTH"
);
},
{
closed = 1;
nodes = (
"243 238 OFFCURVE",
"291 310 OFFCURVE",
"291 355 CURVE",
"216 355 LINE",
"201 280 OFFCURVE",
"189 265 OFFCURVE",
"141 205 CURVE",
"195 178 LINE"
);
}
);
width = 268;
}
);
},
{
glyphname = "te-hira.ini";
lastChange = "2018-07-16 17:34:15 +0000";
layers = (
{
anchors = (
{
name = daku;
position = "{243, 408}";
}
);
layerId = "CDF314B6-AD07-4304-BC80-988178CB760F";
paths = (
{
closed = 1;
nodes = (
"50 0 LINE",
"86 0 OFFCURVE",
"116 8 OFFCURVE",
"156 48 CURVE",
"126 108 LINE",
"96 78 OFFCURVE",
"80 60 OFFCURVE",
"62 60 CURVE"
);
},
{
closed = 1;
nodes = (
"426 408 LINE",
"366 348 OFFCURVE",
"258 238 OFFCURVE",
"243 163 CURVE",
"333 163 LINE",
"348 238 OFFCURVE",
"416 308 OFFCURVE",
"456 348 CURVE"
);
},
{
closed = 1;
nodes = (
"525 60 LINE",
"401 60 OFFCURVE",
"331 83 OFFCURVE",
"331 144 CURVE SMOOTH",
"331 150 OFFCURVE",
"332 156 OFFCURVE",
"333 163 CURVE",
"243 163 LINE",
"241 153 OFFCURVE",
"240 144 OFFCURVE",
"240 135 CURVE SMOOTH",
"240 36 OFFCURVE",
"359 0 OFFCURVE",
"513 0 CURVE"
);
},
{
closed = 1;
nodes = (
"484 135 OFFCURVE",
"506 157 OFFCURVE",
"506 185 CURVE SMOOTH",
"506 213 OFFCURVE",
"484 235 OFFCURVE",
"456 235 CURVE SMOOTH",
"428 235 OFFCURVE",
"406 213 OFFCURVE",
"406 185 CURVE SMOOTH",
"406 157 OFFCURVE",
"428 135 OFFCURVE",
"456 135 CURVE SMOOTH"
);
},
{
closed = 1;
nodes = (
"156 48 LINE",
"456 348 LINE",
"426 408 LINE",
"126 108 LINE"
);
},
{
closed = 1;
nodes = (
"456 348 LINE",
"488 380 LINE",
"458 440 LINE",
"426 408 LINE"
);
}
);
width = 513;
}
);
},
{
glyphname = "to-hira.ini";
lastChange = "2018-07-16 17:34:15 +0000";
layers = (
{
anchors = (
{
name = daku;
position = "{243, 408}";
}
);
layerId = "CDF314B6-AD07-4304-BC80-988178CB760F";
paths = (
{
closed = 1;
nodes = (
"50 0 LINE",
"86 0 OFFCURVE",
"116 8 OFFCURVE",
"156 48 CURVE",
"126 108 LINE",
"96 78 OFFCURVE",
"80 60 OFFCURVE",
"62 60 CURVE"
);
},
{
closed = 1;
nodes = (
"426 408 LINE",
"366 348 OFFCURVE",
"258 238 OFFCURVE",
"243 163 CURVE",
"333 163 LINE",
"348 238 OFFCURVE",
"416 308 OFFCURVE",
"456 348 CURVE"
);
},
{
closed = 1;
nodes = (
"525 60 LINE",
"401 60 OFFCURVE",
"331 83 OFFCURVE",
"331 144 CURVE SMOOTH",
"331 150 OFFCURVE",
"332 156 OFFCURVE",
"333 163 CURVE",
"243 163 LINE",
"241 153 OFFCURVE",
"240 144 OFFCURVE",
"240 135 CURVE SMOOTH",
"240 36 OFFCURVE",
"359 0 OFFCURVE",
"513 0 CURVE"
);
},
{
closed = 1;
nodes = (
"156 48 LINE",
"456 348 LINE",
"426 408 LINE",
"126 108 LINE"
);
},
{
closed = 1;
nodes = (
"456 348 LINE",
"488 380 LINE",
"458 440 LINE",
"426 408 LINE"
);
}
);
width = 513;
}
);
},
{
glyphname = "na-hira.ini";
lastChange = "2018-07-16 17:34:15 +0000";
layers = (
{
layerId = "CDF314B6-AD07-4304-BC80-988178CB760F";
paths = (
{
closed = 1;
nodes = (
"245 400 LINE",
"205 200 LINE",
"295 200 LINE",
"335 400 LINE"
);
},
{
closed = 1;
nodes = (
"357 60 LINE",
"318 60 OFFCURVE",
"290 83 OFFCURVE",
"290 146 CURVE SMOOTH",
"290 162 OFFCURVE",
"291 179 OFFCURVE",
"295 200 CURVE",
"205 200 LINE",
"202 181 OFFCURVE",
"200 163 OFFCURVE",
"200 147 CURVE SMOOTH",
"200 47 OFFCURVE",
"256 0 OFFCURVE",
"345 0 CURVE"
);
},
{
closed = 1;
nodes = (
"50 200 LINE",
"170 200 OFFCURVE",
"252 297 OFFCURVE",
"268 377 CURVE",
"245 400 LINE",
"229 320 OFFCURVE",
"119 260 OFFCURVE",
"62 260 CURVE"
);
}
);
width = 345;
}
);
},
{
glyphname = "ni-hira.ini";
lastChange = "2018-07-16 17:34:15 +0000";
layers = (
{
layerId = "CDF314B6-AD07-4304-BC80-988178CB760F";
paths = (
{
closed = 1;
nodes = (
"107 160 LINE",
"95 100 LINE",
"328 160 LINE",
"340 220 LINE"
);
},
{
closed = 1;
nodes = (
"62 60 LINE",
"50 0 LINE",
"328 0 LINE",
"340 60 LINE"
);
},
{
closed = 1;
nodes = (
"340 220 LINE",
"295 220 OFFCURVE",
"252 261 OFFCURVE",
"252 306 CURVE SMOOTH",
"252 310 OFFCURVE",
"252 314 OFFCURVE",
"253 319 CURVE",
"163 319 LINE",
"161 309 OFFCURVE",
"160 299 OFFCURVE",
"160 290 CURVE SMOOTH",
"160 208 OFFCURVE",
"236 160 OFFCURVE",
"328 160 CURVE"
);
},
{
closed = 1;
nodes = (
"244 420 OFFCURVE",
"176 376 OFFCURVE",
"163 319 CURVE",
"253 319 LINE",
"263 369 OFFCURVE",
"295 394 OFFCURVE",
"340 424 CURVE",
"304 460 LINE"
);
}
);
width = 328;
}
);
},
{
glyphname = "nu-hira.ini";
lastChange = "2018-07-16 17:34:15 +0000";
layers = (
{
layerId = "CDF314B6-AD07-4304-BC80-988178CB760F";
paths = (
{
closed = 1;
nodes = (
"104 212 OFFCURVE",
"103 196 OFFCURVE",
"103 181 CURVE SMOOTH",
"103 85 OFFCURVE",
"164 60 OFFCURVE",
"253 60 CURVE SMOOTH",
"322 60 OFFCURVE",
"366 88 OFFCURVE",
"405 148 CURVE",
"413 194 LINE",
"353 139 OFFCURVE",
"322 120 OFFCURVE",
"265 120 CURVE SMOOTH",
"225 120 OFFCURVE",
"192 123 OFFCURVE",
"192 183 CURVE SMOOTH",
"192 196 OFFCURVE",
"194 212 OFFCURVE",
"197 230 CURVE",
"107 230 LINE"
);
},
{
closed = 1;
nodes = (
"331 0 LINE",
"297 -170 OFFCURVE",
"237 -340 OFFCURVE",
"174 -340 CURVE",
"162 -400 LINE",
"299 -400 OFFCURVE",
"365 -279 OFFCURVE",
"421 0 CURVE"
);
},
{
closed = 1;
nodes = (
"174 -340 LINE",
"150 -340 OFFCURVE",
"141 -327 OFFCURVE",
"141 -300 CURVE SMOOTH",
"141 -287 OFFCURVE",
"143 -270 OFFCURVE",
"147 -250 CURVE",
"57 -250 LINE",
"53 -272 OFFCURVE",
"50 -291 OFFCURVE",
"50 -309 CURVE SMOOTH",
"50 -370 OFFCURVE",
"81 -400 OFFCURVE",
"162 -400 CURVE"
);
},
{
closed = 1;
nodes = (
"493 60 LINE",
"359 62 OFFCURVE",
"97 -50 OFFCURVE",
"57 -250 CURVE",
"147 -250 LINE",
"172 -125 OFFCURVE",
"331 0 OFFCURVE",
"481 0 CURVE"
);
},
{
closed = 1;
nodes = (
"464 219 OFFCURVE",
"466 237 OFFCURVE",
"466 253 CURVE SMOOTH",
"466 353 OFFCURVE",
"410 400 OFFCURVE",
"321 400 CURVE SMOOTH",
"225 400 OFFCURVE",
"131 350 OFFCURVE",
"107 230 CURVE",
"197 230 LINE",
"209 290 OFFCURVE",
"252 340 OFFCURVE",
"309 340 CURVE SMOOTH",
"348 340 OFFCURVE",
"376 317 OFFCURVE",
"376 254 CURVE SMOOTH",
"376 238 OFFCURVE",
"375 221 OFFCURVE",
"371 200 CURVE",
"461 200 LINE"
);
},
{
closed = 1;
nodes = (
"361 150 LINE",
"348 85 LINE",
"331 0 LINE",
"421 0 LINE",
"461 200 LINE",
"371 200 LINE"
);
}
);
width = 481;
}
);
},
{
glyphname = "ne-hira.ini";
lastChange = "2018-07-16 17:34:15 +0000";
layers = (
{
layerId = "CDF314B6-AD07-4304-BC80-988178CB760F";
paths = (
{
closed = 1;
nodes = (
"464 200 LINE",
"504 400 LINE",
"414 400 LINE",
"374 200 LINE"
);
},
{
closed = 1;
nodes = (
"334 0 LINE",
"300 -170 OFFCURVE",
"240 -340 OFFCURVE",
"177 -340 CURVE",
"165 -400 LINE",
"302 -400 OFFCURVE",
"368 -279 OFFCURVE",
"424 0 CURVE"
);
},
{
closed = 1;
nodes = (
"177 -340 LINE",
"153 -340 OFFCURVE",
"144 -327 OFFCURVE",
"144 -300 CURVE SMOOTH",
"144 -287 OFFCURVE",
"146 -270 OFFCURVE",
"150 -250 CURVE",
"60 -250 LINE",
"56 -272 OFFCURVE",
"53 -291 OFFCURVE",
"53 -309 CURVE SMOOTH",
"53 -370 OFFCURVE",
"84 -400 OFFCURVE",
"165 -400 CURVE"
);
},
{
closed = 1;
nodes = (
"424 0 LINE",
"464 200 LINE",
"374 200 LINE",
"334 0 LINE"
);
},
{
closed = 1;
nodes = (
"496 60 LINE",
"362 62 OFFCURVE",
"100 -50 OFFCURVE",
"60 -250 CURVE",
"150 -250 LINE",
"175 -125 OFFCURVE",
"334 0 OFFCURVE",
"484 0 CURVE"
);
},
{
closed = 1;
nodes = (
"50 0 LINE",
"210 0 OFFCURVE",
"384 205 OFFCURVE",
"424 285 CURVE",
"394 300 LINE",
"354 220 OFFCURVE",
"180 60 OFFCURVE",
"62 60 CURVE"
);
}
);
width = 484;
}
);
},
{
glyphname = "no-hira.ini";
lastChange = "2018-07-16 17:34:15 +0000";
layers = (
{
layerId = "CDF314B6-AD07-4304-BC80-988178CB760F";
paths = (
{
closed = 1;
nodes = (
"229 440 LINE",
"160 440 OFFCURVE",
"81 412 OFFCURVE",
"57 352 CURVE",
"80 306 LINE",
"100 356 OFFCURVE",
"160 380 OFFCURVE",
"217 380 CURVE"
);
},
{
closed = 1;
nodes = (
"142 125 LINE",
"148 155 OFFCURVE",
"176 184 OFFCURVE",
"206 190 CURVE",
"218 250 LINE",
"178 242 OFFCURVE",
"68 205 OFFCURVE",
"52 125 CURVE"
);
},
{
closed = 1;
nodes = (
"373 322 OFFCURVE",
"374 329 OFFCURVE",
"374 335 CURVE SMOOTH",
"374 403 OFFCURVE",
"302 440 OFFCURVE",
"229 440 CURVE",
"217 380 LINE",
"268 380 OFFCURVE",
"283 355 OFFCURVE",
"283 329 CURVE SMOOTH",
"283 324 OFFCURVE",
"283 320 OFFCURVE",
"282 315 CURVE",
"372 315 LINE"
);
},
{
closed = 1;
nodes = (
"206 190 LINE",
"246 198 OFFCURVE",
"353 215 OFFCURVE",
"372 315 CURVE",
"282 315 LINE",
"276 285 OFFCURVE",
"248 256 OFFCURVE",
"218 250 CURVE"
);
},
{
closed = 1;
nodes = (
"195 0 LINE",
"324 0 LINE",
"336 60 LINE",
"207 60 LINE"
);
},
{
closed = 0;
nodes = (
"212 220 LINE"
);
},
{
closed = 1;
nodes = (
"51 118 OFFCURVE",
"50 111 OFFCURVE",
"50 105 CURVE SMOOTH",
"50 37 OFFCURVE",
"122 0 OFFCURVE",
"195 0 CURVE",
"207 60 LINE",
"156 60 OFFCURVE",
"141 85 OFFCURVE",
"141 111 CURVE SMOOTH",
"141 116 OFFCURVE",
"141 120 OFFCURVE",
"142 125 CURVE",
"52 125 LINE"
);
}
);
width = 324;
}
);
},
{
glyphname = "ha-hira.ini";
lastChange = "2018-07-16 17:34:15 +0000";
layers = (
{
anchors = (
{
name = daku;
position = "{297, 400}";
}
);
layerId = "CDF314B6-AD07-4304-BC80-988178CB760F";
paths = (
{
closed = 1;
nodes = (
"331 0 LINE",
"297 -170 OFFCURVE",
"237 -340 OFFCURVE",
"174 -340 CURVE",
"162 -400 LINE",
"299 -400 OFFCURVE",
"365 -279 OFFCURVE",
"421 0 CURVE"
);
},
{
closed = 1;
nodes = (
"513 220 LINE",
"393 160 OFFCURVE",
"97 -50 OFFCURVE",
"57 -250 CURVE",
"147 -250 LINE",
"179 -90 OFFCURVE",
"423 100 OFFCURVE",
"543 160 CURVE"
);
},
{
closed = 1;
nodes = (
"174 -340 LINE",
"150 -340 OFFCURVE",
"141 -327 OFFCURVE",
"141 -300 CURVE SMOOTH",
"141 -287 OFFCURVE",
"143 -270 OFFCURVE",
"147 -250 CURVE",
"57 -250 LINE",
"53 -272 OFFCURVE",
"50 -291 OFFCURVE",
"50 -309 CURVE SMOOTH",
"50 -370 OFFCURVE",
"81 -400 OFFCURVE",
"162 -400 CURVE"
);
},
{
closed = 1;
nodes = (
"523 60 LINE",
"473 60 OFFCURVE",
"442 70 OFFCURVE",
"432 120 CURVE",
"372 60 LINE",
"401 20 OFFCURVE",
"446 0 OFFCURVE",
"511 0 CURVE"
);
},
{
closed = 1;
nodes = (
"421 0 LINE",
"461 200 LINE",
"371 200 LINE",
"331 0 LINE"
);
},
{
closed = 1;
nodes = (
"461 200 LINE",
"501 400 LINE",
"411 400 LINE",
"371 200 LINE"
);
}
);
width = 511;
}
);
},
{
glyphname = "hi-hira.ini";
lastChange = "2018-07-16 17:34:15 +0000";
layers = (
{
anchors = (
{
name = daku;
position = "{355, 400}";
}
);
layerId = "CDF314B6-AD07-4304-BC80-988178CB760F";
paths = (
{
closed = 1;
nodes = (
"364 -5 OFFCURVE",
"317 -140 OFFCURVE",
"247 -140 CURVE SMOOTH",
"198 -140 OFFCURVE",
"185 -110 OFFCURVE",
"185 -50 CURVE",
"110 -50 LINE",
"110 -110 OFFCURVE",
"115 -200 OFFCURVE",
"235 -200 CURVE SMOOTH",
"355 -200 OFFCURVE",
"447 -40 OFFCURVE",
"475 100 CURVE",
"385 100 LINE"
);
},
{
closed = 1;
nodes = (
"50 0 LINE",
"80 0 OFFCURVE",
"110 0 OFFCURVE",
"110 -50 CURVE",
"185 -50 LINE",
"185 51 OFFCURVE",
"103 60 OFFCURVE",
"62 60 CURVE"
);
},
{
closed = 1;
nodes = (
"227 210 OFFCURVE",
"273 340 OFFCURVE",
"343 340 CURVE SMOOTH",
"385 340 OFFCURVE",
"398 292 OFFCURVE",
"398 230 CURVE SMOOTH",
"398 189 OFFCURVE",
"392 142 OFFCURVE",
"385 100 CURVE",
"475 100 LINE",
"480 130 OFFCURVE",
"483 162 OFFCURVE",
"483 192 CURVE SMOOTH",
"483 301 OFFCURVE",
"449 400 OFFCURVE",
"355 400 CURVE SMOOTH",
"235 400 OFFCURVE",
"145 250 OFFCURVE",
"125 150 CURVE",
"215 150 LINE"
);
},
{
closed = 1;
nodes = (
"467 60 LINE",
"456 60 OFFCURVE",
"436 59 OFFCURVE",
"413 59 CURVE SMOOTH",
"335 59 OFFCURVE",
"214 67 OFFCURVE",
"214 138 CURVE SMOOTH",
"214 142 OFFCURVE",
"214 146 OFFCURVE",
"215 150 CURVE",
"125 150 LINE",
"124 144 OFFCURVE",
"124 139 OFFCURVE",
"124 133 CURVE SMOOTH",
"124 12 OFFCURVE",
"356 0 OFFCURVE",
"455 0 CURVE"
);
}
);
width = 455;
}
);
},
{
glyphname = "hu-hira.ini";
lastChange = "2018-07-16 17:34:15 +0000";
layers = (
{
anchors = (
{
name = daku;
position = "{297, 400}";
}
);
layerId = "CDF314B6-AD07-4304-BC80-988178CB760F";
paths = (
{
closed = 1;
nodes = (
"331 0 LINE",
"297 -170 OFFCURVE",
"237 -340 OFFCURVE",
"174 -340 CURVE",
"162 -400 LINE",
"299 -400 OFFCURVE",
"365 -279 OFFCURVE",
"421 0 CURVE"
);
},
{
closed = 1;
nodes = (
"174 -340 LINE",
"150 -340 OFFCURVE",
"141 -327 OFFCURVE",
"141 -300 CURVE SMOOTH",
"141 -287 OFFCURVE",
"143 -270 OFFCURVE",
"147 -250 CURVE",
"57 -250 LINE",
"53 -272 OFFCURVE",
"50 -291 OFFCURVE",
"50 -309 CURVE SMOOTH",
"50 -370 OFFCURVE",
"81 -400 OFFCURVE",
"162 -400 CURVE"
);
},
{
closed = 1;
nodes = (
"393 12 LINE",
"69 -204 LINE",
"105 -240 LINE",
"429 -24 LINE"
);
},
{
closed = 1;
nodes = (
"493 60 LINE",
"457 60 OFFCURVE",
"429 36 OFFCURVE",
"393 12 CURVE",
"429 -24 LINE",
"447 -12 OFFCURVE",
"463 0 OFFCURVE",
"481 0 CURVE"
);
},
{
closed = 1;
nodes = (
"147 -250 LINE",
"187 -50 LINE",
"97 -50 LINE",
"57 -250 LINE"
);
},
{
closed = 1;
nodes = (
"421 0 LINE",
"461 200 LINE",
"371 200 LINE",
"331 0 LINE"
);
},
{
closed = 1;
nodes = (
"461 200 LINE",
"501 400 LINE",
"411 400 LINE",
"371 200 LINE"
);
}
);
width = 481;
}
);
},
{
glyphname = "he-hira.ini";
lastChange = "2018-07-16 17:34:15 +0000";
layers = (
{
anchors = (
{
name = daku;
position = "{490, 800}";
}
);
layerId = "CDF314B6-AD07-4304-BC80-988178CB760F";
paths = (
{
closed = 1;
nodes = (
"275 400 LINE",
"235 200 LINE",
"325 200 LINE",
"365 400 LINE"
);
},
{
closed = 1;
nodes = (
"315 600 LINE",
"275 400 LINE",
"365 400 LINE",
"405 600 LINE"
);
},
{
closed = 1;
nodes = (
"265 185 LINE",
"295 245 OFFCURVE",
"522 626 OFFCURVE",
"539 710 CURVE SMOOTH",
"542 724 OFFCURVE",
"543 736 OFFCURVE",
"543 747 CURVE SMOOTH",
"543 782 OFFCURVE",
"527 800 OFFCURVE",
"490 800 CURVE SMOOTH",
"398 800 OFFCURVE",
"341 727 OFFCURVE",
"315 600 CURVE",
"405 600 LINE",
"420 683 OFFCURVE",
"457 740 OFFCURVE",
"478 740 CURVE SMOOTH",
"493 740 OFFCURVE",
"499 734 OFFCURVE",
"499 721 CURVE SMOOTH",
"499 718 OFFCURVE",
"499 714 OFFCURVE",
"498 710 CURVE SMOOTH",
"484 639 OFFCURVE",
"265 260 OFFCURVE",
"235 200 CURVE"
);
},
{
closed = 1;
nodes = (
"50 0 LINE",
"110 0 OFFCURVE",
"260 235 OFFCURVE",
"285 285 CURVE",
"255 300 LINE",
"230 250 OFFCURVE",
"110 60 OFFCURVE",
"62 60 CURVE"
);
},
{
closed = 1;
nodes = (
"387 60 LINE",
"348 60 OFFCURVE",
"320 83 OFFCURVE",
"320 146 CURVE SMOOTH",
"320 162 OFFCURVE",
"321 179 OFFCURVE",
"325 200 CURVE",
"235 200 LINE",
"232 181 OFFCURVE",
"230 163 OFFCURVE",
"230 147 CURVE SMOOTH",
"230 47 OFFCURVE",
"286 0 OFFCURVE",
"375 0 CURVE"
);
}
);
width = 375;
}
);
},
{
glyphname = "ho-hira.ini";
lastChange = "2018-07-16 17:34:15 +0000";
layers = (
{
anchors = (
{
name = daku;
position = "{364, 400}";
}
);
layerId = "CDF314B6-AD07-4304-BC80-988178CB760F";
paths = (
{
closed = 1;
nodes = (
"544 0 LINE",
"510 -170 OFFCURVE",
"450 -340 OFFCURVE",
"387 -340 CURVE",
"375 -400 LINE",
"512 -400 OFFCURVE",
"578 -279 OFFCURVE",
"634 0 CURVE"
);
},
{
closed = 1;
nodes = (
"387 -340 LINE",
"363 -340 OFFCURVE",
"354 -327 OFFCURVE",
"354 -300 CURVE SMOOTH",
"354 -287 OFFCURVE",
"356 -270 OFFCURVE",
"360 -250 CURVE",
"270 -250 LINE",
"266 -272 OFFCURVE",
"263 -291 OFFCURVE",
"263 -309 CURVE SMOOTH",
"263 -370 OFFCURVE",
"294 -400 OFFCURVE",
"375 -400 CURVE"
);
},
{
closed = 1;
nodes = (
"634 0 LINE",
"674 200 LINE",
"584 200 LINE",
"544 0 LINE"
);
},
{
closed = 1;
nodes = (
"706 60 LINE",
"572 62 OFFCURVE",
"310 -50 OFFCURVE",
"270 -250 CURVE",
"360 -250 LINE",
"385 -125 OFFCURVE",
"544 0 OFFCURVE",
"694 0 CURVE"
);
},
{
closed = 1;
nodes = (
"144 200 LINE",
"104 0 LINE",
"194 0 LINE",
"234 200 LINE"
);
},
{
closed = 1;
nodes = (
"127 340 LINE",
"147 340 OFFCURVE",
"155 318 OFFCURVE",
"155 286 CURVE SMOOTH",
"155 261 OFFCURVE",
"150 231 OFFCURVE",
"144 200 CURVE",
"234 200 LINE",
"240 236 OFFCURVE",
"243 266 OFFCURVE",
"243 292 CURVE SMOOTH",
"243 366 OFFCURVE",
"216 400 OFFCURVE",
"139 400 CURVE"
);
},
{
closed = 1;
nodes = (
"139 400 LINE",
"103 400 OFFCURVE",
"74 372 OFFCURVE",
"50 312 CURVE",
"73 266 LINE",
"97 326 OFFCURVE",
"109 340 OFFCURVE",
"127 340 CURVE"
);
},
{
closed = 1;
nodes = (
"414 0 LINE",
"454 200 LINE",
"364 200 LINE",
"324 0 LINE"
);
},
{
closed = 1;
nodes = (
"457 220 OFFCURVE",
"459 238 OFFCURVE",
"459 254 CURVE SMOOTH",
"459 354 OFFCURVE",
"405 400 OFFCURVE",
"331 400 CURVE SMOOTH",
"287 400 OFFCURVE",
"256 374 OFFCURVE",
"217 314 CURVE",
"209 268 LINE",
"269 323 OFFCURVE",
"280 340 OFFCURVE",
"319 340 CURVE SMOOTH",
"354 340 OFFCURVE",
"371 321 OFFCURVE",
"371 271 CURVE SMOOTH",
"371 252 OFFCURVE",
"369 229 OFFCURVE",
"364 200 CURVE",
"454 200 LINE"
);
},
{
closed = 1;
nodes = (
"677 219 OFFCURVE",
"679 237 OFFCURVE",
"679 253 CURVE SMOOTH",
"679 353 OFFCURVE",
"623 400 OFFCURVE",
"534 400 CURVE SMOOTH",
"494 400 OFFCURVE",
"455 373 OFFCURVE",
"416 313 CURVE",
"408 267 LINE",
"468 322 OFFCURVE",
"482 340 OFFCURVE",
"522 340 CURVE SMOOTH",
"561 340 OFFCURVE",
"589 317 OFFCURVE",
"589 254 CURVE SMOOTH",
"589 238 OFFCURVE",
"588 221 OFFCURVE",
"584 200 CURVE",
"674 200 LINE"
);
}
);
width = 694;
}
);
},
{
glyphname = "ma-hira.ini";
lastChange = "2018-07-16 17:34:15 +0000";
layers = (
{
layerId = "CDF314B6-AD07-4304-BC80-988178CB760F";
paths = (
{
closed = 1;
nodes = (
"110 241 OFFCURVE",
"108 223 OFFCURVE",
"108 207 CURVE SMOOTH",
"108 107 OFFCURVE",
"164 60 OFFCURVE",
"253 60 CURVE SMOOTH",
"322 60 OFFCURVE",
"366 88 OFFCURVE",
"405 148 CURVE",
"413 194 LINE",
"353 139 OFFCURVE",
"322 120 OFFCURVE",
"265 120 CURVE SMOOTH",
"226 120 OFFCURVE",
"198 143 OFFCURVE",
"198 206 CURVE SMOOTH",
"198 222 OFFCURVE",
"199 239 OFFCURVE",
"203 260 CURVE",
"113 260 LINE"
);
},
{
closed = 1;
nodes = (
"461 200 LINE",
"501 400 LINE",
"411 400 LINE",
"371 200 LINE"
);
},
{
closed = 1;
nodes = (
"331 0 LINE",
"297 -170 OFFCURVE",
"237 -340 OFFCURVE",
"174 -340 CURVE",
"162 -400 LINE",
"299 -400 OFFCURVE",
"365 -279 OFFCURVE",
"421 0 CURVE"
);
},
{
closed = 1;
nodes = (
"174 -340 LINE",
"150 -340 OFFCURVE",
"141 -327 OFFCURVE",
"141 -300 CURVE SMOOTH",
"141 -287 OFFCURVE",
"143 -270 OFFCURVE",
"147 -250 CURVE",
"57 -250 LINE",
"53 -272 OFFCURVE",
"50 -291 OFFCURVE",
"50 -309 CURVE SMOOTH",
"50 -370 OFFCURVE",
"81 -400 OFFCURVE",
"162 -400 CURVE"
);
},
{
closed = 1;
nodes = (
"421 0 LINE",
"461 200 LINE",
"371 200 LINE",
"331 0 LINE"
);
},
{
closed = 1;
nodes = (
"493 60 LINE",
"359 62 OFFCURVE",
"97 -50 OFFCURVE",
"57 -250 CURVE",
"147 -250 LINE",
"172 -125 OFFCURVE",
"331 0 OFFCURVE",
"481 0 CURVE"
);
},
{
closed = 1;
nodes = (
"203 260 LINE",
"231 400 LINE",
"141 400 LINE",
"113 260 LINE"
);
}
);
width = 481;
}
);
},
{
glyphname = "mi-hira.ini";
lastChange = "2018-06-10 13:20:54 +0000";
layers = (
{
layerId = "CDF314B6-AD07-4304-BC80-988178CB760F";
paths = (
{
closed = 1;
nodes = (
"573 60 LINE",
"537 60 OFFCURVE",
"509 36 OFFCURVE",
"473 12 CURVE",
"509 -24 LINE",
"527 -12 OFFCURVE",
"543 0 OFFCURVE",
"561 0 CURVE"
);
},
{
closed = 1;
nodes = (
"149 48 LINE",
"392 210 LINE",
"356 246 LINE",
"113 84 LINE"
);
},
{
closed = 1;
nodes = (
"311 30 LINE",
"329 12 LINE",
"572 174 LINE",
"536 210 LINE",
"293 48 LINE"
);
},
{
closed = 1;
nodes = (
"266 -186 LINE",
"509 -24 LINE",
"473 12 LINE",
"230 -150 LINE"
);
},
{
closed = 1;
nodes = (
"68 -132 LINE",
"86 -150 LINE",
"329 12 LINE",
"293 48 LINE",
"50 -114 LINE"
);
},
{
closed = 1;
nodes = (
"399 70 LINE",
"392 210 LINE",
"302 210 LINE",
"311 30 LINE"
);
},
{
closed = 1;
nodes = (
"223 -10 LINE",
"230 -150 LINE",
"320 -150 LINE",
"311 30 LINE"
);
}
);
width = 561;
}
);
},
{
glyphname = "mu-hira.ini";
lastChange = "2018-07-16 17:34:15 +0000";
layers = (
{
layerId = "CDF314B6-AD07-4304-BC80-988178CB760F";
paths = (
{
closed = 1;
nodes = (
"436 350 OFFCURVE",
"447 333 OFFCURVE",
"447 304 CURVE SMOOTH",
"447 294 OFFCURVE",
"446 283 OFFCURVE",
"443 270 CURVE",
"533 270 LINE",
"535 281 OFFCURVE",
"536 292 OFFCURVE",
"536 302 CURVE SMOOTH",
"536 365 OFFCURVE",
"494 410 OFFCURVE",
"425 410 CURVE",
"413 350 LINE"
);
},
{
closed = 1;
nodes = (
"423 170 OFFCURVE",
"114 60 OFFCURVE",
"62 60 CURVE",
"50 0 LINE",
"125 0 OFFCURVE",
"508 145 OFFCURVE",
"533 270 CURVE",
"443 270 LINE"
);
},
{
closed = 1;
nodes = (
"425 410 LINE",
"345 410 OFFCURVE",
"277 350 OFFCURVE",
"261 270 CURVE",
"351 270 LINE",
"363 320 OFFCURVE",
"383 350 OFFCURVE",
"413 350 CURVE"
);
},
{
closed = 1;
nodes = (
"187 -200 OFFCURVE",
"176 -180 OFFCURVE",
"176 -157 CURVE SMOOTH",
"176 -152 OFFCURVE",
"177 -146 OFFCURVE",
"178 -140 CURVE",
"88 -140 LINE",
"86 -150 OFFCURVE",
"85 -160 OFFCURVE",
"85 -169 CURVE SMOOTH",
"85 -230 OFFCURVE",
"129 -260 OFFCURVE",
"199 -260 CURVE",
"211 -200 LINE"
);
},
{
closed = 1;
nodes = (
"199 -260 LINE",
"279 -260 OFFCURVE",
"342 -220 OFFCURVE",
"358 -140 CURVE",
"268 -140 LINE",
"262 -170 OFFCURVE",
"241 -200 OFFCURVE",
"211 -200 CURVE"
);
},
{
closed = 1;
nodes = (
"358 -140 LINE",
"387 0 LINE",
"297 0 LINE",
"268 -140 LINE"
);
},
{
closed = 1;
nodes = (
"390 16 OFFCURVE",
"392 31 OFFCURVE",
"392 44 CURVE SMOOTH",
"392 119 OFFCURVE",
"346 151 OFFCURVE",
"346 226 CURVE SMOOTH",
"346 239 OFFCURVE",
"348 254 OFFCURVE",
"351 270 CURVE",
"261 270 LINE",
"258 254 OFFCURVE",
"256 239 OFFCURVE",
"256 226 CURVE SMOOTH",
"256 151 OFFCURVE",
"302 119 OFFCURVE",
"302 44 CURVE SMOOTH",
"302 31 OFFCURVE",
"300 16 OFFCURVE",
"297 0 CURVE",
"387 0 LINE"
);
},
{
closed = 1;
nodes = (
"247 -20 LINE",
"167 -20 OFFCURVE",
"104 -60 OFFCURVE",
"88 -140 CURVE",
"178 -140 LINE",
"184 -110 OFFCURVE",
"205 -80 OFFCURVE",
"235 -80 CURVE"
);
},
{
closed = 1;
nodes = (
"259 -80 OFFCURVE",
"270 -100 OFFCURVE",
"270 -123 CURVE SMOOTH",
"270 -128 OFFCURVE",
"269 -134 OFFCURVE",
"268 -140 CURVE",
"358 -140 LINE",
"360 -130 OFFCURVE",
"361 -120 OFFCURVE",
"361 -111 CURVE SMOOTH",
"361 -50 OFFCURVE",
"317 -20 OFFCURVE",
"247 -20 CURVE",
"235 -80 LINE"
);
},
{
closed = 1;
nodes = (
"428 -140 OFFCURVE",
"480 0 OFFCURVE",
"525 0 CURVE",
"537 60 LINE",
"447 60 OFFCURVE",
"400 -80 OFFCURVE",
"280 -80 CURVE",
"268 -140 LINE"
);
}
);
width = 525;
}
);
},
{
glyphname = "me-hira.ini";
lastChange = "2018-07-16 17:34:15 +0000";
layers = (
{
layerId = "CDF314B6-AD07-4304-BC80-988178CB760F";
paths = (
{
closed = 1;
nodes = (
"110 241 OFFCURVE",
"108 223 OFFCURVE",
"108 207 CURVE SMOOTH",
"108 107 OFFCURVE",
"164 60 OFFCURVE",
"253 60 CURVE SMOOTH",
"322 60 OFFCURVE",
"366 88 OFFCURVE",
"405 148 CURVE",
"413 194 LINE",
"353 139 OFFCURVE",
"322 120 OFFCURVE",
"265 120 CURVE SMOOTH",
"226 120 OFFCURVE",
"198 143 OFFCURVE",
"198 206 CURVE SMOOTH",
"198 222 OFFCURVE",
"199 239 OFFCURVE",
"203 260 CURVE",
"113 260 LINE"
);
},
{
closed = 1;
nodes = (
"461 200 LINE",
"501 400 LINE",
"411 400 LINE",
"371 200 LINE"
);
},
{
closed = 1;
nodes = (
"331 0 LINE",
"297 -170 OFFCURVE",
"237 -340 OFFCURVE",
"174 -340 CURVE",
"162 -400 LINE",
"299 -400 OFFCURVE",
"365 -279 OFFCURVE",
"421 0 CURVE"
);
},
{
closed = 1;
nodes = (
"174 -340 LINE",
"150 -340 OFFCURVE",
"141 -327 OFFCURVE",
"141 -300 CURVE SMOOTH",
"141 -287 OFFCURVE",
"143 -270 OFFCURVE",
"147 -250 CURVE",
"57 -250 LINE",
"53 -272 OFFCURVE",
"50 -291 OFFCURVE",
"50 -309 CURVE SMOOTH",
"50 -370 OFFCURVE",
"81 -400 OFFCURVE",
"162 -400 CURVE"
);
},
{
closed = 1;
nodes = (
"421 0 LINE",
"461 200 LINE",
"371 200 LINE",
"331 0 LINE"
);
},
{
closed = 1;
nodes = (
"493 60 LINE",
"359 62 OFFCURVE",
"97 -50 OFFCURVE",
"57 -250 CURVE",
"147 -250 LINE",
"172 -125 OFFCURVE",
"331 0 OFFCURVE",
"481 0 CURVE"
);
},
{
closed = 1;
nodes = (
"203 260 LINE",
"231 400 LINE",
"141 400 LINE",
"113 260 LINE"
);
},
{
closed = 1;
nodes = (
"522 -171 OFFCURVE",
"574 -126 OFFCURVE",
"574 -63 CURVE SMOOTH",
"574 -4 OFFCURVE",
"523 49 OFFCURVE",
"456 49 CURVE SMOOTH",
"396 49 OFFCURVE",
"344 3 OFFCURVE",
"344 -59 CURVE SMOOTH",
"344 -118 OFFCURVE",
"393 -171 OFFCURVE",
"461 -171 CURVE SMOOTH"
);
},
{
closed = 1;
nodes = (
"410 -29 OFFCURVE",
"434 -1 OFFCURVE",
"462 -1 CURVE SMOOTH",
"489 -1 OFFCURVE",
"509 -27 OFFCURVE",
"509 -58 CURVE SMOOTH",
"509 -93 OFFCURVE",
"483 -122 OFFCURVE",
"454 -122 CURVE SMOOTH",
"427 -122 OFFCURVE",
"410 -96 OFFCURVE",
"410 -65 CURVE SMOOTH"
);
},
{
closed = 1;
nodes = (
"481 0 LINE",
"541 0 LINE",
"553 60 LINE",
"493 60 LINE"
);
}
);
width = 541;
}
);
},
